<svg width="1512" height="1165" viewBox="0 0 1512 1165" fill="none" xmlns="http://www.w3.org/2000/svg">
<rect y="828" width="1527" height="395" fill="url(#paint0_linear_100_572)"/>
<rect width="1527" height="828" fill="url(#paint1_linear_100_572)"/>
<path d="M-1.62426 534.974C-6.23058 533.172 -18.6476 538.179 -19.4487 548.793L20.406 673.965H309.803C312.407 670.361 305.197 666.979 295.584 663.951C283.167 660.041 266.544 660.548 253.326 663.951C255.329 658.746 251.523 652.737 245.916 654.738C253.326 632.71 228.492 620.493 226.088 640.118C226.088 637.114 220.481 634.312 217.276 637.114C215.874 619.892 208.797 616.147 185.633 617.087C173.216 617.591 164.003 617.087 158.195 606.672C165.205 592.855 159.397 583.843 153.989 582.639C146.98 559.609 124.349 548.793 89.1003 563.213C92.7053 555.404 89.1003 548.793 83.4926 551.797C83.4926 545.39 78.0852 542.786 74.8808 548.793C74.8808 544.188 72.6778 541.783 70.0742 541.783C69.2731 489.914 4.38399 498.125 5.78592 526.562C2.78179 525.762 -1.62426 530.168 -1.62426 534.974Z" fill="url(#paint2_linear_100_572)"/>
<path d="M-1.62426 534.974C-6.23058 533.172 -18.6476 538.179 -19.4487 548.793L20.406 673.965H309.803C312.407 670.361 305.197 666.979 295.584 663.951C283.167 660.041 266.544 660.548 253.326 663.951C255.329 658.746 251.523 652.737 245.916 654.738C253.326 632.71 228.492 620.493 226.088 640.118C226.088 637.114 220.481 634.312 217.276 637.114C215.874 619.892 208.797 616.147 185.633 617.087C173.216 617.591 164.003 617.087 158.195 606.672C165.205 592.855 159.397 583.843 153.989 582.639C146.98 559.609 124.349 548.793 89.1003 563.213C92.7053 555.404 89.1003 548.793 83.4926 551.797C83.4926 545.39 78.0852 542.786 74.8808 548.793C74.8808 544.188 72.6778 541.783 70.0742 541.783C69.2731 489.914 4.38399 498.125 5.78592 526.562C2.78179 525.762 -1.62426 530.168 -1.62426 534.974Z" fill="url(#paint3_linear_100_572)" fill-opacity="0.2"/>
<path d="M-1.62426 534.974C-6.23058 533.172 -18.6476 538.179 -19.4487 548.793L20.406 673.965H309.803C312.407 670.361 305.197 666.979 295.584 663.951C283.167 660.041 266.544 660.548 253.326 663.951C255.329 658.746 251.523 652.737 245.916 654.738C253.326 632.71 228.492 620.493 226.088 640.118C226.088 637.114 220.481 634.312 217.276 637.114C215.874 619.892 208.797 616.147 185.633 617.087C173.216 617.591 164.003 617.087 158.195 606.672C165.205 592.855 159.397 583.843 153.989 582.639C146.98 559.609 124.349 548.793 89.1003 563.213C92.7053 555.404 89.1003 548.793 83.4926 551.797C83.4926 545.39 78.0852 542.786 74.8808 548.793C74.8808 544.188 72.6778 541.783 70.0742 541.783C69.2731 489.914 4.38399 498.125 5.78592 526.562C2.78179 525.762 -1.62426 530.168 -1.62426 534.974Z" fill="url(#paint4_diamond_100_572)"/>
<path d="M1424 737.5L1405.5 758L1423 747.5L1427.5 737.5H1424Z" fill="#B9BBB6"/>
<path d="M1502 845L1508.5 838.5L1512.67 834H1490.5C1489.7 825.2 1477.5 814.333 1471.5 810H1154.5L1196 845H1502Z" fill="#D2D3D5"/>
<path d="M1508.5 838.5H1188.5L1196 845H1502L1508.5 838.5Z" fill="#333742"/>
<path d="M1454.5 807L1457.5 810H1161L1159 807H1454.5Z" fill="#E4E2E5"/>
<path d="M1246 797C1235.2 797.8 1209.83 804 1198.5 807H1435C1435 800.5 1429 797 1421.5 792.5C1425.5 787.3 1452.17 783.333 1465 782C1462.17 780.5 1456 777.5 1454 777.5C1438 777.5 1422.33 771.167 1416.5 768L1429 746H1425L1395 765L1323.5 758C1304.17 768 1261.6 789.8 1246 797Z" fill="#E5E3DA"/>
<path d="M1464 782.001C1429 781.667 1351.6 783.101 1322 791.501C1365 791.501 1413 787.001 1428.5 800.501C1423.01 793.911 1421.57 792.403 1421.49 792.451C1421.14 790.583 1429.12 785.964 1464 782.001Z" fill="#8E919D"/>
<path d="M1301.5 793L1251 794.5L1276.5 782C1284.83 781.667 1305 781 1319 781C1336.5 781 1347.5 782 1346.5 784C1345.7 785.6 1316.17 790.667 1301.5 793Z" fill="#1C2230"/>
<path d="M1294.5 781.5L1273.5 793.5L1269.5 794L1290.5 781.5H1294.5Z" fill="#888B9A"/>
<path d="M1287 782L1266 794H1262.5L1283 782H1287Z" fill="#888B9A"/>
<path d="M1305 800C1373 784 1407 796 1415.5 804C1399.17 804.167 1364.9 804.5 1358.5 804.5C1346.5 797.5 1329.5 800 1305 800Z" fill="#1D202F"/>
<path d="M1321 761L1303.5 770L1326.5 769.5L1341 762L1321 761Z" fill="#597898"/>
<path d="M1344.5 762.5L1329 770L1352 769.5L1364 763.5L1344.5 762.5Z" fill="#597898"/>
<path d="M1369.5 764L1359 770L1382 769.5L1389.5 765.5L1369.5 764Z" fill="#597898"/>
<path d="M1435 804C1437 805 1439.38 803 1438.98 807" stroke="black"/>
<path d="M1410 803.5C1412 804.5 1415.37 803 1414.97 807" stroke="black"/>
<path d="M1386.53 802.5C1388.53 803.5 1390.34 803 1389.94 807" stroke="black"/>
<path d="M1361.59 802C1363.59 803 1366.9 803 1366.5 807" stroke="black"/>
<path d="M1337.67 801.5C1339.67 802.5 1341.94 803 1341.54 807" stroke="black"/>
<path d="M1312.29 800.5C1314.29 801.5 1318.04 803 1317.64 807" stroke="black"/>
<path d="M1286.93 800C1288.93 801 1292.66 803 1292.26 807" stroke="black"/>
<path d="M1261.1 799.5C1263.1 800.5 1267.3 803 1266.9 807" stroke="black"/>
<path d="M1235.8 799.5C1237.8 800.5 1241.47 803 1241.07 807" stroke="black"/>
<path d="M1210.27 799C1212.27 800 1216.17 803 1215.77 807" stroke="black"/>
<path d="M1443 804.499C1451 804.899 1452.67 806.332 1452.5 806.999L1162.5 806.999C1162 806.999 1159.4 805.499 1153 799.499C1209.5 796.999 1433 803.999 1443 804.499Z" stroke="black"/>
<path d="M1336.5 749.999L1347 759.999C1346.5 759.166 1344.2 755.999 1339 749.999C1341 745.999 1391.5 748.332 1416.5 749.999L1420 746.999C1398.83 746.166 1354.9 744.399 1348.5 743.999C1342.1 743.599 1337.83 747.832 1336.5 749.999Z" fill="#252233"/>
<circle cx="5.5" cy="5.5" r="5.5" transform="matrix(-1 0 0 1 1431.5 728)" fill="#D9D9D9"/>
<circle cx="5.5" cy="5.5" r="5.5" transform="matrix(-1 0 0 1 1431.5 728)" stroke="black"/>
<rect width="11" height="5" rx="2.5" transform="matrix(-1 0 0 1 1299.5 823)" fill="#0F1014"/>
<rect width="11" height="5" rx="2.5" transform="matrix(-1 0 0 1 1270.5 823)" fill="#0F1014"/>
<rect width="11" height="5" rx="2.5" transform="matrix(-1 0 0 1 1378.5 823)" fill="#0F1014"/>
<rect width="11" height="5" rx="2.5" transform="matrix(4.37114e-08 -1 -1 -4.37114e-08 1355.5 834)" fill="#0F1014"/>
<rect width="11" height="5" rx="2.5" transform="matrix(4.37114e-08 -1 -1 -4.37114e-08 1347.5 834)" fill="#0F1014"/>
<rect width="11" height="5" rx="2.5" transform="matrix(4.37114e-08 -1 -1 -4.37114e-08 1339.5 834)" fill="#0F1014"/>
<path d="M272 737.5L253.5 758L271 747.5L275.5 737.5H272Z" fill="#B9BBB6"/>
<path d="M350 845L356.5 838.5L360.673 834H338.5C337.7 825.2 325.5 814.333 319.5 810H2.5L44 845H350Z" fill="#D2D3D5"/>
<path d="M356.5 838.5H36.5L44 845H350L356.5 838.5Z" fill="#333742"/>
<path d="M302.5 807L305.5 810H9L7 807H302.5Z" fill="#E4E2E5"/>
<path d="M94 797C83.2 797.8 57.8333 804 46.5 807H283C283 800.5 277 797 269.5 792.5C273.5 787.3 300.167 783.333 313 782C310.167 780.5 304 777.5 302 777.5C286 777.5 270.333 771.167 264.5 768L277 746H273L243 765L171.5 758C152.167 768 109.6 789.8 94 797Z" fill="#E5E3DA"/>
<path d="M312 782.001C277 781.667 199.6 783.101 170 791.501C213 791.501 261 787.001 276.5 800.501C271.009 793.911 269.566 792.403 269.488 792.451C269.143 790.583 277.118 785.964 312 782.001Z" fill="#8E919D"/>
<path d="M149.5 793L99.0001 794.5L124.5 782C132.833 781.667 153 781 167 781C184.5 781 195.5 782 194.5 784C193.7 785.6 164.167 790.667 149.5 793Z" fill="#1C2230"/>
<path d="M142.5 781.5L121.5 793.5L117.5 794L138.5 781.5H142.5Z" fill="#888B9A"/>
<path d="M135 782L114 794H110.5L131 782H135Z" fill="#888B9A"/>
<path d="M153 800C221 784 255 796 263.5 804C247.167 804.167 212.9 804.5 206.5 804.5C194.5 797.5 177.5 800 153 800Z" fill="#1D202F"/>
<path d="M169 761L151.5 770L174.5 769.5L189 762L169 761Z" fill="#597898"/>
<path d="M192.5 762.5L177 770L200 769.5L212 763.5L192.5 762.5Z" fill="#597898"/>
<path d="M217.5 764L207 770L230 769.5L237.5 765.5L217.5 764Z" fill="#597898"/>
<path d="M283 804C285 805 287.384 803 286.984 807" stroke="black"/>
<path d="M258 803.5C260 804.5 263.368 803 262.968 807" stroke="black"/>
<path d="M234.529 802.5C236.529 803.5 238.344 803 237.944 807" stroke="black"/>
<path d="M209.586 802C211.586 803 214.896 803 214.496 807" stroke="black"/>
<path d="M185.672 801.5C187.672 802.5 189.94 803 189.54 807" stroke="black"/>
<path d="M160.286 800.5C162.286 801.5 166.042 803 165.642 807" stroke="black"/>
<path d="M134.929 800C136.929 801 140.656 803 140.256 807" stroke="black"/>
<path d="M109.1 799.5C111.1 800.5 115.302 803 114.902 807" stroke="black"/>
<path d="M83.8 799.5C85.8 800.5 89.4699 803 89.0699 807" stroke="black"/>
<path d="M58.2715 799C60.2715 800 64.1715 803 63.7715 807" stroke="black"/>
<path d="M291 804.499C299 804.899 300.667 806.332 300.5 806.999L10.5 806.999C10 806.999 7.39999 805.499 1 799.499C57.5 796.999 281 803.999 291 804.499Z" stroke="black"/>
<path d="M184.5 749.999L195 759.999C194.5 759.166 192.2 755.999 187 749.999C189 745.999 239.5 748.332 264.5 749.999L268 746.999C246.833 746.166 202.9 744.399 196.5 743.999C190.1 743.599 185.833 747.832 184.5 749.999Z" fill="#252233"/>
<circle cx="5.5" cy="5.5" r="5.5" transform="matrix(-1 0 0 1 279.5 728)" fill="#D9D9D9"/>
<circle cx="5.5" cy="5.5" r="5.5" transform="matrix(-1 0 0 1 279.5 728)" stroke="black"/>
<rect width="11" height="5" rx="2.5" transform="matrix(-1 0 0 1 147.5 823)" fill="#0F1014"/>
<rect width="11" height="5" rx="2.5" transform="matrix(-1 0 0 1 118.5 823)" fill="#0F1014"/>
<rect width="11" height="5" rx="2.5" transform="matrix(-1 0 0 1 226.5 823)" fill="#0F1014"/>
<rect width="11" height="5" rx="2.5" transform="matrix(4.37114e-08 -1 -1 -4.37114e-08 203.5 834)" fill="#0F1014"/>
<rect width="11" height="5" rx="2.5" transform="matrix(4.37114e-08 -1 -1 -4.37114e-08 195.5 834)" fill="#0F1014"/>
<rect width="11" height="5" rx="2.5" transform="matrix(4.37114e-08 -1 -1 -4.37114e-08 187.5 834)" fill="#0F1014"/>
<path d="M172.5 644.356C141.7 618.356 109.333 633.523 97 644.356L301.5 861.855C336.667 854.689 413.9 842.755 441.5 852.355C476 864.355 522.5 862.855 562 852.355C601.5 841.855 771 872.855 755 840.355C739 807.855 660 810.355 649.5 806.855C639 803.355 627 801.855 614 794.355C601 786.855 576 775.855 550.5 783.355C525 790.855 490 775.855 463 775.855C436 775.855 435 767.355 416 757.355C397 747.355 395.5 749.855 390 733.855C384.5 717.855 354.5 711.355 321 715.355C287.5 719.355 262 701.355 236 682.355C210 663.355 211 676.856 172.5 644.356Z" fill="#5CA3CF"/>
<path d="M1144.95 979.32L1144.57 977.34C1153.19 978.677 1159.24 980.419 1179.42 972.119C1159.77 979.246 1144.55 970.212 1136.36 965.435C1150.42 954.273 1172.72 955.586 1190.46 957.096C1165.51 944.72 1140.81 954.216 1131.58 960.51L1125.74 957.342C1129.24 952.532 1138.42 941.963 1147.15 938.161C1173.95 926.528 1196.27 950.919 1204.14 964.666C1204.16 964.7 1204.18 964.734 1204.2 964.768C1204.18 964.734 1204.16 964.7 1204.14 964.666C1203.09 962.967 1198.69 962.171 1188.83 971.995C1178.77 982.014 1155.38 981.053 1144.95 979.32Z" fill="#21E5A7"/>
<mask id="mask0_100_572" style="mask-type:alpha" maskUnits="userSpaceOnUse" x="1125" y="935" width="80" height="46">
<path d="M1144.95 979.32L1144.57 977.34C1153.19 978.677 1159.24 980.419 1179.42 972.119C1159.77 979.246 1144.55 970.212 1136.36 965.435C1150.42 954.273 1172.72 955.586 1190.46 957.096C1165.51 944.72 1140.81 954.216 1131.58 960.51L1125.74 957.342C1129.24 952.532 1138.42 941.963 1147.15 938.161C1173.95 926.528 1196.27 950.919 1204.14 964.666C1204.16 964.7 1204.18 964.734 1204.2 964.768C1204.18 964.734 1204.16 964.7 1204.14 964.666C1203.09 962.967 1198.69 962.171 1188.83 971.995C1178.77 982.014 1155.38 981.053 1144.95 979.32Z" fill="#21E5A7"/>
</mask>
<g mask="url(#mask0_100_572)">
<path d="M1191.59 957.615C1165.83 952.803 1151.75 972.653 1147.93 983.18L1123.75 958.281C1123.64 958.001 1125.33 955.247 1132.93 946.476C1154 939.002 1179.07 951.6 1191.59 957.615Z" fill="#0B4F62"/>
</g>
<path d="M1101.76 918.797C1126.33 925.576 1126.82 947.746 1124 957.983C1106.69 957.949 1092.88 941.77 1087.58 933.092C1082.27 924.415 1078.14 924.716 1069.93 921.352C1078.94 915.319 1089.58 915.368 1101.76 918.797Z" fill="#21E5A7"/>
<mask id="mask1_100_572" style="mask-type:alpha" maskUnits="userSpaceOnUse" x="1069" y="916" width="57" height="42">
<path d="M1101.76 918.797C1126.33 925.576 1126.82 947.746 1124 957.983C1106.69 957.949 1092.88 941.77 1087.58 933.092C1082.27 924.415 1078.14 924.716 1069.93 921.352C1078.94 915.319 1089.58 915.368 1101.76 918.797Z" fill="#21E5A7"/>
</mask>
<g mask="url(#mask1_100_572)">
<path d="M1126.49 954.516L1125.58 960.311C1123.02 962.969 1117.46 965.956 1115.74 956.633C1113.6 944.979 1104.47 934.972 1091.21 925.266C1108.17 928.518 1121.8 946.121 1126.49 954.516Z" fill="#0B4F62"/>
</g>
<path d="M1097.82 1012.44C1098.06 1012.16 1098.26 1011.95 1098.42 1011.8C1098.51 1011.99 1098.63 1012.26 1098.77 1012.6C1099.08 1013.39 1099.47 1014.52 1099.91 1015.89C1100.79 1018.63 1101.84 1022.31 1102.82 1026.13C1103.79 1029.95 1104.68 1033.89 1105.22 1037.14C1105.5 1038.77 1105.68 1040.22 1105.75 1041.39C1105.82 1042.59 1105.76 1043.42 1105.6 1043.87C1105.47 1044.24 1105.1 1044.6 1104.42 1044.9C1103.75 1045.2 1102.84 1045.41 1101.74 1045.53C1099.55 1045.78 1096.74 1045.64 1093.9 1045.22C1091.07 1044.79 1088.26 1044.08 1086.06 1043.17C1084.96 1042.72 1084.04 1042.22 1083.35 1041.71C1082.65 1041.18 1082.24 1040.67 1082.08 1040.19C1081.94 1039.72 1081.99 1038.92 1082.32 1037.79C1082.64 1036.69 1083.18 1035.35 1083.89 1033.87C1085.31 1030.91 1087.36 1027.41 1089.51 1024.06C1091.65 1020.71 1093.87 1017.52 1095.63 1015.19C1096.5 1014.03 1097.26 1013.08 1097.82 1012.44Z" fill="url(#paint5_linear_100_572)" stroke="url(#paint6_linear_100_572)"/>
<path d="M1106.79 998.051C1106.64 998.387 1106.53 998.659 1106.46 998.863C1106.68 998.869 1106.97 998.863 1107.34 998.843C1108.19 998.797 1109.38 998.68 1110.81 998.503C1113.66 998.151 1117.45 997.564 1121.32 996.847C1125.19 996.13 1129.14 995.284 1132.33 994.413C1133.92 993.977 1135.31 993.537 1136.41 993.108C1137.52 992.669 1138.26 992.267 1138.6 991.931C1138.88 991.654 1139.05 991.173 1139.04 990.429C1139.02 989.693 1138.83 988.776 1138.48 987.73C1137.79 985.642 1136.49 983.143 1134.91 980.75C1133.34 978.358 1131.51 976.101 1129.77 974.488C1128.89 973.681 1128.06 973.048 1127.3 972.638C1126.53 972.224 1125.89 972.065 1125.39 972.128C1124.9 972.189 1124.2 972.577 1123.31 973.347C1122.44 974.099 1121.46 975.152 1120.41 976.418C1118.31 978.948 1116 982.28 1113.86 985.631C1111.72 988.98 1109.76 992.334 1108.38 994.903C1107.69 996.188 1107.14 997.269 1106.79 998.051Z" fill="url(#paint7_linear_100_572)" stroke="url(#paint8_linear_100_572)"/>
<path d="M1104.72 1010.63C1104.69 1010.33 1104.66 1010.09 1104.65 1009.89C1104.83 1009.97 1105.06 1010.09 1105.32 1010.23C1106.07 1010.64 1107.11 1011.26 1108.35 1012.03C1110.82 1013.57 1114.06 1015.73 1117.35 1018.04C1120.64 1020.35 1123.96 1022.8 1126.6 1024.96C1127.91 1026.03 1129.05 1027.03 1129.92 1027.89C1130.8 1028.76 1131.36 1029.44 1131.58 1029.91C1131.78 1030.31 1131.79 1030.82 1131.58 1031.46C1131.37 1032.1 1130.96 1032.83 1130.37 1033.61C1129.18 1035.17 1127.34 1036.83 1125.28 1038.29C1123.22 1039.75 1120.97 1040.97 1118.98 1041.66C1117.98 1042 1117.07 1042.21 1116.28 1042.25C1115.49 1042.28 1114.88 1042.16 1114.44 1041.88C1113.99 1041.6 1113.46 1040.93 1112.86 1039.86C1112.28 1038.8 1111.68 1037.43 1111.08 1035.85C1109.89 1032.68 1108.71 1028.7 1107.69 1024.78C1106.68 1020.86 1105.83 1017.02 1105.29 1014.13C1105.02 1012.68 1104.82 1011.48 1104.72 1010.63Z" fill="url(#paint9_linear_100_572)" stroke="url(#paint10_linear_100_572)"/>
<path d="M1107.46 1004.86C1107.17 1004.95 1106.94 1005.03 1106.76 1005.1C1106.91 1005.23 1107.11 1005.38 1107.35 1005.57C1108.03 1006.08 1109.03 1006.76 1110.25 1007.56C1112.69 1009.16 1116.01 1011.2 1119.48 1013.22C1122.96 1015.23 1126.58 1017.22 1129.64 1018.7C1131.17 1019.45 1132.55 1020.06 1133.69 1020.49C1134.85 1020.93 1135.71 1021.15 1136.23 1021.16C1136.67 1021.16 1137.14 1020.96 1137.63 1020.5C1138.13 1020.05 1138.62 1019.36 1139.08 1018.5C1139.99 1016.77 1140.73 1014.4 1141.19 1011.92C1141.65 1009.44 1141.82 1006.88 1141.61 1004.79C1141.5 1003.74 1141.3 1002.82 1141.01 1002.09C1140.71 1001.36 1140.34 1000.85 1139.9 1000.57C1139.46 1000.28 1138.63 1000.08 1137.41 999.991C1136.21 999.905 1134.71 999.934 1133.02 1000.06C1129.64 1000.3 1125.54 1000.9 1121.55 1001.62C1117.57 1002.34 1113.72 1003.18 1110.87 1003.9C1109.44 1004.26 1108.27 1004.59 1107.46 1004.86Z" fill="url(#paint11_linear_100_572)" stroke="url(#paint12_linear_100_572)"/>
<path d="M1107.46 1004.86C1107.17 1004.95 1106.94 1005.03 1106.76 1005.1C1106.91 1005.23 1107.11 1005.38 1107.35 1005.57C1108.03 1006.08 1109.03 1006.76 1110.25 1007.56C1112.69 1009.16 1116.01 1011.2 1119.48 1013.22C1122.96 1015.23 1126.58 1017.22 1129.64 1018.7C1131.17 1019.45 1132.55 1020.06 1133.69 1020.49C1134.85 1020.93 1135.71 1021.15 1136.23 1021.16C1136.67 1021.16 1137.14 1020.96 1137.63 1020.5C1138.13 1020.05 1138.62 1019.36 1139.08 1018.5C1139.99 1016.77 1140.73 1014.4 1141.19 1011.92C1141.65 1009.44 1141.82 1006.88 1141.61 1004.79C1141.5 1003.74 1141.3 1002.82 1141.01 1002.09C1140.71 1001.36 1140.34 1000.85 1139.9 1000.57C1139.46 1000.28 1138.63 1000.08 1137.41 999.991C1136.21 999.905 1134.71 999.934 1133.02 1000.06C1129.64 1000.3 1125.54 1000.9 1121.55 1001.62C1117.57 1002.34 1113.72 1003.18 1110.87 1003.9C1109.44 1004.26 1108.27 1004.59 1107.46 1004.86Z" fill="url(#paint13_linear_100_572)" stroke="url(#paint14_linear_100_572)"/>
<path d="M1092.26 1008.88C1092.41 1008.55 1092.52 1008.27 1092.59 1008.07C1092.38 1008.06 1092.08 1008.07 1091.72 1008.09C1090.87 1008.14 1089.68 1008.25 1088.25 1008.43C1085.4 1008.78 1081.61 1009.37 1077.74 1010.09C1073.87 1010.8 1069.92 1011.65 1066.73 1012.52C1065.14 1012.96 1063.74 1013.4 1062.65 1013.83C1061.54 1014.26 1060.8 1014.67 1060.46 1015C1060.18 1015.28 1060.01 1015.76 1060.02 1016.5C1060.03 1017.24 1060.22 1018.16 1060.57 1019.2C1061.27 1021.29 1062.57 1023.79 1064.15 1026.18C1065.72 1028.58 1067.55 1030.83 1069.29 1032.45C1070.17 1033.25 1071 1033.89 1071.76 1034.3C1072.53 1034.71 1073.17 1034.87 1073.67 1034.81C1074.15 1034.74 1074.85 1034.36 1075.75 1033.59C1076.62 1032.83 1077.6 1031.78 1078.65 1030.52C1080.74 1027.99 1083.06 1024.65 1085.2 1021.3C1087.34 1017.95 1089.3 1014.6 1090.68 1012.03C1091.37 1010.75 1091.92 1009.66 1092.26 1008.88Z" fill="url(#paint15_linear_100_572)" stroke="url(#paint16_linear_100_572)"/>
<path d="M1101.56 994.704C1101.32 994.981 1101.12 995.194 1100.96 995.343C1100.86 995.15 1100.75 994.881 1100.61 994.538C1100.3 993.75 1099.91 992.622 1099.47 991.251C1098.59 988.512 1097.53 984.829 1096.56 981.013C1095.59 977.195 1094.7 973.255 1094.15 969.997C1093.88 968.368 1093.7 966.919 1093.63 965.747C1093.56 964.551 1093.62 963.716 1093.78 963.267C1093.91 962.896 1094.28 962.539 1094.96 962.238C1095.63 961.939 1096.54 961.727 1097.64 961.606C1099.83 961.364 1102.64 961.496 1105.47 961.922C1108.31 962.347 1111.12 963.062 1113.32 963.968C1114.42 964.422 1115.34 964.916 1116.03 965.435C1116.73 965.959 1117.14 966.472 1117.3 966.95C1117.44 967.418 1117.38 968.216 1117.06 969.348C1116.74 970.454 1116.2 971.788 1115.49 973.271C1114.07 976.234 1112.02 979.734 1109.87 983.083C1107.73 986.431 1105.51 989.616 1103.75 991.947C1102.88 993.113 1102.12 994.06 1101.56 994.704Z" fill="url(#paint17_linear_100_572)" stroke="url(#paint18_linear_100_572)"/>
<path d="M1091.01 1001.86C1091.3 1001.77 1091.53 1001.69 1091.71 1001.61C1091.56 1001.49 1091.36 1001.33 1091.12 1001.15C1090.44 1000.64 1089.44 999.956 1088.22 999.157C1085.78 997.56 1082.46 995.516 1078.99 993.499C1075.51 991.482 1071.89 989.495 1068.83 988.01C1067.3 987.267 1065.92 986.653 1064.78 986.224C1063.62 985.788 1062.76 985.565 1062.24 985.558C1061.8 985.551 1061.33 985.754 1060.84 986.211C1060.34 986.669 1059.85 987.351 1059.39 988.216C1058.48 989.946 1057.74 992.314 1057.28 994.795C1056.82 997.275 1056.65 999.831 1056.86 1001.93C1056.97 1002.98 1057.17 1003.89 1057.46 1004.62C1057.76 1005.36 1058.13 1005.86 1058.57 1006.15C1059 1006.43 1059.84 1006.64 1061.06 1006.72C1062.26 1006.81 1063.76 1006.78 1065.45 1006.66C1068.83 1006.42 1072.93 1005.82 1076.92 1005.1C1080.9 1004.37 1084.74 1003.53 1087.6 1002.81C1089.03 1002.45 1090.2 1002.12 1091.01 1001.86Z" fill="url(#paint19_linear_100_572)" stroke="url(#paint20_linear_100_572)"/>
<path d="M1095.11 996.955C1095.14 997.25 1095.16 997.496 1095.18 997.692C1095 997.607 1094.77 997.493 1094.51 997.349C1093.76 996.942 1092.72 996.326 1091.48 995.552C1089.01 994.008 1085.76 991.853 1082.47 989.545C1079.19 987.236 1075.86 984.778 1073.23 982.626C1071.92 981.549 1070.78 980.555 1069.91 979.697C1069.03 978.825 1068.47 978.137 1068.24 977.672C1068.05 977.275 1068.04 976.763 1068.25 976.12C1068.45 975.477 1068.87 974.748 1069.46 973.97C1070.65 972.415 1072.49 970.748 1074.55 969.291C1076.6 967.834 1078.85 966.609 1080.85 965.922C1081.84 965.578 1082.76 965.375 1083.55 965.336C1084.33 965.297 1084.95 965.426 1085.39 965.703C1085.83 965.98 1086.37 966.65 1086.96 967.725C1087.54 968.778 1088.14 970.148 1088.74 971.733C1089.94 974.902 1091.12 978.882 1092.13 982.801C1093.15 986.718 1094 990.562 1094.54 993.455C1094.81 994.903 1095.01 996.104 1095.11 996.955Z" fill="url(#paint21_linear_100_572)" stroke="url(#paint22_linear_100_572)"/>
<path d="M1066.73 989.099C1063.3 987.287 1061.4 990.951 1060.88 993.01L1059.86 992.359C1059.77 991.504 1059.96 989.362 1061.45 987.635C1063.31 985.476 1071.02 991.365 1066.73 989.099Z" fill="white"/>
<path d="M1089.08 979.46C1086.02 968.699 1080.45 968.037 1078.04 969.052C1079.55 967.943 1083.01 965.917 1084.82 966.688C1087.07 967.651 1087.47 970.773 1089.08 979.46Z" fill="white"/>
<path d="M38.5 938.499C15.3 940.899 -26.1667 951.833 -44 956.999V537C-29.8333 544.833 -0.400002 560.9 4 562.5C9.5 564.5 28.5 561 44 570.5C59.5 580 51 576 65 576.5C79 577 82.5 576.5 85.5 589C88.5 601.5 96.5 603.5 100 613.5C103.5 623.5 116 623.5 119 633.5C122 643.5 123 649 130.5 652.5C138 656 152 671.5 166.5 670C181 668.5 182 670 186.5 686C191 702 214.5 719 249 728C283.5 737 289 768.5 295 783.5C301 798.5 313 797 320 803C327 809 345 815 364.5 817.5C384 820 390 827.5 403.5 850C417 872.5 463.5 879 484.5 881C501.3 882.6 514.833 899 519.5 907C522 908.666 518.5 911.899 484.5 911.499C442 910.999 146.5 904.499 149 918.499C151.5 932.499 67.5 935.499 38.5 938.499Z" fill="#2D3A42"/>
<path d="M1518.64 879.499C1541.84 881.899 1583.31 892.833 1601.14 897.999V478C1586.97 485.833 1557.54 501.9 1553.14 503.5C1547.64 505.5 1528.64 502 1513.14 511.5C1497.64 521 1506.14 517 1492.14 517.5C1478.14 518 1474.64 517.5 1471.64 530C1468.64 542.5 1460.64 544.5 1457.14 554.5C1453.64 564.5 1441.14 564.5 1438.14 574.5C1435.14 584.5 1434.14 590 1426.64 593.5C1419.14 597 1405.14 612.5 1390.64 611C1376.14 609.5 1375.14 611 1370.64 627C1366.14 643 1342.64 660 1308.14 669C1273.64 678 1268.14 709.5 1262.14 724.5C1256.14 739.5 1244.14 738 1237.14 744C1230.14 750 1212.14 756 1192.64 758.5C1173.14 761 1167.14 768.5 1153.64 791C1140.14 813.5 1093.64 820 1072.64 822C1055.84 823.6 1042.31 840 1037.64 848C1035.14 849.666 1038.64 852.899 1072.64 852.499C1115.14 851.999 1410.64 845.499 1408.14 859.499C1405.64 873.499 1489.64 876.499 1518.64 879.499Z" fill="#2D3A42"/>
<path d="M1456.47 320.1C1456.47 292.053 1490.69 274 1512 274V480H1352.02C1345.88 480 1345.24 476.454 1352.02 473.552C1352.02 471.296 1362.19 464.687 1371.87 467.911C1371.87 457.272 1390.66 457.26 1422.4 454.371C1360.23 455.408 1321.51 455.983 1297.94 454.371C1277.12 452.947 1314.4 399.244 1357.67 414.557C1357.67 407.465 1363.32 402.307 1371.87 410.366C1371.87 393.764 1394.15 371.842 1430.96 379.095C1411.26 358.463 1428.7 317.038 1445.17 326.548C1443.55 320.1 1449.52 315.264 1456.47 320.1Z" fill="url(#paint23_linear_100_572)"/>
<path d="M313.418 731.243C320.918 731.743 331.918 734.742 331.918 734.742C339.162 735.911 342.558 736.209 344.918 734.742C349.324 722.302 366.918 728.74 366.918 718.743C366.918 708.745 395.418 710.242 394.918 720.743C394.418 731.243 399.918 727.241 401.918 736.742C409.15 750.667 379.418 746.667 369.418 747.742C336.918 751.239 344.918 740.906 309.418 736.742C273.918 732.579 305.918 730.743 313.418 731.243Z" fill="url(#paint24_linear_100_572)"/>
<path d="M98.0097 689.713C80.2466 683 11.0602 686.894 12.0097 689.713C12.9591 692.533 25.7741 696.18 34.5097 696.213C71.8346 696.301 95.4078 695.447 117.51 700.713C117.51 700.713 133.51 708.714 148.01 708.714H148.017C162.525 708.714 211.02 708.714 217.51 714.713C224 720.713 221.509 718.712 229.01 720.713C236.511 722.714 269.009 718.712 286.51 720.713C304.01 722.714 315.655 724.647 345.01 724.713C350.05 717.53 325.511 714.713 304.01 708.714C282.51 702.715 244.398 712.214 240.51 705.213C236.621 698.212 170.51 696.213 150.01 696.213C129.509 696.213 115.773 696.426 98.0097 689.713Z" fill="url(#paint25_linear_100_572)"/>
<path d="M21 743.68L116.751 737.352V869.014H21V743.68Z" fill="#E3F4FF"/>
<path d="M169.431 741.617L116.751 737.352V869.014L169.431 872.316L169.431 741.617Z" fill="#E3F4FF"/>
<path d="M21 743.68L73.6806 749.045V883.597L21 875.343V743.68Z" fill="#C5E7FF"/>
<path d="M73.6807 748.633L169.431 742.305V874.105L73.6807 883.461V748.633Z" fill="url(#paint26_linear_100_572)"/>
<path d="M169.431 759.246L73.6807 765.562V767.948L169.431 761.632V759.246Z" fill="url(#paint27_linear_100_572)"/>
<path d="M169.431 763.176L73.6807 769.492V771.878L169.431 765.562V763.176Z" fill="url(#paint28_linear_100_572)"/>
<path d="M169.431 767.105L73.6807 773.421V775.807L169.431 769.491V767.105Z" fill="url(#paint29_linear_100_572)"/>
<path d="M169.431 771.035L73.6807 777.351V779.737L169.431 773.421V771.035Z" fill="url(#paint30_linear_100_572)"/>
<path d="M169.431 774.965L73.6807 781.281V783.667L169.431 777.351V774.965Z" fill="url(#paint31_linear_100_572)"/>
<path d="M169.431 786.475L73.6807 792.79V795.176L169.431 788.861V786.475Z" fill="url(#paint32_linear_100_572)"/>
<path d="M169.431 790.404L73.6807 796.72V799.106L169.431 792.79V790.404Z" fill="url(#paint33_linear_100_572)"/>
<path d="M169.431 794.334L73.6807 800.65V803.036L169.431 796.72V794.334Z" fill="url(#paint34_linear_100_572)"/>
<path d="M169.431 798.264L73.6807 804.579V806.965L169.431 800.65V798.264Z" fill="url(#paint35_linear_100_572)"/>
<path d="M169.431 802.193L73.6807 808.509V810.895L169.431 804.579V802.193Z" fill="url(#paint36_linear_100_572)"/>
<path d="M169.431 813.703L73.6807 820.019V822.405L169.431 816.089V813.703Z" fill="url(#paint37_linear_100_572)"/>
<path d="M169.431 817.633L73.6807 823.949V826.335L169.431 820.019V817.633Z" fill="url(#paint38_linear_100_572)"/>
<path d="M169.431 821.562L73.6807 827.878V830.264L169.431 823.948V821.562Z" fill="url(#paint39_linear_100_572)"/>
<path d="M169.431 825.492L73.6807 831.808V834.194L169.431 827.878V825.492Z" fill="url(#paint40_linear_100_572)"/>
<path d="M169.431 829.422L73.6807 835.738V838.124L169.431 831.808V829.422Z" fill="url(#paint41_linear_100_572)"/>
<path d="M169.431 840.932L73.6807 847.247V849.633L169.431 843.318V840.932Z" fill="url(#paint42_linear_100_572)"/>
<path d="M169.431 844.861L73.6807 851.177V853.563L169.431 847.247V844.861Z" fill="url(#paint43_linear_100_572)"/>
<path d="M169.431 848.791L73.6807 855.107V857.493L169.431 851.177V848.791Z" fill="url(#paint44_linear_100_572)"/>
<path d="M169.431 852.721L73.6807 859.037V861.422L169.431 855.107V852.721Z" fill="url(#paint45_linear_100_572)"/>
<path d="M169.431 856.65L73.6807 862.966V865.352L169.431 859.036V856.65Z" fill="url(#paint46_linear_100_572)"/>
<path d="M73.6806 765.564L21 760.09V762.616L73.6806 767.95V765.564Z" fill="#377090"/>
<path d="M73.6806 769.493L21 764.02V766.546L73.6806 771.879V769.493Z" fill="#377090"/>
<path d="M73.6806 773.423L21 767.949V770.476L73.6806 775.809V773.423Z" fill="#377090"/>
<path d="M73.6806 777.353L21 771.879V774.405L73.6806 779.739V777.353Z" fill="#377090"/>
<path d="M73.6806 781.284L21 775.811V778.337L73.6806 783.67V781.284Z" fill="#377090"/>
<path d="M73.6806 847.247L21 841.773V844.3L73.6806 849.633V847.247Z" fill="#377090"/>
<path d="M73.6806 851.177L21 845.703V848.229L73.6806 853.563V851.177Z" fill="#377090"/>
<path d="M73.6806 855.107L21 849.633V852.159L73.6806 857.492V855.107Z" fill="#377090"/>
<path d="M73.6806 859.036L21 853.562V856.089L73.6806 861.422V859.036Z" fill="#377090"/>
<path d="M73.6806 862.968L21 857.494V860.02L73.6806 865.354V862.968Z" fill="#377090"/>
<path d="M73.6806 792.79L21 787.316V789.843L73.6806 795.176V792.79Z" fill="#377090"/>
<path d="M73.6806 796.72L21 791.246V793.772L73.6806 799.106V796.72Z" fill="#377090"/>
<path d="M73.6806 800.649L21 795.176V797.702L73.6806 803.035V800.649Z" fill="#377090"/>
<path d="M73.6806 804.579L21 799.105V801.632L73.6806 806.965V804.579Z" fill="#377090"/>
<path d="M73.6806 808.509L21 803.035V805.561L73.6806 810.895V808.509Z" fill="#377090"/>
<path d="M73.6806 820.019L21 814.545V817.071L73.6806 822.405V820.019Z" fill="#377090"/>
<path d="M73.6806 823.948L21 818.475V821.001L73.6806 826.334V823.948Z" fill="#377090"/>
<path d="M73.6806 827.878L21 822.404V824.931L73.6806 830.264V827.878Z" fill="#377090"/>
<path d="M73.6806 831.808L21 826.334V828.86L73.6806 834.194V831.808Z" fill="#377090"/>
<path d="M73.6806 835.737L21 830.264V832.79L73.6806 838.123V835.737Z" fill="#377090"/>
<path d="M177.618 861.141V730.754L197.907 725V861.141H177.618Z" fill="#C5E7FF"/>
<path d="M213.925 861.001V730.614L198.975 725L198.263 725.14V861.001H213.925Z" fill="url(#paint47_linear_100_572)"/>
<path d="M179.754 759.526V757.842L195.593 755.736V757.421L179.754 759.526Z" fill="#377090"/>
<path d="M179.932 762.192V760.508L195.771 758.402V760.087L179.932 762.192Z" fill="#377090"/>
<path d="M179.932 765V763.316L195.771 761.211V762.895L179.932 765Z" fill="#377090"/>
<path d="M179.932 767.807V766.123L195.771 764.018V765.702L179.932 767.807Z" fill="#377090"/>
<path d="M179.398 777.772V776.088L195.237 773.982V775.667L179.398 777.772Z" fill="#377090"/>
<path d="M179.576 780.438V778.754L195.415 776.648V778.333L179.576 780.438Z" fill="#377090"/>
<path d="M179.576 783.247V781.562L195.415 779.457V781.141L179.576 783.247Z" fill="#377090"/>
<path d="M179.576 786.053V784.369L195.415 782.264V783.948L179.576 786.053Z" fill="#377090"/>
<path d="M179.754 796.018V794.334L195.593 792.229V793.913L179.754 796.018Z" fill="#377090"/>
<path d="M179.932 798.684V797L195.771 794.895V796.579L179.932 798.684Z" fill="#377090"/>
<path d="M179.932 801.493V799.808L195.771 797.703V799.387L179.932 801.493Z" fill="#377090"/>
<path d="M179.932 804.299V802.615L195.771 800.51V802.194L179.932 804.299Z" fill="#377090"/>
<path d="M179.754 814.262V812.578L195.593 810.473V812.157L179.754 814.262Z" fill="#377090"/>
<path d="M179.932 816.928V815.244L195.771 813.139V814.823L179.932 816.928Z" fill="#377090"/>
<path d="M179.932 819.737V818.053L195.771 815.947V817.631L179.932 819.737Z" fill="#377090"/>
<path d="M179.932 822.543V820.859L195.771 818.754V820.438L179.932 822.543Z" fill="#377090"/>
<path d="M179.754 832.51V830.826L195.593 828.721V830.405L179.754 832.51Z" fill="#377090"/>
<path d="M179.932 835.176V833.492L195.771 831.387V833.071L179.932 835.176Z" fill="#377090"/>
<path d="M179.932 837.985V836.301L195.771 834.195V835.88L179.932 837.985Z" fill="#377090"/>
<path d="M179.932 840.789V839.105L195.771 837V838.684L179.932 840.789Z" fill="#377090"/>
<path d="M198.975 725H197.907L198.085 861.001H198.975V725Z" fill="#6B8FA5"/>
<path d="M179.754 741.282V739.597L195.593 737.492V739.176L179.754 741.282Z" fill="#377090"/>
<path d="M179.932 743.948V742.263L195.771 740.158V741.842L179.932 743.948Z" fill="#377090"/>
<path d="M179.932 746.756V745.072L195.771 742.967V744.651L179.932 746.756Z" fill="#377090"/>
<path d="M179.932 749.563V747.879L195.771 745.773V747.458L179.932 749.563Z" fill="#377090"/>
<path d="M203.246 775.667V773.982L211.789 775.105V776.789L203.246 775.667Z" fill="url(#paint48_linear_100_572)"/>
<path d="M203.246 778.192V776.508L211.789 777.631V779.315L203.246 778.192Z" fill="url(#paint49_linear_100_572)"/>
<path d="M203.246 780.719V779.035L211.789 780.158V781.842L203.246 780.719Z" fill="url(#paint50_linear_100_572)"/>
<path d="M203.246 783.245V781.561L211.789 782.683V784.368L203.246 783.245Z" fill="url(#paint51_linear_100_572)"/>
<path d="M203.246 739.174V737.49L211.789 738.613V740.297L203.246 739.174Z" fill="url(#paint52_linear_100_572)"/>
<path d="M203.246 741.7V740.016L211.789 741.138V742.823L203.246 741.7Z" fill="url(#paint53_linear_100_572)"/>
<path d="M203.246 744.227V742.543L211.789 743.666V745.35L203.246 744.227Z" fill="url(#paint54_linear_100_572)"/>
<path d="M203.246 746.753V745.068L211.789 746.191V747.875L203.246 746.753Z" fill="url(#paint55_linear_100_572)"/>
<path d="M203.246 757.421V755.736L211.789 756.859V758.543L203.246 757.421Z" fill="url(#paint56_linear_100_572)"/>
<path d="M203.246 759.946V758.262L211.789 759.385V761.069L203.246 759.946Z" fill="url(#paint57_linear_100_572)"/>
<path d="M203.246 762.473V760.789L211.789 761.912V763.596L203.246 762.473Z" fill="url(#paint58_linear_100_572)"/>
<path d="M203.246 764.999V763.314L211.789 764.437V766.121L203.246 764.999Z" fill="url(#paint59_linear_100_572)"/>
<path d="M203.246 793.911V792.227L211.789 793.349V795.034L203.246 793.911Z" fill="url(#paint60_linear_100_572)"/>
<path d="M203.246 796.436V794.752L211.789 795.875V797.559L203.246 796.436Z" fill="url(#paint61_linear_100_572)"/>
<path d="M203.246 798.964V797.279L211.789 798.402V800.086L203.246 798.964Z" fill="url(#paint62_linear_100_572)"/>
<path d="M203.246 801.489V799.805L211.789 800.927V802.612L203.246 801.489Z" fill="url(#paint63_linear_100_572)"/>
<path d="M203.246 812.157V810.473L211.789 811.595V813.28L203.246 812.157Z" fill="url(#paint64_linear_100_572)"/>
<path d="M203.246 814.682V812.998L211.789 814.121V815.805L203.246 814.682Z" fill="url(#paint65_linear_100_572)"/>
<path d="M203.246 817.21V815.525L211.789 816.648V818.332L203.246 817.21Z" fill="url(#paint66_linear_100_572)"/>
<path d="M203.246 819.735V818.051L211.789 819.174V820.858L203.246 819.735Z" fill="url(#paint67_linear_100_572)"/>
<path d="M203.246 830.403V828.719L211.789 829.842V831.526L203.246 830.403Z" fill="url(#paint68_linear_100_572)"/>
<path d="M203.246 832.93V831.246L211.789 832.369V834.053L203.246 832.93Z" fill="url(#paint69_linear_100_572)"/>
<path d="M203.246 835.456V833.771L211.789 834.894V836.579L203.246 835.456Z" fill="url(#paint70_linear_100_572)"/>
<path d="M203.246 837.981V836.297L211.789 837.42V839.104L203.246 837.981Z" fill="url(#paint71_linear_100_572)"/>
<path d="M286.895 760.649L315.015 758.123V887.246H286.895V760.649Z" fill="url(#paint72_linear_100_572)"/>
<path d="M315.015 758.123H362V887.246H315.015V758.123Z" fill="#E3F4FF"/>
<rect x="318.574" y="780.297" width="43.4259" height="1.68422" fill="url(#paint73_linear_100_572)"/>
<rect x="318.574" y="783.104" width="43.4259" height="1.68422" fill="url(#paint74_linear_100_572)"/>
<rect x="318.574" y="785.91" width="43.4259" height="1.68422" fill="url(#paint75_linear_100_572)"/>
<rect x="318.574" y="788.719" width="43.4259" height="1.68422" fill="url(#paint76_linear_100_572)"/>
<rect x="318.574" y="791.525" width="43.4259" height="1.68422" fill="url(#paint77_linear_100_572)"/>
<rect x="318.574" y="794.332" width="43.4259" height="1.68422" fill="url(#paint78_linear_100_572)"/>
<rect x="318.574" y="761.488" width="43.4259" height="1.68422" fill="url(#paint79_linear_100_572)"/>
<rect x="318.574" y="764.295" width="43.4259" height="1.68422" fill="url(#paint80_linear_100_572)"/>
<rect x="318.574" y="767.102" width="43.4259" height="1.68422" fill="url(#paint81_linear_100_572)"/>
<rect x="318.574" y="769.91" width="43.4259" height="1.68422" fill="url(#paint82_linear_100_572)"/>
<rect x="318.574" y="772.717" width="43.4259" height="1.68422" fill="url(#paint83_linear_100_572)"/>
<rect x="318.574" y="775.523" width="43.4259" height="1.68422" fill="url(#paint84_linear_100_572)"/>
<rect x="318.574" y="799.104" width="43.4259" height="1.68422" fill="url(#paint85_linear_100_572)"/>
<rect x="318.574" y="801.91" width="43.4259" height="1.68422" fill="url(#paint86_linear_100_572)"/>
<rect x="318.574" y="804.717" width="43.4259" height="1.68422" fill="url(#paint87_linear_100_572)"/>
<rect x="318.574" y="807.525" width="43.4259" height="1.68422" fill="url(#paint88_linear_100_572)"/>
<rect x="318.574" y="810.332" width="43.4259" height="1.68422" fill="url(#paint89_linear_100_572)"/>
<rect x="318.574" y="813.139" width="43.4259" height="1.68422" fill="url(#paint90_linear_100_572)"/>
<rect x="318.574" y="817.91" width="43.4259" height="1.68422" fill="url(#paint91_linear_100_572)"/>
<rect x="318.574" y="820.717" width="43.4259" height="1.68422" fill="url(#paint92_linear_100_572)"/>
<rect x="318.574" y="823.523" width="43.4259" height="1.68422" fill="url(#paint93_linear_100_572)"/>
<rect x="318.574" y="826.332" width="43.4259" height="1.68422" fill="url(#paint94_linear_100_572)"/>
<rect x="318.574" y="829.137" width="43.4259" height="1.68422" fill="url(#paint95_linear_100_572)"/>
<rect x="318.574" y="831.943" width="43.4259" height="1.68422" fill="url(#paint96_linear_100_572)"/>
<rect x="318.574" y="836.717" width="43.4259" height="1.68422" fill="url(#paint97_linear_100_572)"/>
<rect x="318.574" y="839.525" width="43.4259" height="1.68422" fill="url(#paint98_linear_100_572)"/>
<rect x="318.574" y="842.33" width="43.4259" height="1.68422" fill="url(#paint99_linear_100_572)"/>
<rect x="318.574" y="845.139" width="43.4259" height="1.68422" fill="url(#paint100_linear_100_572)"/>
<rect x="318.574" y="847.945" width="43.4259" height="1.68422" fill="url(#paint101_linear_100_572)"/>
<rect x="318.574" y="850.752" width="43.4259" height="1.68422" fill="url(#paint102_linear_100_572)"/>
<rect x="318.574" y="856.367" width="43.4259" height="1.68422" fill="url(#paint103_linear_100_572)"/>
<rect x="318.574" y="859.174" width="43.4259" height="1.68422" fill="url(#paint104_linear_100_572)"/>
<rect x="318.574" y="861.982" width="43.4259" height="1.68422" fill="url(#paint105_linear_100_572)"/>
<rect x="318.574" y="864.789" width="43.4259" height="1.68422" fill="url(#paint106_linear_100_572)"/>
<rect x="318.574" y="867.596" width="43.4259" height="1.68422" fill="url(#paint107_linear_100_572)"/>
<rect x="318.574" y="870.402" width="43.4259" height="1.68422" fill="url(#paint108_linear_100_572)"/>
<path d="M295.793 759.849L297.217 759.723V887.247H295.793V759.849Z" fill="#377090"/>
<path d="M298.641 759.59L300.065 759.469V887.246H298.641V759.59Z" fill="#377090"/>
<rect x="222.112" y="823.527" width="34.1712" height="53.895" fill="url(#paint109_linear_100_572)"/>
<path d="M256.283 823.527L286.538 826.054V877.422H256.283V823.527Z" fill="#E3F3FF"/>
<rect x="222.112" y="841.773" width="34.1712" height="0.842109" fill="url(#paint110_linear_100_572)"/>
<rect x="222.112" y="828.299" width="34.1712" height="0.842109" fill="url(#paint111_linear_100_572)"/>
<rect x="222.112" y="829.984" width="34.1712" height="0.842109" fill="url(#paint112_linear_100_572)"/>
<rect x="222.112" y="843.457" width="34.1712" height="0.842109" fill="url(#paint113_linear_100_572)"/>
<rect x="222.112" y="826.615" width="34.1712" height="0.842109" fill="url(#paint114_linear_100_572)"/>
<rect x="222.112" y="840.09" width="34.1712" height="0.842109" fill="url(#paint115_linear_100_572)"/>
<rect x="222.112" y="831.668" width="34.1712" height="0.842109" fill="url(#paint116_linear_100_572)"/>
<rect x="222.112" y="833.354" width="34.1712" height="0.842109" fill="url(#paint117_linear_100_572)"/>
<rect x="222.112" y="835.037" width="34.1712" height="0.842109" fill="url(#paint118_linear_100_572)"/>
<rect x="222.112" y="836.721" width="34.1712" height="0.842109" fill="url(#paint119_linear_100_572)"/>
<rect x="222.112" y="838.404" width="34.1712" height="0.842109" fill="url(#paint120_linear_100_572)"/>
<rect x="222.112" y="848.512" width="34.1712" height="0.842109" fill="url(#paint121_linear_100_572)"/>
<rect x="222.112" y="850.195" width="34.1712" height="0.842109" fill="url(#paint122_linear_100_572)"/>
<rect x="222.112" y="846.826" width="34.1712" height="0.842109" fill="url(#paint123_linear_100_572)"/>
<rect x="222.112" y="845.143" width="34.1712" height="0.842109" fill="url(#paint124_linear_100_572)"/>
<rect x="222.112" y="855.248" width="34.1712" height="0.842109" fill="url(#paint125_linear_100_572)"/>
<rect x="222.112" y="856.932" width="34.1712" height="0.842109" fill="url(#paint126_linear_100_572)"/>
<rect x="222.112" y="853.564" width="34.1712" height="0.842109" fill="url(#paint127_linear_100_572)"/>
<rect x="222.112" y="851.881" width="34.1712" height="0.842109" fill="url(#paint128_linear_100_572)"/>
<rect x="222.112" y="861.984" width="34.1712" height="0.842109" fill="url(#paint129_linear_100_572)"/>
<rect x="222.112" y="863.668" width="34.1712" height="0.842109" fill="url(#paint130_linear_100_572)"/>
<rect x="222.112" y="860.301" width="34.1712" height="0.842109" fill="url(#paint131_linear_100_572)"/>
<rect x="222.112" y="858.617" width="34.1712" height="0.842109" fill="url(#paint132_linear_100_572)"/>
<rect x="222.112" y="868.721" width="34.1712" height="0.842109" fill="url(#paint133_linear_100_572)"/>
<rect x="222.112" y="870.406" width="34.1712" height="0.842109" fill="url(#paint134_linear_100_572)"/>
<rect x="222.112" y="867.037" width="34.1712" height="0.842109" fill="url(#paint135_linear_100_572)"/>
<rect x="222.112" y="865.354" width="34.1712" height="0.842109" fill="url(#paint136_linear_100_572)"/>
<rect x="222.112" y="873.773" width="34.1712" height="0.842109" fill="url(#paint137_linear_100_572)"/>
<rect x="222.112" y="872.09" width="34.1712" height="0.842109" fill="url(#paint138_linear_100_572)"/>
<path d="M258.852 826.615L286.543 828.207L286.539 829.001L258.852 827.457L258.852 826.615Z" fill="#58A6D1"/>
<path d="M258.852 828.299L286.542 829.89L286.538 830.685L258.852 829.141L258.852 828.299Z" fill="#58A6D1"/>
<path d="M258.852 829.984L286.542 831.576L286.538 832.37L258.852 830.826L258.852 829.984Z" fill="#58A6D1"/>
<path d="M258.852 831.668L286.543 833.259L286.539 834.054L258.852 832.51L258.852 831.668Z" fill="#58A6D1"/>
<path d="M258.852 833.354L286.542 834.945L286.538 835.739L258.852 834.196L258.852 833.354Z" fill="#58A6D1"/>
<path d="M258.852 835.037L286.542 836.628L286.538 837.423L258.852 835.879L258.852 835.037Z" fill="#58A6D1"/>
<path d="M258.852 839.246L286.543 840.837L286.539 841.632L258.852 840.088L258.852 839.246Z" fill="#58A6D1"/>
<path d="M258.852 840.932L286.542 842.523L286.538 843.318L258.852 841.774L258.852 840.932Z" fill="#58A6D1"/>
<path d="M258.852 842.615L286.542 844.207L286.538 845.001L258.852 843.457L258.852 842.615Z" fill="#58A6D1"/>
<path d="M258.852 844.299L286.543 845.89L286.539 846.685L258.852 845.141L258.852 844.299Z" fill="#58A6D1"/>
<path d="M258.852 845.984L286.542 847.576L286.538 848.37L258.852 846.826L258.852 845.984Z" fill="#58A6D1"/>
<path d="M258.852 847.668L286.542 849.259L286.538 850.054L258.852 848.51L258.852 847.668Z" fill="#58A6D1"/>
<path d="M258.852 851.879L286.543 853.47L286.539 854.265L258.852 852.721L258.852 851.879Z" fill="#58A6D1"/>
<path d="M258.852 853.562L286.542 855.154L286.538 855.948L258.852 854.405L258.852 853.562Z" fill="#58A6D1"/>
<path d="M258.852 855.248L286.542 856.839L286.538 857.634L258.852 856.09L258.852 855.248Z" fill="#58A6D1"/>
<path d="M258.852 856.932L286.543 858.523L286.539 859.318L258.852 857.774L258.852 856.932Z" fill="#58A6D1"/>
<path d="M258.852 858.615L286.542 860.207L286.538 861.001L258.852 859.457L258.852 858.615Z" fill="#58A6D1"/>
<path d="M258.852 860.301L286.542 861.892L286.538 862.687L258.852 861.143L258.852 860.301Z" fill="#58A6D1"/>
<path d="M258.852 864.51L286.543 866.101L286.539 866.896L258.852 865.352L258.852 864.51Z" fill="#58A6D1"/>
<path d="M258.852 866.193L286.542 867.785L286.538 868.579L258.852 867.035L258.852 866.193Z" fill="#58A6D1"/>
<path d="M258.852 867.879L286.542 869.47L286.538 870.265L258.852 868.721L258.852 867.879Z" fill="#58A6D1"/>
<path d="M258.852 869.562L286.543 871.154L286.539 871.948L258.852 870.405L258.852 869.562Z" fill="#58A6D1"/>
<path d="M258.852 871.248L286.542 872.839L286.538 873.634L258.852 872.09L258.852 871.248Z" fill="#58A6D1"/>
<path d="M258.852 872.932L286.542 874.523L286.538 875.318L258.852 873.774L258.852 872.932Z" fill="#58A6D1"/>
<path d="M1283 824.516V775.59H1266.97C1260.59 765.105 1259.77 765.105 1223.18 765.105C1191.72 763.799 1188.85 765.105 1183.5 775.59H1165V824.516H1283Z" fill="url(#paint139_linear_100_572)"/>
<path d="M1198.3 824.515H1194.19V789.342C1194.19 785.901 1198.3 785.711 1198.3 789.342V824.515Z" fill="url(#paint140_linear_100_572)"/>
<path d="M1242.71 824.515H1238.6V789.342C1238.6 785.901 1242.71 785.711 1242.71 789.342V824.515Z" fill="url(#paint141_linear_100_572)"/>
<path d="M1253.81 824.515H1249.7V789.342C1249.7 785.901 1253.81 785.711 1253.81 789.342V824.515Z" fill="url(#paint142_linear_100_572)"/>
<path d="M1264.91 824.515H1260.8V789.342C1260.8 785.901 1264.91 785.711 1264.91 789.342V824.515Z" fill="url(#paint143_linear_100_572)"/>
<path d="M1276.01 824.515H1271.9V789.342C1271.9 785.901 1276.01 785.711 1276.01 789.342V824.515Z" fill="url(#paint144_linear_100_572)"/>
<path d="M1209.4 824.515H1205.29V789.342C1205.29 785.901 1209.4 785.711 1209.4 789.342V824.515Z" fill="url(#paint145_linear_100_572)"/>
<path d="M1220.51 824.515H1216.39V789.342C1216.39 785.901 1220.51 785.711 1220.51 789.342V824.515Z" fill="url(#paint146_linear_100_572)"/>
<path d="M1231.61 824.515H1227.49V789.342C1227.49 785.901 1231.61 785.711 1231.61 789.342V824.515Z" fill="url(#paint147_linear_100_572)"/>
<path d="M1187.2 824.515H1183.09V789.342C1183.09 785.901 1187.2 785.711 1187.2 789.342V824.515Z" fill="url(#paint148_linear_100_572)"/>
<path d="M1176.1 824.515H1171.99V789.342C1171.99 785.901 1176.1 785.711 1176.1 789.342V824.515Z" fill="url(#paint149_linear_100_572)"/>
<path d="M1442.13 548.889C1430.31 527.492 1391.86 536.771 1397.91 562.427C1393.65 560.06 1390.25 563.658 1391.2 566.877C1379.57 565.646 1376.17 577.764 1382.79 582.214C1380.61 582.403 1380.05 584.486 1381.46 585.906C1358.98 578.143 1336.2 604.083 1358.98 615.255C1349.43 612.888 1346.13 619.799 1348.2 625.479C1346.13 624.817 1344.43 627.089 1345.09 628.414C1341.12 627.373 1340.36 630.402 1340.36 630.402C1340.36 630.402 1326.88 631.686 1326 634H1614C1609.3 629.023 1599.54 626.426 1581.4 625.479C1584.14 623.397 1579.51 620.178 1577.43 621.598C1595.86 606.64 1563.64 594.521 1554.76 604.083C1555.89 601.622 1553.34 598.876 1550.98 600.77C1559.67 589.409 1550.31 571.326 1534.91 577.007C1535.67 573.788 1533.21 572.273 1530.57 573.788C1532.36 571.989 1530.57 570.19 1528.77 571.326C1534.91 561.764 1523.29 551.634 1515.54 557.315C1515.54 553.528 1511.95 554.285 1511.29 555.989C1500.14 527.303 1471.23 537.717 1468.77 558.451C1468.77 543.871 1454.13 548.889 1448.55 555.989C1452.43 546.427 1444.58 544.629 1442.13 548.889Z" fill="url(#paint150_radial_100_572)"/>
<defs>
<linearGradient id="paint0_linear_100_572" x1="674" y1="1223" x2="674" y2="828" gradientUnits="userSpaceOnUse">
<stop stop-color="#1A5BAC"/>
<stop offset="0.3" stop-color="#2979C8"/>
<stop offset="0.61" stop-color="#3591DC"/>
<stop offset="1" stop-color="#4CABEF"/>
</linearGradient>
<linearGradient id="paint1_linear_100_572" x1="674" y1="828" x2="674" y2="1.84386e-05" gradientUnits="userSpaceOnUse">
<stop stop-color="#6BC6FF"/>
<stop offset="0.3" stop-color="#4EB4F5" stop-opacity="0.33"/>
<stop offset="0.61" stop-color="#44ADF1" stop-opacity="0.21"/>
<stop offset="1" stop-color="#3D9DEA" stop-opacity="0"/>
</linearGradient>
<linearGradient id="paint2_linear_100_572" x1="17.8024" y1="588.917" x2="383.705" y2="692.459" gradientUnits="userSpaceOnUse">
<stop stop-color="white"/>
<stop offset="0.865282" stop-color="white" stop-opacity="0"/>
</linearGradient>
<linearGradient id="paint3_linear_100_572" x1="-19.4487" y1="437.108" x2="59.2593" y2="564.683" gradientUnits="userSpaceOnUse">
<stop stop-color="white"/>
<stop offset="1" stop-color="white" stop-opacity="0"/>
<stop offset="1" stop-color="white" stop-opacity="0"/>
</linearGradient>
<radialGradient id="paint4_diamond_100_572" cx="0" cy="0" r="1" gradientUnits="userSpaceOnUse" gradientTransform="translate(109.128 485.374) rotate(116.415) scale(136.857 265.548)">
<stop offset="0.116854" stop-color="#45AEF2"/>
<stop offset="1" stop-color="#45AEF2" stop-opacity="0"/>
</radialGradient>
<linearGradient id="paint5_linear_100_572" x1="1098.43" y1="1011.1" x2="1093.21" y2="1045.62" gradientUnits="userSpaceOnUse">
<stop stop-color="#FEB609"/>
<stop offset="1" stop-color="#FAA605"/>
</linearGradient>
<linearGradient id="paint6_linear_100_572" x1="1098.43" y1="1011.1" x2="1093.21" y2="1045.62" gradientUnits="userSpaceOnUse">
<stop stop-color="#F38A06"/>
<stop offset="1" stop-color="#FAB10A"/>
</linearGradient>
<linearGradient id="paint7_linear_100_572" x1="1105.84" y1="999.169" x2="1134.99" y2="979.954" gradientUnits="userSpaceOnUse">
<stop stop-color="#FABC04"/>
<stop offset="1" stop-color="#FFD00C"/>
</linearGradient>
<linearGradient id="paint8_linear_100_572" x1="1105.84" y1="999.169" x2="1134.99" y2="979.954" gradientUnits="userSpaceOnUse">
<stop stop-color="#F38A06"/>
<stop offset="1" stop-color="#FAB10A"/>
</linearGradient>
<linearGradient id="paint9_linear_100_572" x1="1104.14" y1="1009.29" x2="1125.12" y2="1039.02" gradientUnits="userSpaceOnUse">
<stop stop-color="#F8BE00"/>
<stop offset="1" stop-color="#FAB205"/>
</linearGradient>
<linearGradient id="paint10_linear_100_572" x1="1104.14" y1="1009.29" x2="1125.12" y2="1039.02" gradientUnits="userSpaceOnUse">
<stop stop-color="#F38A06"/>
<stop offset="1" stop-color="#FAB10A"/>
</linearGradient>
<linearGradient id="paint11_linear_100_572" x1="1106" y1="1004.89" x2="1141.78" y2="1011.47" gradientUnits="userSpaceOnUse">
<stop stop-color="#FABC07"/>
<stop offset="1" stop-color="#FFC302"/>
</linearGradient>
<linearGradient id="paint12_linear_100_572" x1="1106" y1="1004.89" x2="1141.78" y2="1011.47" gradientUnits="userSpaceOnUse">
<stop stop-color="#F38A06"/>
<stop offset="1" stop-color="#FAB10A"/>
</linearGradient>
<linearGradient id="paint13_linear_100_572" x1="1106" y1="1004.89" x2="1141.78" y2="1011.47" gradientUnits="userSpaceOnUse">
<stop stop-color="#FABC07"/>
<stop offset="1" stop-color="#FFC302"/>
</linearGradient>
<linearGradient id="paint14_linear_100_572" x1="1106" y1="1004.89" x2="1141.78" y2="1011.47" gradientUnits="userSpaceOnUse">
<stop stop-color="#F38A06"/>
<stop offset="1" stop-color="#FAB10A"/>
</linearGradient>
<linearGradient id="paint15_linear_100_572" x1="1093.22" y1="1007.77" x2="1064.07" y2="1026.98" gradientUnits="userSpaceOnUse">
<stop stop-color="#FBBA08"/>
<stop offset="1" stop-color="#F4A604"/>
</linearGradient>
<linearGradient id="paint16_linear_100_572" x1="1093.22" y1="1007.77" x2="1064.07" y2="1026.98" gradientUnits="userSpaceOnUse">
<stop stop-color="#F38A06"/>
<stop offset="1" stop-color="#FAB10A"/>
</linearGradient>
<linearGradient id="paint17_linear_100_572" x1="1100.94" y1="996.036" x2="1106.17" y2="961.521" gradientUnits="userSpaceOnUse">
<stop stop-color="#FFCC07"/>
<stop offset="1" stop-color="#FABC05"/>
</linearGradient>
<linearGradient id="paint18_linear_100_572" x1="1100.94" y1="996.036" x2="1106.17" y2="961.521" gradientUnits="userSpaceOnUse">
<stop stop-color="#F38A06"/>
<stop offset="1" stop-color="#FAB10A"/>
</linearGradient>
<linearGradient id="paint19_linear_100_572" x1="1092.47" y1="1001.83" x2="1056.69" y2="995.247" gradientUnits="userSpaceOnUse">
<stop stop-color="#FEB80C"/>
<stop offset="1" stop-color="#F9B104"/>
</linearGradient>
<linearGradient id="paint20_linear_100_572" x1="1092.47" y1="1001.83" x2="1056.69" y2="995.247" gradientUnits="userSpaceOnUse">
<stop stop-color="#F38A06"/>
<stop offset="1" stop-color="#FAB10A"/>
</linearGradient>
<linearGradient id="paint21_linear_100_572" x1="1095.69" y1="998.29" x2="1074.71" y2="968.564" gradientUnits="userSpaceOnUse">
<stop stop-color="#FDC405"/>
<stop offset="1" stop-color="#FCB906"/>
</linearGradient>
<linearGradient id="paint22_linear_100_572" x1="1095.69" y1="998.29" x2="1074.71" y2="968.564" gradientUnits="userSpaceOnUse">
<stop stop-color="#F38A06"/>
<stop offset="1" stop-color="#FAB10A"/>
</linearGradient>
<linearGradient id="paint23_linear_100_572" x1="1475.68" y1="249.016" x2="1475.68" y2="488.059" gradientUnits="userSpaceOnUse">
<stop stop-color="white"/>
<stop offset="1" stop-color="white" stop-opacity="0"/>
</linearGradient>
<linearGradient id="paint24_linear_100_572" x1="348.02" y1="712" x2="380" y2="762" gradientUnits="userSpaceOnUse">
<stop stop-color="white"/>
<stop offset="1" stop-color="white" stop-opacity="0"/>
</linearGradient>
<linearGradient id="paint25_linear_100_572" x1="178.838" y1="686" x2="178.838" y2="724.713" gradientUnits="userSpaceOnUse">
<stop stop-color="white"/>
<stop offset="1" stop-color="white" stop-opacity="0"/>
</linearGradient>
<linearGradient id="paint26_linear_100_572" x1="169.431" y1="787.457" x2="83.549" y2="799.334" gradientUnits="userSpaceOnUse">
<stop stop-color="white"/>
<stop offset="1" stop-color="#C5E7FF"/>
</linearGradient>
<linearGradient id="paint27_linear_100_572" x1="120.666" y1="763.347" x2="93.0566" y2="769.412" gradientUnits="userSpaceOnUse">
<stop stop-color="#5598BE"/>
<stop offset="1" stop-color="#377090"/>
</linearGradient>
<linearGradient id="paint28_linear_100_572" x1="120.666" y1="767.277" x2="93.0566" y2="773.342" gradientUnits="userSpaceOnUse">
<stop stop-color="#5598BE"/>
<stop offset="1" stop-color="#377090"/>
</linearGradient>
<linearGradient id="paint29_linear_100_572" x1="120.666" y1="771.206" x2="93.0566" y2="777.271" gradientUnits="userSpaceOnUse">
<stop stop-color="#5598BE"/>
<stop offset="1" stop-color="#377090"/>
</linearGradient>
<linearGradient id="paint30_linear_100_572" x1="120.666" y1="775.136" x2="93.0566" y2="781.201" gradientUnits="userSpaceOnUse">
<stop stop-color="#5598BE"/>
<stop offset="1" stop-color="#377090"/>
</linearGradient>
<linearGradient id="paint31_linear_100_572" x1="120.666" y1="779.066" x2="93.0566" y2="785.131" gradientUnits="userSpaceOnUse">
<stop stop-color="#5598BE"/>
<stop offset="1" stop-color="#377090"/>
</linearGradient>
<linearGradient id="paint32_linear_100_572" x1="120.666" y1="790.575" x2="93.0566" y2="796.641" gradientUnits="userSpaceOnUse">
<stop stop-color="#5598BE"/>
<stop offset="1" stop-color="#377090"/>
</linearGradient>
<linearGradient id="paint33_linear_100_572" x1="120.666" y1="794.505" x2="93.0566" y2="800.57" gradientUnits="userSpaceOnUse">
<stop stop-color="#5598BE"/>
<stop offset="1" stop-color="#377090"/>
</linearGradient>
<linearGradient id="paint34_linear_100_572" x1="120.666" y1="798.435" x2="93.0566" y2="804.5" gradientUnits="userSpaceOnUse">
<stop stop-color="#5598BE"/>
<stop offset="1" stop-color="#377090"/>
</linearGradient>
<linearGradient id="paint35_linear_100_572" x1="120.666" y1="802.365" x2="93.0566" y2="808.43" gradientUnits="userSpaceOnUse">
<stop stop-color="#5598BE"/>
<stop offset="1" stop-color="#377090"/>
</linearGradient>
<linearGradient id="paint36_linear_100_572" x1="120.666" y1="806.294" x2="93.0566" y2="812.359" gradientUnits="userSpaceOnUse">
<stop stop-color="#5598BE"/>
<stop offset="1" stop-color="#377090"/>
</linearGradient>
<linearGradient id="paint37_linear_100_572" x1="120.666" y1="817.804" x2="93.0566" y2="823.869" gradientUnits="userSpaceOnUse">
<stop stop-color="#5598BE"/>
<stop offset="1" stop-color="#377090"/>
</linearGradient>
<linearGradient id="paint38_linear_100_572" x1="120.666" y1="821.734" x2="93.0566" y2="827.799" gradientUnits="userSpaceOnUse">
<stop stop-color="#5598BE"/>
<stop offset="1" stop-color="#377090"/>
</linearGradient>
<linearGradient id="paint39_linear_100_572" x1="120.666" y1="825.663" x2="93.0566" y2="831.729" gradientUnits="userSpaceOnUse">
<stop stop-color="#5598BE"/>
<stop offset="1" stop-color="#377090"/>
</linearGradient>
<linearGradient id="paint40_linear_100_572" x1="120.666" y1="829.593" x2="93.0566" y2="835.658" gradientUnits="userSpaceOnUse">
<stop stop-color="#5598BE"/>
<stop offset="1" stop-color="#377090"/>
</linearGradient>
<linearGradient id="paint41_linear_100_572" x1="120.666" y1="833.523" x2="93.0566" y2="839.588" gradientUnits="userSpaceOnUse">
<stop stop-color="#5598BE"/>
<stop offset="1" stop-color="#377090"/>
</linearGradient>
<linearGradient id="paint42_linear_100_572" x1="120.666" y1="845.032" x2="93.0566" y2="851.098" gradientUnits="userSpaceOnUse">
<stop stop-color="#5598BE"/>
<stop offset="1" stop-color="#377090"/>
</linearGradient>
<linearGradient id="paint43_linear_100_572" x1="120.666" y1="848.962" x2="93.0566" y2="855.027" gradientUnits="userSpaceOnUse">
<stop stop-color="#5598BE"/>
<stop offset="1" stop-color="#377090"/>
</linearGradient>
<linearGradient id="paint44_linear_100_572" x1="120.666" y1="852.892" x2="93.0566" y2="858.957" gradientUnits="userSpaceOnUse">
<stop stop-color="#5598BE"/>
<stop offset="1" stop-color="#377090"/>
</linearGradient>
<linearGradient id="paint45_linear_100_572" x1="120.666" y1="856.822" x2="93.0566" y2="862.887" gradientUnits="userSpaceOnUse">
<stop stop-color="#5598BE"/>
<stop offset="1" stop-color="#377090"/>
</linearGradient>
<linearGradient id="paint46_linear_100_572" x1="120.666" y1="860.751" x2="93.0566" y2="866.816" gradientUnits="userSpaceOnUse">
<stop stop-color="#5598BE"/>
<stop offset="1" stop-color="#377090"/>
</linearGradient>
<linearGradient id="paint47_linear_100_572" x1="213.925" y1="781.141" x2="190.294" y2="779.563" gradientUnits="userSpaceOnUse">
<stop stop-color="white"/>
<stop offset="1" stop-color="#C5E7FF"/>
</linearGradient>
<linearGradient id="paint48_linear_100_572" x1="227.095" y1="775.242" x2="200.674" y2="800.686" gradientUnits="userSpaceOnUse">
<stop stop-color="#5396BC"/>
<stop offset="1" stop-color="#377090"/>
</linearGradient>
<linearGradient id="paint49_linear_100_572" x1="227.095" y1="777.768" x2="200.674" y2="803.211" gradientUnits="userSpaceOnUse">
<stop stop-color="#5396BC"/>
<stop offset="1" stop-color="#377090"/>
</linearGradient>
<linearGradient id="paint50_linear_100_572" x1="227.095" y1="780.295" x2="200.674" y2="805.739" gradientUnits="userSpaceOnUse">
<stop stop-color="#5396BC"/>
<stop offset="1" stop-color="#377090"/>
</linearGradient>
<linearGradient id="paint51_linear_100_572" x1="227.095" y1="782.821" x2="200.674" y2="808.264" gradientUnits="userSpaceOnUse">
<stop stop-color="#5396BC"/>
<stop offset="1" stop-color="#377090"/>
</linearGradient>
<linearGradient id="paint52_linear_100_572" x1="227.095" y1="738.75" x2="200.674" y2="764.194" gradientUnits="userSpaceOnUse">
<stop stop-color="#5396BC"/>
<stop offset="1" stop-color="#377090"/>
</linearGradient>
<linearGradient id="paint53_linear_100_572" x1="227.095" y1="741.276" x2="200.674" y2="766.719" gradientUnits="userSpaceOnUse">
<stop stop-color="#5396BC"/>
<stop offset="1" stop-color="#377090"/>
</linearGradient>
<linearGradient id="paint54_linear_100_572" x1="227.095" y1="743.803" x2="200.674" y2="769.247" gradientUnits="userSpaceOnUse">
<stop stop-color="#5396BC"/>
<stop offset="1" stop-color="#377090"/>
</linearGradient>
<linearGradient id="paint55_linear_100_572" x1="227.095" y1="746.328" x2="200.674" y2="771.772" gradientUnits="userSpaceOnUse">
<stop stop-color="#5396BC"/>
<stop offset="1" stop-color="#377090"/>
</linearGradient>
<linearGradient id="paint56_linear_100_572" x1="227.095" y1="756.996" x2="200.674" y2="782.44" gradientUnits="userSpaceOnUse">
<stop stop-color="#5396BC"/>
<stop offset="1" stop-color="#377090"/>
</linearGradient>
<linearGradient id="paint57_linear_100_572" x1="227.095" y1="759.522" x2="200.674" y2="784.965" gradientUnits="userSpaceOnUse">
<stop stop-color="#5396BC"/>
<stop offset="1" stop-color="#377090"/>
</linearGradient>
<linearGradient id="paint58_linear_100_572" x1="227.095" y1="762.049" x2="200.674" y2="787.493" gradientUnits="userSpaceOnUse">
<stop stop-color="#5396BC"/>
<stop offset="1" stop-color="#377090"/>
</linearGradient>
<linearGradient id="paint59_linear_100_572" x1="227.095" y1="764.575" x2="200.674" y2="790.018" gradientUnits="userSpaceOnUse">
<stop stop-color="#5396BC"/>
<stop offset="1" stop-color="#377090"/>
</linearGradient>
<linearGradient id="paint60_linear_100_572" x1="227.095" y1="793.487" x2="200.674" y2="818.93" gradientUnits="userSpaceOnUse">
<stop stop-color="#5396BC"/>
<stop offset="1" stop-color="#377090"/>
</linearGradient>
<linearGradient id="paint61_linear_100_572" x1="227.095" y1="796.012" x2="200.674" y2="821.456" gradientUnits="userSpaceOnUse">
<stop stop-color="#5396BC"/>
<stop offset="1" stop-color="#377090"/>
</linearGradient>
<linearGradient id="paint62_linear_100_572" x1="227.095" y1="798.539" x2="200.674" y2="823.983" gradientUnits="userSpaceOnUse">
<stop stop-color="#5396BC"/>
<stop offset="1" stop-color="#377090"/>
</linearGradient>
<linearGradient id="paint63_linear_100_572" x1="227.095" y1="801.065" x2="200.674" y2="826.508" gradientUnits="userSpaceOnUse">
<stop stop-color="#5396BC"/>
<stop offset="1" stop-color="#377090"/>
</linearGradient>
<linearGradient id="paint64_linear_100_572" x1="227.095" y1="811.733" x2="200.674" y2="837.176" gradientUnits="userSpaceOnUse">
<stop stop-color="#5396BC"/>
<stop offset="1" stop-color="#377090"/>
</linearGradient>
<linearGradient id="paint65_linear_100_572" x1="227.095" y1="814.258" x2="200.674" y2="839.702" gradientUnits="userSpaceOnUse">
<stop stop-color="#5396BC"/>
<stop offset="1" stop-color="#377090"/>
</linearGradient>
<linearGradient id="paint66_linear_100_572" x1="227.095" y1="816.785" x2="200.674" y2="842.229" gradientUnits="userSpaceOnUse">
<stop stop-color="#5396BC"/>
<stop offset="1" stop-color="#377090"/>
</linearGradient>
<linearGradient id="paint67_linear_100_572" x1="227.095" y1="819.311" x2="200.674" y2="844.754" gradientUnits="userSpaceOnUse">
<stop stop-color="#5396BC"/>
<stop offset="1" stop-color="#377090"/>
</linearGradient>
<linearGradient id="paint68_linear_100_572" x1="227.095" y1="829.979" x2="200.674" y2="855.422" gradientUnits="userSpaceOnUse">
<stop stop-color="#5396BC"/>
<stop offset="1" stop-color="#377090"/>
</linearGradient>
<linearGradient id="paint69_linear_100_572" x1="227.095" y1="832.506" x2="200.674" y2="857.95" gradientUnits="userSpaceOnUse">
<stop stop-color="#5396BC"/>
<stop offset="1" stop-color="#377090"/>
</linearGradient>
<linearGradient id="paint70_linear_100_572" x1="227.095" y1="835.032" x2="200.674" y2="860.475" gradientUnits="userSpaceOnUse">
<stop stop-color="#5396BC"/>
<stop offset="1" stop-color="#377090"/>
</linearGradient>
<linearGradient id="paint71_linear_100_572" x1="227.095" y1="837.557" x2="200.674" y2="863" gradientUnits="userSpaceOnUse">
<stop stop-color="#5396BC"/>
<stop offset="1" stop-color="#377090"/>
</linearGradient>
<linearGradient id="paint72_linear_100_572" x1="300.777" y1="887.246" x2="300.777" y2="769.632" gradientUnits="userSpaceOnUse">
<stop offset="0.371171" stop-color="#75B3D8"/>
<stop offset="1" stop-color="#C5E7FF"/>
</linearGradient>
<linearGradient id="paint73_linear_100_572" x1="334.236" y1="780.759" x2="334.289" y2="780.122" gradientUnits="userSpaceOnUse">
<stop stop-color="#377090"/>
<stop offset="1" stop-color="#6CB6E0"/>
</linearGradient>
<linearGradient id="paint74_linear_100_572" x1="334.236" y1="783.565" x2="334.289" y2="782.928" gradientUnits="userSpaceOnUse">
<stop stop-color="#377090"/>
<stop offset="1" stop-color="#6CB6E0"/>
</linearGradient>
<linearGradient id="paint75_linear_100_572" x1="334.236" y1="786.372" x2="334.289" y2="785.735" gradientUnits="userSpaceOnUse">
<stop stop-color="#377090"/>
<stop offset="1" stop-color="#6CB6E0"/>
</linearGradient>
<linearGradient id="paint76_linear_100_572" x1="334.236" y1="789.18" x2="334.289" y2="788.544" gradientUnits="userSpaceOnUse">
<stop stop-color="#377090"/>
<stop offset="1" stop-color="#6CB6E0"/>
</linearGradient>
<linearGradient id="paint77_linear_100_572" x1="334.236" y1="791.987" x2="334.289" y2="791.35" gradientUnits="userSpaceOnUse">
<stop stop-color="#377090"/>
<stop offset="1" stop-color="#6CB6E0"/>
</linearGradient>
<linearGradient id="paint78_linear_100_572" x1="334.236" y1="794.794" x2="334.289" y2="794.157" gradientUnits="userSpaceOnUse">
<stop stop-color="#377090"/>
<stop offset="1" stop-color="#6CB6E0"/>
</linearGradient>
<linearGradient id="paint79_linear_100_572" x1="334.236" y1="761.95" x2="334.289" y2="761.313" gradientUnits="userSpaceOnUse">
<stop stop-color="#377090"/>
<stop offset="1" stop-color="#6CB6E0"/>
</linearGradient>
<linearGradient id="paint80_linear_100_572" x1="334.236" y1="764.757" x2="334.289" y2="764.12" gradientUnits="userSpaceOnUse">
<stop stop-color="#377090"/>
<stop offset="1" stop-color="#6CB6E0"/>
</linearGradient>
<linearGradient id="paint81_linear_100_572" x1="334.236" y1="767.563" x2="334.289" y2="766.927" gradientUnits="userSpaceOnUse">
<stop stop-color="#377090"/>
<stop offset="1" stop-color="#6CB6E0"/>
</linearGradient>
<linearGradient id="paint82_linear_100_572" x1="334.236" y1="770.372" x2="334.289" y2="769.735" gradientUnits="userSpaceOnUse">
<stop stop-color="#377090"/>
<stop offset="1" stop-color="#6CB6E0"/>
</linearGradient>
<linearGradient id="paint83_linear_100_572" x1="334.236" y1="773.178" x2="334.289" y2="772.542" gradientUnits="userSpaceOnUse">
<stop stop-color="#377090"/>
<stop offset="1" stop-color="#6CB6E0"/>
</linearGradient>
<linearGradient id="paint84_linear_100_572" x1="334.236" y1="775.985" x2="334.289" y2="775.348" gradientUnits="userSpaceOnUse">
<stop stop-color="#377090"/>
<stop offset="1" stop-color="#6CB6E0"/>
</linearGradient>
<linearGradient id="paint85_linear_100_572" x1="334.236" y1="799.565" x2="334.289" y2="798.928" gradientUnits="userSpaceOnUse">
<stop stop-color="#377090"/>
<stop offset="1" stop-color="#6CB6E0"/>
</linearGradient>
<linearGradient id="paint86_linear_100_572" x1="334.236" y1="802.372" x2="334.289" y2="801.735" gradientUnits="userSpaceOnUse">
<stop stop-color="#377090"/>
<stop offset="1" stop-color="#6CB6E0"/>
</linearGradient>
<linearGradient id="paint87_linear_100_572" x1="334.236" y1="805.178" x2="334.289" y2="804.542" gradientUnits="userSpaceOnUse">
<stop stop-color="#377090"/>
<stop offset="1" stop-color="#6CB6E0"/>
</linearGradient>
<linearGradient id="paint88_linear_100_572" x1="334.236" y1="807.987" x2="334.289" y2="807.35" gradientUnits="userSpaceOnUse">
<stop stop-color="#377090"/>
<stop offset="1" stop-color="#6CB6E0"/>
</linearGradient>
<linearGradient id="paint89_linear_100_572" x1="334.236" y1="810.794" x2="334.289" y2="810.157" gradientUnits="userSpaceOnUse">
<stop stop-color="#377090"/>
<stop offset="1" stop-color="#6CB6E0"/>
</linearGradient>
<linearGradient id="paint90_linear_100_572" x1="334.236" y1="813.6" x2="334.289" y2="812.964" gradientUnits="userSpaceOnUse">
<stop stop-color="#377090"/>
<stop offset="1" stop-color="#6CB6E0"/>
</linearGradient>
<linearGradient id="paint91_linear_100_572" x1="334.236" y1="818.372" x2="334.289" y2="817.735" gradientUnits="userSpaceOnUse">
<stop stop-color="#377090"/>
<stop offset="1" stop-color="#6CB6E0"/>
</linearGradient>
<linearGradient id="paint92_linear_100_572" x1="334.236" y1="821.178" x2="334.289" y2="820.542" gradientUnits="userSpaceOnUse">
<stop stop-color="#377090"/>
<stop offset="1" stop-color="#6CB6E0"/>
</linearGradient>
<linearGradient id="paint93_linear_100_572" x1="334.236" y1="823.985" x2="334.289" y2="823.348" gradientUnits="userSpaceOnUse">
<stop stop-color="#377090"/>
<stop offset="1" stop-color="#6CB6E0"/>
</linearGradient>
<linearGradient id="paint94_linear_100_572" x1="334.236" y1="826.794" x2="334.289" y2="826.157" gradientUnits="userSpaceOnUse">
<stop stop-color="#377090"/>
<stop offset="1" stop-color="#6CB6E0"/>
</linearGradient>
<linearGradient id="paint95_linear_100_572" x1="334.236" y1="829.598" x2="334.289" y2="828.962" gradientUnits="userSpaceOnUse">
<stop stop-color="#377090"/>
<stop offset="1" stop-color="#6CB6E0"/>
</linearGradient>
<linearGradient id="paint96_linear_100_572" x1="334.236" y1="832.405" x2="334.289" y2="831.768" gradientUnits="userSpaceOnUse">
<stop stop-color="#377090"/>
<stop offset="1" stop-color="#6CB6E0"/>
</linearGradient>
<linearGradient id="paint97_linear_100_572" x1="334.236" y1="837.178" x2="334.289" y2="836.542" gradientUnits="userSpaceOnUse">
<stop stop-color="#377090"/>
<stop offset="1" stop-color="#6CB6E0"/>
</linearGradient>
<linearGradient id="paint98_linear_100_572" x1="334.236" y1="839.987" x2="334.289" y2="839.35" gradientUnits="userSpaceOnUse">
<stop stop-color="#377090"/>
<stop offset="1" stop-color="#6CB6E0"/>
</linearGradient>
<linearGradient id="paint99_linear_100_572" x1="334.236" y1="842.792" x2="334.289" y2="842.155" gradientUnits="userSpaceOnUse">
<stop stop-color="#377090"/>
<stop offset="1" stop-color="#6CB6E0"/>
</linearGradient>
<linearGradient id="paint100_linear_100_572" x1="334.236" y1="845.6" x2="334.289" y2="844.964" gradientUnits="userSpaceOnUse">
<stop stop-color="#377090"/>
<stop offset="1" stop-color="#6CB6E0"/>
</linearGradient>
<linearGradient id="paint101_linear_100_572" x1="334.236" y1="848.407" x2="334.289" y2="847.77" gradientUnits="userSpaceOnUse">
<stop stop-color="#377090"/>
<stop offset="1" stop-color="#6CB6E0"/>
</linearGradient>
<linearGradient id="paint102_linear_100_572" x1="334.236" y1="851.214" x2="334.289" y2="850.577" gradientUnits="userSpaceOnUse">
<stop stop-color="#377090"/>
<stop offset="1" stop-color="#6CB6E0"/>
</linearGradient>
<linearGradient id="paint103_linear_100_572" x1="334.236" y1="856.829" x2="334.289" y2="856.192" gradientUnits="userSpaceOnUse">
<stop stop-color="#377090"/>
<stop offset="1" stop-color="#6CB6E0"/>
</linearGradient>
<linearGradient id="paint104_linear_100_572" x1="334.236" y1="859.635" x2="334.289" y2="858.999" gradientUnits="userSpaceOnUse">
<stop stop-color="#377090"/>
<stop offset="1" stop-color="#6CB6E0"/>
</linearGradient>
<linearGradient id="paint105_linear_100_572" x1="334.236" y1="862.444" x2="334.289" y2="861.807" gradientUnits="userSpaceOnUse">
<stop stop-color="#377090"/>
<stop offset="1" stop-color="#6CB6E0"/>
</linearGradient>
<linearGradient id="paint106_linear_100_572" x1="334.236" y1="865.251" x2="334.289" y2="864.614" gradientUnits="userSpaceOnUse">
<stop stop-color="#377090"/>
<stop offset="1" stop-color="#6CB6E0"/>
</linearGradient>
<linearGradient id="paint107_linear_100_572" x1="334.236" y1="868.057" x2="334.289" y2="867.421" gradientUnits="userSpaceOnUse">
<stop stop-color="#377090"/>
<stop offset="1" stop-color="#6CB6E0"/>
</linearGradient>
<linearGradient id="paint108_linear_100_572" x1="334.236" y1="870.864" x2="334.289" y2="870.227" gradientUnits="userSpaceOnUse">
<stop stop-color="#377090"/>
<stop offset="1" stop-color="#6CB6E0"/>
</linearGradient>
<linearGradient id="paint109_linear_100_572" x1="239.197" y1="819.878" x2="239.197" y2="877.422" gradientUnits="userSpaceOnUse">
<stop stop-color="#C4E6FF"/>
<stop offset="1" stop-color="#90C4E9"/>
</linearGradient>
<linearGradient id="paint110_linear_100_572" x1="254.325" y1="842.118" x2="223.535" y2="842.118" gradientUnits="userSpaceOnUse">
<stop stop-color="#377090"/>
<stop offset="1" stop-color="#165D86"/>
</linearGradient>
<linearGradient id="paint111_linear_100_572" x1="254.325" y1="828.644" x2="223.535" y2="828.644" gradientUnits="userSpaceOnUse">
<stop stop-color="#377090"/>
<stop offset="1" stop-color="#165D86"/>
</linearGradient>
<linearGradient id="paint112_linear_100_572" x1="254.325" y1="830.329" x2="223.535" y2="830.329" gradientUnits="userSpaceOnUse">
<stop stop-color="#377090"/>
<stop offset="1" stop-color="#165D86"/>
</linearGradient>
<linearGradient id="paint113_linear_100_572" x1="254.325" y1="843.802" x2="223.535" y2="843.802" gradientUnits="userSpaceOnUse">
<stop stop-color="#377090"/>
<stop offset="1" stop-color="#165D86"/>
</linearGradient>
<linearGradient id="paint114_linear_100_572" x1="254.325" y1="826.96" x2="223.535" y2="826.96" gradientUnits="userSpaceOnUse">
<stop stop-color="#377090"/>
<stop offset="1" stop-color="#165D86"/>
</linearGradient>
<linearGradient id="paint115_linear_100_572" x1="254.325" y1="840.435" x2="223.535" y2="840.435" gradientUnits="userSpaceOnUse">
<stop stop-color="#377090"/>
<stop offset="1" stop-color="#165D86"/>
</linearGradient>
<linearGradient id="paint116_linear_100_572" x1="254.325" y1="832.013" x2="223.535" y2="832.013" gradientUnits="userSpaceOnUse">
<stop stop-color="#377090"/>
<stop offset="1" stop-color="#165D86"/>
</linearGradient>
<linearGradient id="paint117_linear_100_572" x1="254.325" y1="833.698" x2="223.535" y2="833.698" gradientUnits="userSpaceOnUse">
<stop stop-color="#377090"/>
<stop offset="1" stop-color="#165D86"/>
</linearGradient>
<linearGradient id="paint118_linear_100_572" x1="254.325" y1="835.382" x2="223.535" y2="835.382" gradientUnits="userSpaceOnUse">
<stop stop-color="#377090"/>
<stop offset="1" stop-color="#165D86"/>
</linearGradient>
<linearGradient id="paint119_linear_100_572" x1="254.325" y1="837.065" x2="223.535" y2="837.065" gradientUnits="userSpaceOnUse">
<stop stop-color="#377090"/>
<stop offset="1" stop-color="#165D86"/>
</linearGradient>
<linearGradient id="paint120_linear_100_572" x1="254.325" y1="838.749" x2="223.535" y2="838.749" gradientUnits="userSpaceOnUse">
<stop stop-color="#377090"/>
<stop offset="1" stop-color="#165D86"/>
</linearGradient>
<linearGradient id="paint121_linear_100_572" x1="254.325" y1="848.856" x2="223.535" y2="848.856" gradientUnits="userSpaceOnUse">
<stop stop-color="#377090"/>
<stop offset="1" stop-color="#165D86"/>
</linearGradient>
<linearGradient id="paint122_linear_100_572" x1="254.325" y1="850.54" x2="223.535" y2="850.54" gradientUnits="userSpaceOnUse">
<stop stop-color="#377090"/>
<stop offset="1" stop-color="#165D86"/>
</linearGradient>
<linearGradient id="paint123_linear_100_572" x1="254.325" y1="847.171" x2="223.535" y2="847.171" gradientUnits="userSpaceOnUse">
<stop stop-color="#377090"/>
<stop offset="1" stop-color="#165D86"/>
</linearGradient>
<linearGradient id="paint124_linear_100_572" x1="254.325" y1="845.487" x2="223.535" y2="845.487" gradientUnits="userSpaceOnUse">
<stop stop-color="#377090"/>
<stop offset="1" stop-color="#165D86"/>
</linearGradient>
<linearGradient id="paint125_linear_100_572" x1="254.325" y1="855.593" x2="223.535" y2="855.593" gradientUnits="userSpaceOnUse">
<stop stop-color="#377090"/>
<stop offset="1" stop-color="#165D86"/>
</linearGradient>
<linearGradient id="paint126_linear_100_572" x1="254.325" y1="857.276" x2="223.535" y2="857.276" gradientUnits="userSpaceOnUse">
<stop stop-color="#377090"/>
<stop offset="1" stop-color="#165D86"/>
</linearGradient>
<linearGradient id="paint127_linear_100_572" x1="254.325" y1="853.909" x2="223.535" y2="853.909" gradientUnits="userSpaceOnUse">
<stop stop-color="#377090"/>
<stop offset="1" stop-color="#165D86"/>
</linearGradient>
<linearGradient id="paint128_linear_100_572" x1="254.325" y1="852.226" x2="223.535" y2="852.226" gradientUnits="userSpaceOnUse">
<stop stop-color="#377090"/>
<stop offset="1" stop-color="#165D86"/>
</linearGradient>
<linearGradient id="paint129_linear_100_572" x1="254.325" y1="862.329" x2="223.535" y2="862.329" gradientUnits="userSpaceOnUse">
<stop stop-color="#377090"/>
<stop offset="1" stop-color="#165D86"/>
</linearGradient>
<linearGradient id="paint130_linear_100_572" x1="254.325" y1="864.013" x2="223.535" y2="864.013" gradientUnits="userSpaceOnUse">
<stop stop-color="#377090"/>
<stop offset="1" stop-color="#165D86"/>
</linearGradient>
<linearGradient id="paint131_linear_100_572" x1="254.325" y1="860.646" x2="223.535" y2="860.646" gradientUnits="userSpaceOnUse">
<stop stop-color="#377090"/>
<stop offset="1" stop-color="#165D86"/>
</linearGradient>
<linearGradient id="paint132_linear_100_572" x1="254.325" y1="858.962" x2="223.535" y2="858.962" gradientUnits="userSpaceOnUse">
<stop stop-color="#377090"/>
<stop offset="1" stop-color="#165D86"/>
</linearGradient>
<linearGradient id="paint133_linear_100_572" x1="254.325" y1="869.065" x2="223.535" y2="869.065" gradientUnits="userSpaceOnUse">
<stop stop-color="#377090"/>
<stop offset="1" stop-color="#165D86"/>
</linearGradient>
<linearGradient id="paint134_linear_100_572" x1="254.325" y1="870.751" x2="223.535" y2="870.751" gradientUnits="userSpaceOnUse">
<stop stop-color="#377090"/>
<stop offset="1" stop-color="#165D86"/>
</linearGradient>
<linearGradient id="paint135_linear_100_572" x1="254.325" y1="867.382" x2="223.535" y2="867.382" gradientUnits="userSpaceOnUse">
<stop stop-color="#377090"/>
<stop offset="1" stop-color="#165D86"/>
</linearGradient>
<linearGradient id="paint136_linear_100_572" x1="254.325" y1="865.698" x2="223.535" y2="865.698" gradientUnits="userSpaceOnUse">
<stop stop-color="#377090"/>
<stop offset="1" stop-color="#165D86"/>
</linearGradient>
<linearGradient id="paint137_linear_100_572" x1="254.325" y1="874.118" x2="223.535" y2="874.118" gradientUnits="userSpaceOnUse">
<stop stop-color="#377090"/>
<stop offset="1" stop-color="#165D86"/>
</linearGradient>
<linearGradient id="paint138_linear_100_572" x1="254.325" y1="872.435" x2="223.535" y2="872.435" gradientUnits="userSpaceOnUse">
<stop stop-color="#377090"/>
<stop offset="1" stop-color="#165D86"/>
</linearGradient>
<linearGradient id="paint139_linear_100_572" x1="1220.71" y1="777.44" x2="1217.63" y2="794.502" gradientUnits="userSpaceOnUse">
<stop stop-color="#C5E7FF"/>
<stop offset="1" stop-color="#5BA6D0"/>
</linearGradient>
<linearGradient id="paint140_linear_100_572" x1="1196.31" y1="796.557" x2="1192.94" y2="798.893" gradientUnits="userSpaceOnUse">
<stop stop-color="#3C617B"/>
<stop offset="1" stop-color="#3B799C"/>
</linearGradient>
<linearGradient id="paint141_linear_100_572" x1="1240.72" y1="796.557" x2="1237.34" y2="798.893" gradientUnits="userSpaceOnUse">
<stop stop-color="#3C617B"/>
<stop offset="1" stop-color="#3B799C"/>
</linearGradient>
<linearGradient id="paint142_linear_100_572" x1="1251.82" y1="796.557" x2="1248.44" y2="798.893" gradientUnits="userSpaceOnUse">
<stop stop-color="#3C617B"/>
<stop offset="1" stop-color="#3B799C"/>
</linearGradient>
<linearGradient id="paint143_linear_100_572" x1="1262.92" y1="796.557" x2="1259.54" y2="798.893" gradientUnits="userSpaceOnUse">
<stop stop-color="#3C617B"/>
<stop offset="1" stop-color="#3B799C"/>
</linearGradient>
<linearGradient id="paint144_linear_100_572" x1="1274.02" y1="796.557" x2="1270.64" y2="798.893" gradientUnits="userSpaceOnUse">
<stop stop-color="#3C617B"/>
<stop offset="1" stop-color="#3B799C"/>
</linearGradient>
<linearGradient id="paint145_linear_100_572" x1="1207.41" y1="796.557" x2="1204.04" y2="798.893" gradientUnits="userSpaceOnUse">
<stop stop-color="#3C617B"/>
<stop offset="1" stop-color="#3B799C"/>
</linearGradient>
<linearGradient id="paint146_linear_100_572" x1="1218.51" y1="796.557" x2="1215.14" y2="798.893" gradientUnits="userSpaceOnUse">
<stop stop-color="#3C617B"/>
<stop offset="1" stop-color="#3B799C"/>
</linearGradient>
<linearGradient id="paint147_linear_100_572" x1="1229.62" y1="796.557" x2="1226.24" y2="798.893" gradientUnits="userSpaceOnUse">
<stop stop-color="#3C617B"/>
<stop offset="1" stop-color="#3B799C"/>
</linearGradient>
<linearGradient id="paint148_linear_100_572" x1="1185.21" y1="796.557" x2="1181.83" y2="798.893" gradientUnits="userSpaceOnUse">
<stop stop-color="#3C617B"/>
<stop offset="1" stop-color="#3B799C"/>
</linearGradient>
<linearGradient id="paint149_linear_100_572" x1="1174.11" y1="796.557" x2="1170.73" y2="798.893" gradientUnits="userSpaceOnUse">
<stop stop-color="#3C617B"/>
<stop offset="1" stop-color="#3B799C"/>
</linearGradient>
<radialGradient id="paint150_radial_100_572" cx="0" cy="0" r="1" gradientUnits="userSpaceOnUse" gradientTransform="translate(1446.09 561.007) rotate(90) scale(119.572 355.019)">
<stop stop-color="white"/>
<stop offset="0.926722" stop-color="white" stop-opacity="0"/>
</radialGradient>
</defs>
</svg>
