<svg width="682" height="135" viewBox="0 0 682 135" fill="none" xmlns="http://www.w3.org/2000/svg">
<path d="M3.572 56.024C3.572 43.224 8.13733 32.3013 17.268 23.256C26.3987 14.2107 37.364 9.688 50.164 9.688C58.4413 9.688 66.2067 11.8213 73.46 16.088C80.7133 20.3547 86.388 26.072 90.484 33.24C90.6547 33.4107 91.2947 34.6053 92.404 36.824C92.66 37.2507 92.916 37.848 93.172 38.616C93.172 38.7013 93.2147 38.8293 93.3 39V39.128H71.924C71.8387 39.0427 71.7107 38.9147 71.54 38.744C65.396 31.9173 58.1853 28.504 49.908 28.504C42.3987 28.504 35.9133 31.2347 30.452 36.696C25.076 42.1573 22.388 48.6853 22.388 56.28C22.388 63.704 25.1187 70.1893 30.58 75.736C36.0413 81.1973 42.484 83.928 49.908 83.928C57.7587 83.928 64.884 80.6427 71.284 74.072C71.4547 73.816 71.668 73.56 71.924 73.304H93.3V73.56C93.1293 73.9867 92.8733 74.584 92.532 75.352C88.3507 83.8853 82.548 90.584 75.124 95.448C67.7 100.312 59.2947 102.744 49.908 102.744C37.108 102.744 26.1853 98.1787 17.14 89.048C8.09467 79.832 3.572 68.824 3.572 56.024ZM102.686 34.008H121.374V103.128H102.686V34.008ZM101.662 27.096C101.662 25.4747 102.473 24.024 104.094 22.744C105.289 21.8053 106.398 20.952 107.422 20.184C107.507 20.184 107.55 20.1413 107.55 20.056C107.55 19.9707 107.507 19.8853 107.422 19.8C107.337 19.6293 107.209 19.416 107.038 19.16C106.611 19.2453 105.502 19.672 103.71 20.44C102.43 21.0373 101.278 21.336 100.254 21.336C97.438 21.336 96.03 19.8853 96.03 16.984C96.03 14.168 97.4807 12.76 100.382 12.76C101.577 12.76 103.625 13.4427 106.526 14.808L106.91 14.936H107.038C107.294 14.68 107.422 14.4667 107.422 14.296V14.168C107.422 13.9973 107.337 13.8693 107.166 13.784C105.971 12.8453 104.819 11.9067 103.71 10.968C102.345 9.688 101.662 8.36533 101.662 6.99999C101.662 5.80533 102.089 4.82399 102.942 4.05599C103.881 3.20266 104.947 2.77599 106.142 2.77599C108.958 2.77599 110.622 5.80533 111.134 11.864H112.286L112.414 11.48C112.414 11.0533 112.585 9.64533 112.926 7.256C113.353 4.78133 114.505 3.288 116.382 2.77599H117.406C118.601 2.77599 119.625 3.20266 120.478 4.05599C121.331 4.82399 121.758 5.80533 121.758 6.99999C121.758 8.70666 119.881 11.0107 116.126 13.912C116.126 13.912 116.083 13.9547 115.998 14.04V14.168C116.083 14.3387 116.211 14.552 116.382 14.808L116.51 14.936H116.638C120.137 13.4853 122.313 12.76 123.166 12.76C126.067 12.76 127.518 14.168 127.518 16.984C127.518 19.8853 126.067 21.336 123.166 21.336C122.142 21.336 120.051 20.6533 116.894 19.288C116.809 19.288 116.681 19.2453 116.51 19.16L116.382 19.288L115.998 20.056L116.126 20.184C119.881 22.9147 121.758 25.2187 121.758 27.096C121.758 28.2907 121.331 29.3147 120.478 30.168C119.625 31.0213 118.601 31.448 117.406 31.448C114.846 31.448 113.353 29.8267 112.926 26.584C112.585 23.9387 112.414 22.5307 112.414 22.36L112.286 22.232H111.262L111.134 22.36C111.134 22.5307 110.963 23.9387 110.622 26.584C110.195 29.8267 108.702 31.448 106.142 31.448C104.947 31.448 103.881 31.0213 102.942 30.168C102.089 29.3147 101.662 28.2907 101.662 27.096ZM132.075 9.94399H150.891V33.88H160.107V52.824H150.891V81.24C150.891 81.8373 151.19 82.4773 151.787 83.16C152.384 83.8427 152.982 84.184 153.579 84.184H161.259V103H152.299C151.104 103 149.654 102.744 147.947 102.232C140.182 99.928 135.147 94.8507 132.843 87C132.331 85.208 132.075 83.5867 132.075 82.136V9.94399ZM195.009 34.392V53.208H187.841C186.732 53.208 185.921 53.6347 185.409 54.488C184.982 55.256 184.769 55.6827 184.769 55.768V103H165.825V56.28C165.825 51.3307 167.361 46.8933 170.433 42.968C173.59 39.0427 177.601 36.3973 182.465 35.032C184.001 34.6053 185.452 34.392 186.817 34.392H195.009ZM199.575 34.392H218.391V71.896C218.562 72.92 218.732 73.7733 218.903 74.456C219.671 77.1867 221.25 79.4053 223.639 81.112C226.114 82.8187 228.759 83.672 231.575 83.672C235.074 83.672 238.146 82.392 240.791 79.832C243.522 77.272 244.887 74.2427 244.887 70.744V34.392H263.703V71.64C263.703 74.2 263.319 76.7173 262.551 79.192C260.418 86.1893 256.535 91.864 250.903 96.216C245.271 100.483 238.828 102.616 231.575 102.616C225.004 102.616 218.903 100.653 213.271 96.728C207.639 92.8027 203.714 87.7253 201.495 81.496C200.215 77.912 199.575 75.096 199.575 73.048V34.392ZM268.325 84.568H276.389C277.157 84.568 278.053 84.0987 279.077 83.16C280.186 82.136 280.826 81.24 280.997 80.472L285.861 53.464C286.8 48.344 289.573 43.864 294.181 40.024C298.874 36.184 303.781 34.264 308.901 34.264H316.965V53.08H309.797C308.773 53.08 307.621 53.5493 306.341 54.488C305.146 55.3413 304.464 56.28 304.293 57.304L299.429 84.568C298.832 88.152 297.082 91.48 294.181 94.552C289.146 100.013 283.728 102.957 277.925 103.384C276.901 103.469 273.701 103.512 268.325 103.512V84.568ZM372.197 9.17599H391.013V46.808H426.469V9.17599H445.285V103H426.469V65.752H391.013V103H372.197V9.17599ZM499.358 99.288C494.238 101.592 489.075 102.744 483.87 102.744C474.483 102.744 466.462 99.416 459.806 92.76C453.15 86.0187 449.822 77.9547 449.822 68.568C449.822 59.096 453.15 51.0747 459.806 44.504C466.547 37.848 474.654 34.52 484.126 34.52C491.209 34.52 497.694 36.6107 503.582 40.792C509.555 44.888 513.737 50.264 516.126 56.92C517.491 60.76 518.174 63.96 518.174 66.52V103H499.358V99.288ZM468.638 68.568C468.638 72.7493 470.131 76.376 473.118 79.448C476.19 82.4347 479.817 83.928 483.998 83.928C488.179 83.928 491.763 82.4347 494.75 79.448C497.822 76.376 499.358 72.7493 499.358 68.568C499.358 64.472 497.865 60.9307 494.878 57.944C491.891 54.872 488.307 53.336 484.126 53.336C479.945 53.336 476.318 54.8293 473.246 57.816C470.174 60.7173 468.638 64.3013 468.638 68.568ZM522.697 68.568C522.697 60.2907 525.385 52.9947 530.761 46.68C536.137 40.28 542.878 36.3547 550.985 34.904C553.033 34.5627 554.996 34.392 556.873 34.392C563.102 34.4773 568.905 36.0987 574.281 39.256C579.657 42.4133 583.838 46.68 586.825 52.056C586.996 52.2267 587.508 53.1653 588.361 54.872C588.361 54.4453 588.617 55.128 589.129 56.92C589.385 57.5173 589.598 58.2 589.769 58.968V59.352H569.289C565.449 55.3413 561.353 53.336 557.001 53.336C552.649 53.336 548.98 54.8293 545.993 57.816C543.092 60.8027 541.641 64.4293 541.641 68.696C541.641 72.8773 543.134 76.4613 546.121 79.448C549.108 82.4347 552.692 83.928 556.873 83.928C561.566 83.928 565.705 81.9227 569.289 77.912H589.769V78.296C589.513 79.064 589.172 80.088 588.745 81.368C588.148 83.0747 586.697 85.592 584.393 88.92C583.625 90.0293 581.961 91.864 579.401 94.424C579.401 94.424 579.273 94.552 579.017 94.808C578.761 94.9787 578.59 95.1067 578.505 95.192C571.849 100.227 564.638 102.744 556.873 102.744C547.486 102.744 539.422 99.416 532.681 92.76C526.025 86.104 522.697 78.04 522.697 68.568ZM595.349 10.072H614.165V58.584H625.173C625.77 58.584 626.496 58.328 627.349 57.816C630.592 56.3653 632.725 53.6347 633.749 49.624C634.09 47.576 634.261 46.552 634.261 46.552V34.392H653.077V47.576C653.077 49.7093 652.65 52.2267 651.797 55.128C650.432 59.736 648.042 64.0453 644.629 68.056C648.64 72.664 651.285 78.1253 652.565 84.44C652.565 84.5253 652.608 84.7813 652.693 85.208C652.778 85.6347 652.821 85.8907 652.821 85.976C652.906 86.488 652.992 87.4267 653.077 88.792V102.872H634.261V89.56C634.261 89.56 634.09 88.536 633.749 86.488C632.554 81.7947 629.909 78.8933 625.813 77.784C625.728 77.784 625.642 77.7413 625.557 77.656C625.386 77.656 625.258 77.656 625.173 77.656H614.165V103.128H595.349V10.072Z" fill="#FFF8EA"/>
</svg>
