<svg width="153" height="194" viewBox="0 0 153 194" fill="none" xmlns="http://www.w3.org/2000/svg">
<path d="M89.1043 4L121.104 143C128.438 149.167 144.604 162.7 150.604 167.5C153.804 173.9 148.271 176.833 145.104 177.5L51.1042 192C47.9376 192.5 40.2042 193.1 34.6042 191.5C29.0042 189.9 10.6043 166.167 2.1043 154.5C1.27097 152.667 0.104303 148.4 2.1043 146C4.1043 143.6 19.9376 141.333 27.6043 140.5L59.1043 4C60.1043 3 64.5043 1 74.1043 1C83.7043 1 88.1043 3 89.1043 4Z" stroke="white"/>
<path d="M74.3529 109.394C49.2921 109.394 39.3805 102.795 37.5573 99.4949L29.1042 135.626C30.4302 139.751 41.3363 148 74.3529 148C107.369 148 117.944 139.091 119.104 134.636C116.452 124.407 111.002 101.46 110.604 97.5C110.604 99.4798 105.679 109.394 74.3529 109.394Z" fill="white" stroke="white"/>
<path d="M74.6042 31C89.0042 31 93.6042 27.5 94.1042 26C96.9376 37.6667 102.504 61.3 102.104 62.5C101.604 64 99.6042 70 74.6042 70C54.6042 70 46.9376 65.3333 45.6042 63L54.1042 26.5C54.9376 28 60.2042 31 74.6042 31Z" fill="white" stroke="white"/>
</svg>
