<svg width="239" height="214" viewBox="0 0 239 214" fill="none" xmlns="http://www.w3.org/2000/svg">
<path d="M35.8274 70.3714C27.6842 76.6795 11.2161 76.0583 4 74.9591L48.7305 171.158C59.0529 174.484 70.6178 169.772 75.11 167.001C89.4467 164.019 118.072 138.327 130.593 125.854C144.586 110.256 169.111 107.599 179.624 108.22L134.32 15.7486C114.708 11.2756 92.6007 26.2144 83.9987 34.2429C55.8988 62.3428 40.1762 70.0369 35.8274 70.3714Z" fill="white" stroke="#27262B" stroke-width="4"/>
<path d="M134.925 10.1855L229.055 204.106" stroke="#27262B" stroke-width="19" stroke-linecap="round"/>
<path d="M25.0748 75.1035L4.86011 75.5336L14.0356 95.1749L35.5406 93.3111L25.0748 75.1035Z" fill="#27262B"/>
<path d="M43.9994 114.242H22.7811L31.5265 133.023L53.605 130.873L43.9994 114.242Z" fill="#27262B"/>
<path d="M62.3504 150.514L39.5551 152.091L49.0173 170.585C55.5442 174.233 69.9019 170.389 69.9488 168.721C69.9958 167.053 62.3504 150.514 62.3504 150.514Z" fill="#27262B"/>
<path d="M44.7163 112.235L35.8275 93.4543L54.3218 85.4258L63.4973 103.49L44.7163 112.235Z" fill="#27262B"/>
<path d="M62.4937 150.228L53.605 131.447L72.0993 123.418L81.2748 141.482L62.4937 150.228Z" fill="#27262B"/>
<path d="M61.9202 54.0293L45.8632 66.2155L54.4652 84.1363L71.2391 70.9466L61.9202 54.0293Z" fill="#27262B"/>
<path d="M79.6977 92.1641L63.6406 104.35L72.2426 122.271L89.0166 109.081L79.6977 92.1641Z" fill="#27262B"/>
<path d="M97.1884 128.865L81.1313 141.051L89.8767 159.402C97.2227 154.875 107.081 146.499 107.081 146.499L97.1884 128.865Z" fill="#27262B"/>
<path d="M87.1527 57.6133L71.5258 71.2331L80.8446 90.1576L96.9017 75.2474L87.1527 57.6133Z" fill="#27262B"/>
<path d="M104.5 95.8906L88.8732 109.51L98.192 128.435L114.249 113.525L104.5 95.8906Z" fill="#27262B"/>
<path d="M94.0344 26.0723L79.1243 39.262L87.5829 56.466L104.07 42.8462L94.0344 26.0723Z" fill="#27262B"/>
<path d="M111.812 63.2031L96.9017 76.3929L105.36 93.5969L121.848 79.977L111.812 63.2031Z" fill="#27262B"/>
<path d="M129.303 101.053L114.392 114.242L123.281 132.163L139.338 117.827L129.303 101.053Z" fill="#27262B"/>
<path d="M122.134 34.8164L104.07 43.7052L113.389 62.4862L131.883 53.1674L122.134 34.8164Z" fill="#27262B"/>
<path d="M139.912 72.3789L121.848 81.2677L131.166 100.049L149.661 90.7299L139.912 72.3789Z" fill="#27262B"/>
<path d="M135.037 14.7464C125.747 13.4848 117.69 15.2721 114.823 16.3235L122.851 35.1045L143.783 32.0938L135.037 14.7464Z" fill="#27262B"/>
<path d="M152.385 51.8812C143.095 50.6196 135.037 52.4069 132.17 53.4582L140.199 72.2393L161.13 69.2286L152.385 51.8812Z" fill="#27262B"/>
<path d="M170.736 90.0179C161.446 88.7563 153.388 90.5436 150.521 91.595L158.55 110.376L179.481 107.365L170.736 90.0179Z" fill="#27262B"/>
</svg>
