<svg width="531" height="842" viewBox="0 0 531 842" fill="none" xmlns="http://www.w3.org/2000/svg">
<path d="M350.766 409.448L585.247 558.575L741.69 615.192L534.374 505.148L361.298 409.448L350.766 409.448Z" fill="#00F3D6"/>
<path d="M411.149 432.702L534.374 498.589L534.374 463.41L486.98 445.224L459.948 452.081L422.032 432.702L411.149 432.702Z" fill="#00F3D6"/>
<path d="M534.374 404.678L534.374 409.448L494.001 404.678L486.98 400.206L534.374 404.678Z" fill="#00F3D6"/>
<path d="M367.968 384.703L534.374 400.206L534.374 380.529L364.457 380.529L367.968 384.703Z" fill="#00F3D6"/>
<path d="M358.489 375.759L534.374 375.759L534.374 370.393L350.766 373.076L358.489 375.759Z" fill="#00F3D6"/>
<path d="M349.01 368.902L534.374 356.082L534.374 316.133L587.031 263.885L341.638 364.132L349.01 368.902Z" fill="#00F3D6"/>
<path d="M339.531 360.554L486.98 290.738L555.927 203.104L336.372 358.766L339.531 360.554Z" fill="#00F3D6"/>
<path d="M390.787 413.92L411.149 421.373L401.319 424.653L384.117 413.92L390.787 413.92Z" fill="#00F3D6"/>
<path d="M388.681 399.908L384.117 391.262L361.298 387.684L361.298 391.262L388.681 399.908Z" fill="#00F3D6"/>
<path d="M63.5781 268.536C82.4883 282.393 112.728 322.675 82.4068 372.95C46.6079 323.457 38.4733 299.184 38.8808 293.233L48.0506 284.064L57.2204 274.894L63.5781 268.536Z" fill="#A7A7A7"/>
<path d="M248.439 453.399C234.583 434.489 194.301 404.249 144.026 434.571C193.518 470.37 217.792 478.504 223.742 478.097L232.912 468.927L242.082 459.757L248.439 453.399Z" fill="#A7A7A7"/>
<g filter="url(#filter0_i_442_2264)">
<path d="M21.5183 300.814C35.2933 328.935 69.7392 392.072 97.3219 419.655C124.905 447.238 188.042 481.683 216.163 495.459L235.725 475.896C212.576 470.68 155.324 449.292 111.505 405.472C67.6852 361.653 46.2971 304.401 41.0805 281.252L21.5183 300.814Z" fill="#FF4D00"/>
</g>
<rect x="51.3511" y="254.354" width="21.4405" height="19.3656" transform="rotate(45 51.3511 254.354)" fill="#153449"/>
<rect x="38.6343" y="267.069" width="21.4405" height="11.7577" transform="rotate(45 38.6343 267.069)" fill="#153449"/>
<rect x="31.2993" y="274.405" width="21.4405" height="19.3656" transform="rotate(45 31.2993 274.405)" fill="#FF4D00"/>
<rect x="18.5835" y="287.12" width="21.4405" height="11.7577" transform="rotate(45 18.5835 287.12)" fill="#FF4D00"/>
<rect x="49.8843" y="245.062" width="11.0661" height="67.0881" rx="5" transform="rotate(45 49.8843 245.062)" fill="#A7A7A7"/>
<rect width="21.4405" height="19.3656" transform="matrix(-0.707107 -0.707107 -0.707107 0.707107 262.624 465.626)" fill="#153449"/>
<rect width="21.4405" height="11.7577" transform="matrix(-0.707107 -0.707107 -0.707107 0.707107 249.908 478.341)" fill="#153449"/>
<rect width="21.4405" height="19.3656" transform="matrix(-0.707107 -0.707107 -0.707107 0.707107 242.572 485.677)" fill="#FF4D00"/>
<rect width="21.4405" height="11.7577" transform="matrix(-0.707107 -0.707107 -0.707107 0.707107 229.857 498.393)" fill="#FF4D00"/>
<rect width="11.0661" height="67.0881" rx="5" transform="matrix(-0.707107 -0.707107 -0.707107 0.707107 271.915 467.093)" fill="#A7A7A7"/>
<rect x="111.505" y="374.172" width="44.2643" height="26.9736" transform="rotate(45 111.505 374.172)" fill="black"/>
<rect x="190.159" y="243.856" width="45.5429" height="8.99119" rx="4.49559" transform="rotate(33.0513 190.159 243.856)" fill="#A7A7A7"/>
<rect x="128.857" y="243.463" width="76.6323" height="8.99119" rx="4.49559" transform="rotate(50.9252 128.857 243.463)" fill="#A7A7A7"/>
<rect x="143.57" y="240.911" width="89.9119" height="8.99119" rx="4.49559" transform="rotate(3.2456 143.57 240.911)" fill="#A7A7A7"/>
<rect x="171.169" y="283.208" width="29.0484" height="22.1322" rx="6" transform="rotate(45 171.169 283.208)" fill="#153449"/>
<rect x="134.785" y="237.95" width="89.9119" height="8.99118" rx="4.49559" transform="rotate(46.3569 134.785 237.95)" fill="#A7A7A7"/>
<rect x="135.79" y="232.513" width="89.9118" height="8.99118" rx="4.49559" transform="rotate(33.3089 135.79 232.513)" fill="#A7A7A7"/>
<rect width="45.5429" height="8.99119" rx="4.49559" transform="matrix(-0.545389 -0.838183 -0.838183 0.545389 272.874 326.57)" fill="#A7A7A7"/>
<rect width="76.6323" height="8.99119" rx="4.49559" transform="matrix(-0.776323 -0.630335 -0.630335 0.776323 273.267 387.872)" fill="#A7A7A7"/>
<rect width="89.9119" height="8.99119" rx="4.49559" transform="matrix(-0.056616 -0.998396 -0.998396 0.056616 275.819 373.16)" fill="#A7A7A7"/>
<rect width="29.0485" height="22.1322" rx="6" transform="matrix(-0.707107 -0.707107 -0.707107 0.707107 233.522 345.559)" fill="#153449"/>
<rect width="89.9119" height="8.99119" rx="4.49559" transform="matrix(-0.723652 -0.690165 -0.690165 0.723652 278.78 381.945)" fill="#A7A7A7"/>
<rect width="89.9119" height="8.99119" rx="4.49559" transform="matrix(-0.549153 -0.835722 -0.835722 0.549153 284.216 380.938)" fill="#A7A7A7"/>
<rect x="202.836" y="284.797" width="45.5429" height="8.99119" rx="4.49559" transform="rotate(8.41295 202.836 284.797)" fill="#A7A7A7"/>
<g filter="url(#filter1_i_442_2264)">
<path d="M202.468 149.207L285.119 231.857L367.769 314.508L349.919 332.358L329.867 312.307C313.729 296.168 282.722 272.987 233.034 283.942C243.989 234.253 220.808 203.247 204.669 187.108L184.618 167.057L202.468 149.207Z" fill="#153449"/>
</g>
<rect x="217.14" y="130.622" width="239.304" height="33.1982" transform="rotate(45 217.14 130.622)" fill="#A7A7A7"/>
<rect x="461.18" y="-51.7956" width="150.084" height="42.881" transform="rotate(45 461.18 -51.7956)" fill="#FF4D00"/>
<rect x="444.063" y="-34.6785" width="150.084" height="6.22467" transform="rotate(45 444.063 -34.6785)" fill="#A7A7A7"/>
<rect x="461.18" y="-51.7956" width="150.084" height="6.22467" transform="rotate(45 461.18 -51.7956)" fill="#A7A7A7"/>
<rect x="457.268" y="23.5193" width="51.8722" height="31.815" transform="rotate(45 457.268 23.5193)" fill="#3E3E3E"/>
<path fill-rule="evenodd" clip-rule="evenodd" d="M423.803 -7.0121L423.594 12.7599L405.953 30.4007L401.062 25.5101L416.677 9.89509L416.677 -14.1382L423.803 -7.0121Z" fill="#3E3E3E"/>
<path fill-rule="evenodd" clip-rule="evenodd" d="M524.059 93.2445L504.287 93.4543L486.646 111.095L491.537 115.986L507.152 100.371L531.185 100.371L524.059 93.2445Z" fill="#3E3E3E"/>
<rect x="514.488" y="-3.37865" width="8.99119" height="68.4713" rx="3" transform="rotate(45 514.488 -3.37865)" fill="#A7A7A7"/>
<rect x="568.284" y="50.4175" width="8.99119" height="63.6299" rx="3" transform="rotate(45 568.284 50.4175)" fill="#A7A7A7"/>
<g filter="url(#filter2_i_442_2264)">
<path d="M413.411 15.8526L457.181 59.6231L500.952 103.394L384.801 275.786C379.503 284.507 368.173 299.261 352.279 297.549C335.177 295.707 298.482 286.79 264.249 252.556C230.015 218.322 221.097 181.627 219.255 164.526C217.544 148.631 232.297 137.301 241.018 132.003L413.411 15.8526Z" fill="black"/>
</g>
<path d="M277.539 106.903L357.255 55.5523C361.755 71.7889 346.904 81.3907 338.916 84.162L277.539 106.903Z" fill="#153449"/>
<path d="M410.463 239.826L461.814 160.11C445.577 155.611 435.976 170.462 433.204 178.45L410.463 239.826Z" fill="#153449"/>
<g filter="url(#filter3_i_442_2264)">
<path d="M424.831 15.095C425.982 13.8244 427.962 13.7757 429.175 14.9882L439.497 25.3104C440.669 26.482 440.669 28.3815 439.497 29.553L354.243 114.808C353.071 115.979 351.171 115.979 350 114.808L343.871 108.678C342.74 107.547 342.695 105.728 343.769 104.542L424.831 15.095Z" fill="#153449"/>
</g>
<g filter="url(#filter4_i_442_2264)">
<path d="M501.394 91.6578C502.665 90.5063 502.713 88.526 501.501 87.3135L491.179 76.9914C490.007 75.8198 488.108 75.8198 486.936 76.9914L401.681 162.246C400.51 163.418 400.51 165.317 401.681 166.489L407.811 172.618C408.942 173.749 410.761 173.794 411.947 172.72L501.394 91.6578Z" fill="#153449"/>
</g>
<rect x="386.465" y="-6.20116" width="37.1558" height="8.99119" rx="4.49559" transform="rotate(61.33 386.465 -6.20116)" fill="#A7A7A7"/>
<rect x="383" y="-1.84178" width="37.1558" height="8.99119" rx="4.49559" transform="rotate(61.33 383 -1.84178)" fill="#A7A7A7"/>
<rect x="353.167" y="2.55983" width="65.1326" height="8.99119" rx="4.49559" transform="rotate(61.33 353.167 2.55983)" fill="#A7A7A7"/>
<rect x="353.705" y="0.162613" width="65.1326" height="8.99119" rx="4.49559" transform="rotate(54.9265 353.705 0.162613)" fill="#A7A7A7"/>
<rect x="386.479" y="-9.85155" width="89.9119" height="8.99119" rx="4.49559" transform="rotate(49.6074 386.479 -9.85155)" fill="#A7A7A7"/>
<rect x="387.433" y="-9.14598" width="108.867" height="8.99119" rx="4.49559" transform="rotate(93.3872 387.433 -9.14598)" fill="#A7A7A7"/>
<rect width="37.1558" height="8.99119" rx="4.49559" transform="matrix(-0.877397 -0.479764 -0.479764 0.877397 523.459 130.794)" fill="#A7A7A7"/>
<rect width="37.1558" height="8.99119" rx="4.49559" transform="matrix(-0.877397 -0.479764 -0.479764 0.877397 519.101 134.259)" fill="#A7A7A7"/>
<rect width="65.1326" height="8.99119" rx="4.49559" transform="matrix(-0.877397 -0.479764 -0.479764 0.877397 514.7 164.092)" fill="#A7A7A7"/>
<rect width="65.1326" height="8.99119" rx="4.49559" transform="matrix(-0.818416 -0.574626 -0.574626 0.818416 517.096 163.555)" fill="#A7A7A7"/>
<rect width="89.9119" height="8.99119" rx="4.49559" transform="matrix(-0.761621 -0.648022 -0.648022 0.761621 527.111 130.78)" fill="#A7A7A7"/>
<rect width="108.867" height="8.99119" rx="4.49559" transform="matrix(-0.998253 0.0590829 0.0590829 0.998253 526.405 129.826)" fill="#A7A7A7"/>
<path d="M430.864 52.869L463.142 53.8471L464.12 86.1248C464.201 87.9995 463.777 92.8248 461.43 97.1285C458.496 102.508 437.222 142.366 430.619 156.304C424.017 170.242 413.013 244.823 389.05 269.765C365.086 294.707 342.1 262.919 336.721 257.539C331.341 252.159 326.94 243.356 315.202 250.692C305.812 256.561 273.795 282.481 258.961 294.707C257.168 296.663 252.163 300.918 246.49 302.288C240.817 303.657 235.16 309.216 233.041 311.824L149.901 394.964C148.353 396.512 145.011 400.246 144.033 402.789C142.81 405.967 143.299 406.946 142.076 408.168L127.649 422.595C127.242 422.84 126.133 423.035 125.302 422.204C124.47 421.373 124.47 420.395 124.959 419.906L137.43 407.435C138.245 406.62 139.387 404.5 137.43 402.544C134.985 400.099 133.029 401.077 131.562 402.544L125.204 408.902C123.981 410.124 121.781 411.347 119.335 408.902L113.711 403.278L108.087 397.654C105.642 395.208 106.864 393.007 108.087 391.785L114.445 385.427C115.912 383.96 116.89 382.004 114.445 379.558C112.489 377.602 110.369 378.743 109.554 379.558L97.0833 392.029C96.5942 392.518 95.6161 392.518 94.7847 391.687C93.9533 390.856 94.1489 389.747 94.3935 389.34L108.821 374.912C110.043 373.69 111.021 374.179 114.2 372.956C116.743 371.978 120.476 368.636 122.025 367.088L205.165 283.948C207.773 281.829 213.332 276.172 214.701 270.499C216.071 264.826 220.325 259.821 222.282 258.028C234.508 243.193 260.428 211.176 266.297 201.787C273.633 190.049 264.83 185.648 259.45 180.268C254.07 174.888 222.282 151.903 247.224 127.939C272.165 103.975 346.746 92.9716 360.685 86.3693C374.623 79.7671 414.481 58.4931 419.86 55.5588C424.164 53.2113 428.989 52.7875 430.864 52.869Z" fill="#FF4D00"/>
<path d="M456.809 49.5477L471.535 42.2731C473.25 41.4262 475.061 43.2375 474.214 44.952L466.94 59.6786C466.849 59.861 466.732 60.0285 466.591 60.1755L401.98 127.702C401.834 127.855 401.664 127.983 401.478 128.083L379.208 139.986C377.464 140.918 375.569 139.023 376.502 137.279L388.404 115.01C388.504 114.823 388.633 114.654 388.785 114.507L456.312 49.8958C456.459 49.7551 456.626 49.6378 456.809 49.5477Z" fill="#A7A7A7"/>
<rect x="351.141" y="126.71" width="55.3304" height="8.99119" rx="3" transform="rotate(45 351.141 126.71)" fill="#A7A7A7"/>
<path d="M381.859 132.485L383.174 133.801L384.49 135.117C386.209 136.836 386.721 139.423 385.786 141.667L380.452 154.468C380.151 155.192 379.71 155.849 379.156 156.403L360.519 175.041C358.176 177.384 354.377 177.384 352.034 175.041L346.984 169.991L341.935 164.942C339.592 162.599 339.592 158.8 341.935 156.457L360.572 137.819C361.126 137.265 361.784 136.825 362.507 136.523L375.308 131.19C377.553 130.254 380.139 130.766 381.859 132.485Z" fill="#FF4D00"/>
<path d="M363.939 153.69L363.273 153.025L362.607 152.359C361.389 151.14 359.544 150.802 357.972 151.508L349.199 155.45C346.549 156.64 345.911 160.115 347.965 162.169L351.047 165.251L354.129 168.333C356.183 170.387 359.658 169.749 360.848 167.099L364.79 158.325C365.496 156.754 365.157 154.909 363.939 153.69Z" fill="#3E3E3E"/>
<rect x="369.727" y="121.819" width="35.9647" height="8.99119" rx="3" transform="rotate(45 369.727 121.819)" fill="#A7A7A7"/>
<rect x="391.246" y="130.622" width="30.4317" height="6.9163" rx="3" transform="rotate(135 391.246 130.622)" fill="#A7A7A7"/>
<g filter="url(#filter5_i_442_2264)">
<path d="M223.255 124.509L215.43 132.334C219.668 131.356 229.955 131.209 237.193 138.447L271.671 172.926C276.643 176.757 282.675 189.896 267.025 211.806C247.463 239.193 249.908 240.171 253.332 243.594L273.383 263.646C276.806 267.069 277.784 269.514 305.172 249.952C327.081 234.302 340.221 240.334 344.052 245.306L378.53 279.785C385.768 287.023 385.621 297.309 384.643 301.548L392.468 293.723C394.343 290.381 395.745 281.35 386.355 271.96L245.018 130.622C235.628 121.233 226.597 122.635 223.255 124.509Z" fill="#FF4D00"/>
</g>
<path d="M266.506 211.836C282.155 189.926 276.124 176.787 271.152 172.956L265.038 166.842L265.283 166.598C271.722 171.57 284.063 184.497 281.911 196.43C279.221 211.346 275.553 215.993 270.907 220.639C266.261 225.285 258.925 232.131 264.794 238L281.422 254.628C287.069 260.275 293.621 253.697 298.247 249.053C298.429 248.87 298.608 248.69 298.783 248.515C303.429 243.869 308.075 240.201 322.992 237.511C334.925 235.359 347.852 247.7 352.824 254.139L352.58 254.383L343.532 245.336C339.701 240.364 326.562 234.332 304.652 249.982C277.265 269.544 276.287 267.099 272.863 263.675L252.812 243.624C249.389 240.201 246.943 239.223 266.506 211.836Z" fill="#A7A7A7"/>
<path d="M304.681 166.324L327.667 189.309L350.652 212.295L305.659 246.04L288.298 228.678L270.936 211.317L304.681 166.324Z" fill="#3E3E3E"/>
<g filter="url(#filter6_i_442_2264)">
<path d="M286.151 150.727C293.585 144.076 329.433 124.563 329.433 124.563L302.836 147.36L295.199 153.906C292.998 156.107 290.455 160.019 290.064 165.888C289.575 173.224 292.02 189.363 309.626 206.969C327.232 224.575 343.371 227.02 350.707 226.531C356.576 226.14 360.488 223.597 362.689 221.396L369.235 213.759L392.032 187.162C392.032 187.162 372.519 223.01 365.868 230.443C357.554 239.736 350.707 241.203 334.568 231.911C318.429 222.619 304.736 216.75 294.221 227.265L276.126 245.36L273.681 242.914L271.235 240.469L289.33 222.374C299.845 211.859 293.976 198.166 284.684 182.027C275.392 165.888 276.859 159.041 286.151 150.727Z" fill="#A7A7A7"/>
</g>
<rect x="313.485" y="158.499" width="62.9383" height="12.4493" transform="rotate(45 313.485 158.499)" fill="#8AB8AB"/>
<rect width="62.9383" height="6.22467" transform="matrix(0.707107 0.707107 0.707107 -0.707107 313.485 158.499)" fill="#A7A7A7"/>
<path d="M331.089 120.352L341.849 131.111L307.998 164.962C306.436 166.524 303.903 166.524 302.341 164.962L297.239 159.86C295.676 158.298 295.676 155.765 297.239 154.203L331.089 120.352Z" fill="#FF4D00"/>
<path d="M396.624 185.886L385.864 175.127L352.014 208.977C350.451 210.539 350.451 213.072 352.014 214.634L357.116 219.737C358.678 221.299 361.211 221.299 362.773 219.737L396.624 185.886Z" fill="#FF4D00"/>
<rect x="359.945" y="-49.3503" width="58.0969" height="77.4625" rx="17" transform="rotate(45 359.945 -49.3503)" fill="#FF4D00"/>
<rect x="354.077" y="-65" width="67.0881" height="91.2951" rx="17" transform="rotate(45 354.077 -65)" fill="#A7A7A7"/>
<rect x="352.121" y="-57.1753" width="62.9383" height="84.3788" rx="17" transform="rotate(45 352.121 -57.1753)" fill="#153449"/>
<rect x="329.624" y="-34.6787" width="62.9383" height="52.5639" rx="17" transform="rotate(45 329.624 -34.6787)" fill="black" fill-opacity="0.35"/>
<rect x="316.908" y="-21.9634" width="62.9383" height="34.5815" rx="17" transform="rotate(45 316.908 -21.9634)" fill="black"/>
<rect width="58.0969" height="77.4625" rx="17" transform="matrix(-0.707107 -0.707107 -0.707107 0.707107 566.327 157.031)" fill="#FF4D00"/>
<rect width="67.0881" height="91.2951" rx="17" transform="matrix(-0.707107 -0.707107 -0.707107 0.707107 581.977 162.9)" fill="#A7A7A7"/>
<rect width="62.9383" height="84.3788" rx="17" transform="matrix(-0.707107 -0.707107 -0.707107 0.707107 574.152 164.856)" fill="#153449"/>
<rect width="62.9383" height="52.5639" rx="17" transform="matrix(-0.707107 -0.707107 -0.707107 0.707107 551.656 187.353)" fill="black" fill-opacity="0.35"/>
<rect width="62.9383" height="34.5815" rx="17" transform="matrix(-0.707107 -0.707107 -0.707107 0.707107 538.941 200.068)" fill="black"/>
<rect x="126.665" y="183.93" width="58.0969" height="77.4625" rx="17" transform="rotate(45 126.665 183.93)" fill="#FF4D00"/>
<rect x="120.796" y="168.28" width="67.0881" height="91.2951" rx="17" transform="rotate(45 120.796 168.28)" fill="#A7A7A7"/>
<rect x="118.84" y="176.105" width="62.9383" height="84.3788" rx="17" transform="rotate(45 118.84 176.105)" fill="#153449"/>
<rect x="96.3442" y="198.602" width="62.9383" height="52.5639" rx="17" transform="rotate(45 96.3442 198.602)" fill="black" fill-opacity="0.35"/>
<rect x="83.6284" y="211.317" width="62.9383" height="34.5815" rx="17" transform="rotate(45 83.6284 211.317)" fill="black"/>
<rect width="58.0969" height="77.4625" rx="17" transform="matrix(-0.707107 -0.707107 -0.707107 0.707107 333.047 390.311)" fill="#FF4D00"/>
<rect width="67.0881" height="91.2951" rx="17" transform="matrix(-0.707107 -0.707107 -0.707107 0.707107 348.697 396.18)" fill="#A7A7A7"/>
<rect width="62.9383" height="84.3788" rx="17" transform="matrix(-0.707107 -0.707107 -0.707107 0.707107 340.872 398.136)" fill="#153449"/>
<rect width="62.9383" height="52.5639" rx="17" transform="matrix(-0.707107 -0.707107 -0.707107 0.707107 318.375 420.632)" fill="black" fill-opacity="0.35"/>
<rect width="62.9383" height="34.5815" rx="17" transform="matrix(-0.707107 -0.707107 -0.707107 0.707107 305.661 433.348)" fill="black"/>
<rect x="289.032" y="220.12" width="11.0661" height="40.8061" rx="5.53304" transform="rotate(45 289.032 220.12)" fill="#A7A7A7"/>
<rect x="289.032" y="220.12" width="11.0661" height="40.8061" rx="5.53304" transform="rotate(45 289.032 220.12)" fill="#A7A7A7"/>
<path d="M232.27 678.287C244.715 687.406 264.616 713.916 244.662 747.001C221.102 714.431 215.749 698.456 216.017 694.54L222.052 688.506L228.086 682.471L232.27 678.287Z" fill="#3E3E3E"/>
<path d="M353.928 799.945C344.809 787.5 318.299 767.599 285.213 787.554C317.784 811.113 333.759 816.466 337.674 816.198L343.709 810.163L349.744 804.129L353.928 799.945Z" fill="#3E3E3E"/>
<g filter="url(#filter7_i_442_2264)">
<path d="M204.59 699.529C213.656 718.035 236.325 759.586 254.477 777.738C272.629 795.89 314.179 818.559 332.685 827.624L345.559 814.75C330.325 811.317 292.648 797.242 263.81 768.404C234.973 739.567 220.897 701.889 217.464 686.655L204.59 699.529Z" fill="#FFB800"/>
</g>
<rect x="224.225" y="668.954" width="14.1099" height="12.7445" transform="rotate(45 224.225 668.954)" fill="#153449"/>
<rect x="215.856" y="677.321" width="14.1099" height="7.73771" transform="rotate(45 215.856 677.321)" fill="#153449"/>
<rect x="211.029" y="682.149" width="14.1099" height="12.7445" transform="rotate(45 211.029 682.149)" fill="#FFB800"/>
<rect x="202.661" y="690.517" width="14.1099" height="7.73771" transform="rotate(45 202.661 690.517)" fill="#FFB800"/>
<rect x="223.258" y="662.838" width="7.28255" height="44.1505" rx="3.64128" transform="rotate(45 223.258 662.838)" fill="#3E3E3E"/>
<rect width="14.11" height="12.7445" transform="matrix(-0.707107 -0.707107 -0.707107 0.707107 363.262 807.991)" fill="#153449"/>
<rect width="14.11" height="7.73771" transform="matrix(-0.707107 -0.707107 -0.707107 0.707107 354.893 816.359)" fill="#153449"/>
<rect width="14.11" height="12.7445" transform="matrix(-0.707107 -0.707107 -0.707107 0.707107 350.066 821.186)" fill="#FFB800"/>
<rect width="14.11" height="7.73771" transform="matrix(-0.707107 -0.707107 -0.707107 0.707107 341.698 829.555)" fill="#FFB800"/>
<rect width="7.28255" height="44.1505" rx="3.64128" transform="matrix(-0.707107 -0.707107 -0.707107 0.707107 369.376 808.956)" fill="#3E3E3E"/>
<rect x="263.811" y="747.806" width="29.1302" height="17.7512" transform="rotate(45 263.811 747.806)" fill="black"/>
<rect x="315.573" y="662.045" width="29.9716" height="5.91708" rx="2.95854" transform="rotate(33.0513 315.573 662.045)" fill="#3E3E3E"/>
<rect x="275.231" y="661.786" width="50.4315" height="5.91707" rx="2.95854" transform="rotate(50.9252 275.231 661.786)" fill="#3E3E3E"/>
<rect x="284.913" y="660.106" width="59.1708" height="5.91708" rx="2.95854" transform="rotate(3.2456 284.913 660.106)" fill="#3E3E3E"/>
<rect x="303.076" y="687.942" width="19.1167" height="14.5651" rx="6" transform="rotate(45 303.076 687.942)" fill="#153449"/>
<rect x="279.13" y="658.158" width="59.1707" height="5.91707" rx="2.95854" transform="rotate(46.3569 279.13 658.158)" fill="#3E3E3E"/>
<rect x="279.793" y="654.58" width="59.1707" height="5.91707" rx="2.95854" transform="rotate(33.3089 279.793 654.58)" fill="#3E3E3E"/>
<rect width="29.9716" height="5.91707" rx="2.95854" transform="matrix(-0.545389 -0.838183 -0.838183 0.545389 370.007 716.478)" fill="#3E3E3E"/>
<rect width="50.4315" height="5.91708" rx="2.95854" transform="matrix(-0.776323 -0.630335 -0.630335 0.776323 370.266 756.821)" fill="#3E3E3E"/>
<rect width="59.1707" height="5.91707" rx="2.95854" transform="matrix(-0.056616 -0.998396 -0.998396 0.056616 371.946 747.139)" fill="#3E3E3E"/>
<rect width="19.1167" height="14.5651" rx="6" transform="matrix(-0.707107 -0.707107 -0.707107 0.707107 344.11 728.975)" fill="#153449"/>
<rect width="59.1708" height="5.91708" rx="2.95854" transform="matrix(-0.723652 -0.690165 -0.690165 0.723652 373.894 752.921)" fill="#3E3E3E"/>
<rect width="59.1708" height="5.91708" rx="2.95854" transform="matrix(-0.549153 -0.835722 -0.835722 0.549153 377.472 752.258)" fill="#3E3E3E"/>
<rect x="323.916" y="688.988" width="29.9716" height="5.91707" rx="2.95854" transform="rotate(8.41295 323.916 688.988)" fill="#3E3E3E"/>
<g filter="url(#filter8_i_442_2264)">
<path d="M323.673 599.756L378.065 654.148L432.457 708.54L420.71 720.288L407.514 707.092C396.893 696.471 376.488 681.216 343.789 688.425C350.998 655.725 335.743 635.32 325.122 624.699L311.926 611.504L323.673 599.756Z" fill="#153449"/>
</g>
<rect x="333.329" y="587.526" width="157.485" height="21.8477" transform="rotate(45 333.329 587.526)" fill="#3E3E3E"/>
<rect x="493.931" y="467.477" width="98.7696" height="28.2199" transform="rotate(45 493.931 467.477)" fill="#FFB800"/>
<rect x="482.667" y="478.742" width="98.7696" height="4.09644" transform="rotate(45 482.667 478.742)" fill="#3E3E3E"/>
<rect x="493.931" y="467.477" width="98.7696" height="4.09644" transform="rotate(45 493.931 467.477)" fill="#3E3E3E"/>
<rect x="491.357" y="517.042" width="34.137" height="20.9373" transform="rotate(45 491.357 517.042)" fill="#3E3E3E"/>
<path fill-rule="evenodd" clip-rule="evenodd" d="M469.333 496.949L469.195 509.961L457.585 521.57L454.367 518.352L464.643 508.075L464.643 492.259L469.333 496.949Z" fill="#3E3E3E"/>
<path fill-rule="evenodd" clip-rule="evenodd" d="M535.312 562.928L522.3 563.066L510.691 574.675L513.909 577.893L524.185 567.617L540.001 567.617L535.312 562.928Z" fill="#3E3E3E"/>
<rect x="529.013" y="499.34" width="5.91707" height="45.0608" rx="2.95854" transform="rotate(45 529.013 499.34)" fill="#3E3E3E"/>
<rect x="493.61" y="463.937" width="5.91707" height="41.8747" rx="2.95854" transform="rotate(45 493.61 463.937)" fill="#3E3E3E"/>
<g filter="url(#filter9_i_442_2264)">
<path d="M462.494 511.997L491.299 540.802L520.104 569.607L443.666 683.058C440.179 688.798 432.723 698.507 422.263 697.38C411.008 696.168 386.86 690.3 364.331 667.77C341.801 645.241 335.933 621.093 334.721 609.838C333.594 599.378 343.303 591.922 349.043 588.435L462.494 511.997Z" fill="black"/>
</g>
<path d="M373.077 571.917L425.538 538.123C428.499 548.808 418.726 555.127 413.469 556.951L373.077 571.917Z" fill="#153449"/>
<path d="M460.554 659.393L494.348 606.932C483.662 603.971 477.343 613.744 475.52 619.001L460.554 659.393Z" fill="#153449"/>
<g filter="url(#filter10_i_442_2264)">
<path d="M469.286 512.296C470.437 511.026 472.418 510.977 473.63 512.19L478.936 517.495C480.107 518.667 480.108 520.567 478.936 521.738L424.281 576.393C423.109 577.565 421.21 577.565 420.038 576.393L417.42 573.776C416.289 572.644 416.244 570.825 417.318 569.64L469.286 512.296Z" fill="#153449"/>
</g>
<g filter="url(#filter11_i_442_2264)">
<path d="M519.597 562.607C520.868 561.456 520.916 559.475 519.704 558.263L514.398 552.957C513.226 551.786 511.327 551.786 510.155 552.957L455.5 607.612C454.329 608.784 454.329 610.683 455.5 611.855L458.118 614.473C459.249 615.604 461.069 615.649 462.254 614.575L519.597 562.607Z" fill="#153449"/>
</g>
<rect x="444.762" y="497.483" width="24.4521" height="5.91708" rx="2.95854" transform="rotate(61.33 444.762 497.483)" fill="#3E3E3E"/>
<rect x="442.481" y="500.352" width="24.4521" height="5.91708" rx="2.95854" transform="rotate(61.33 442.481 500.352)" fill="#3E3E3E"/>
<rect x="422.848" y="503.249" width="42.8636" height="5.91708" rx="2.95854" transform="rotate(61.33 422.848 503.249)" fill="#3E3E3E"/>
<rect x="423.203" y="501.671" width="42.8636" height="5.91708" rx="2.95854" transform="rotate(54.9265 423.203 501.671)" fill="#3E3E3E"/>
<rect x="444.771" y="495.081" width="59.1708" height="5.91708" rx="2.95854" transform="rotate(49.6074 444.771 495.081)" fill="#3E3E3E"/>
<rect x="445.398" y="495.545" width="71.645" height="5.91707" rx="2.95854" transform="rotate(93.3872 445.398 495.545)" fill="#3E3E3E"/>
<rect width="24.4521" height="5.91707" rx="2.95854" transform="matrix(-0.877397 -0.479764 -0.479764 0.877397 534.917 587.639)" fill="#3E3E3E"/>
<rect width="24.4521" height="5.91707" rx="2.95854" transform="matrix(-0.877397 -0.479764 -0.479764 0.877397 532.048 589.919)" fill="#3E3E3E"/>
<rect width="42.8636" height="5.91707" rx="2.95854" transform="matrix(-0.877397 -0.479764 -0.479764 0.877397 529.152 609.552)" fill="#3E3E3E"/>
<rect width="42.8636" height="5.91708" rx="2.95854" transform="matrix(-0.818416 -0.574626 -0.574626 0.818416 530.729 609.199)" fill="#3E3E3E"/>
<rect width="59.1708" height="5.91708" rx="2.95854" transform="matrix(-0.761621 -0.648022 -0.648022 0.761621 537.32 587.629)" fill="#3E3E3E"/>
<rect width="71.645" height="5.91707" rx="2.95854" transform="matrix(-0.998253 0.0590829 0.0590829 0.998253 536.855 587.002)" fill="#3E3E3E"/>
<path d="M473.98 536.357L495.222 537.001L495.866 558.242C495.92 559.476 495.641 562.652 494.096 565.484C492.165 569.024 478.164 595.255 473.819 604.427C469.475 613.6 462.233 662.682 446.463 679.096C430.692 695.51 415.565 674.59 412.025 671.05C408.485 667.509 405.588 661.716 397.864 666.544C391.684 670.406 370.614 687.464 360.851 695.51C359.671 696.797 356.378 699.597 352.644 700.499C348.911 701.4 345.188 705.058 343.793 706.775L289.08 761.488C288.06 762.508 285.861 764.964 285.217 766.638C284.413 768.73 284.735 769.374 283.93 770.178L274.436 779.673C274.167 779.834 273.438 779.962 272.891 779.415C272.344 778.868 272.344 778.225 272.665 777.903L280.873 769.696C281.409 769.159 282.16 767.765 280.873 766.477C279.263 764.868 277.976 765.512 277.01 766.477L272.826 770.661C272.022 771.466 270.573 772.27 268.964 770.661L265.263 766.96L261.562 763.259C259.952 761.649 260.757 760.201 261.562 759.397L265.746 755.213C266.711 754.247 267.355 752.96 265.746 751.35C264.458 750.063 263.064 750.814 262.527 751.35L254.32 759.557C253.998 759.879 253.355 759.879 252.808 759.332C252.26 758.785 252.389 758.055 252.55 757.787L262.044 748.293C262.849 747.488 263.493 747.81 265.585 747.005C267.258 746.362 269.715 744.162 270.734 743.143L325.448 688.429C327.165 687.035 330.823 683.312 331.724 679.579C332.625 675.845 335.426 672.552 336.713 671.371C344.759 661.609 361.817 640.539 365.679 634.359C370.507 626.635 364.714 623.738 361.173 620.198C357.633 616.658 336.713 601.531 353.127 585.76C369.541 569.99 418.623 562.748 427.795 558.403C436.968 554.058 463.199 540.058 466.739 538.127C469.571 536.582 472.747 536.303 473.98 536.357Z" fill="#FFB800"/>
<path d="M491.148 534.125L498.935 530.278C500.65 529.431 502.461 531.242 501.614 532.957L497.767 540.744C497.677 540.927 497.56 541.094 497.419 541.241L455.047 585.525C454.9 585.678 454.731 585.807 454.544 585.907L441.973 592.626C440.229 593.558 438.334 591.663 439.266 589.919L445.985 577.348C446.085 577.161 446.214 576.992 446.367 576.845L490.651 534.473C490.798 534.332 490.965 534.215 491.148 534.125Z" fill="#3E3E3E"/>
<rect x="421.515" y="584.952" width="36.4128" height="5.91707" rx="2.95854" transform="rotate(45 421.515 584.952)" fill="#3E3E3E"/>
<path d="M429.37 591.254L436.289 588.371C438.45 587.47 440.941 587.963 442.596 589.619C444.251 591.274 444.744 593.765 443.844 595.925L440.961 602.845C440.659 603.568 440.219 604.226 439.665 604.78L429.137 615.308C426.794 617.651 422.995 617.651 420.652 615.308L418.779 613.435L416.907 611.563C414.564 609.22 414.564 605.421 416.907 603.077L427.435 592.55C427.989 591.996 428.646 591.555 429.37 591.254Z" fill="#FFB800"/>
<path d="M429.937 602.708L429.499 602.27L429.06 601.831C428.259 601.03 427.045 600.807 426.01 601.271L420.236 603.865C418.492 604.649 418.072 606.936 419.424 608.288L421.452 610.316L423.48 612.344C424.832 613.696 427.119 613.276 427.903 611.532L430.497 605.758C430.961 604.724 430.739 603.51 429.937 602.708Z" fill="#3E3E3E"/>
<rect x="433.747" y="581.733" width="23.6683" height="5.91707" rx="2.95854" transform="rotate(45 433.747 581.733)" fill="#3E3E3E"/>
<rect x="447.908" y="587.526" width="20.027" height="4.5516" rx="2.2758" transform="rotate(135 447.908 587.526)" fill="#3E3E3E"/>
<g filter="url(#filter12_i_442_2264)">
<path d="M337.353 583.503L332.203 588.653C334.993 588.009 341.762 587.912 346.526 592.676L369.216 615.366C372.488 617.887 376.457 626.534 366.158 640.953C353.284 658.976 354.894 659.62 357.146 661.873L370.342 675.068C372.595 677.321 373.239 678.931 391.262 666.057C405.681 655.758 414.328 659.727 416.849 662.999L439.539 685.689C444.302 690.453 444.206 697.222 443.562 700.011L448.712 694.862C449.946 692.663 450.868 686.719 444.689 680.54L351.675 587.526C345.496 581.347 339.552 582.269 337.353 583.503Z" fill="#FFB800"/>
</g>
<path d="M365.816 640.972C376.115 626.553 372.146 617.907 368.874 615.385L364.851 611.362L365.011 611.201C369.249 614.474 377.37 622.981 375.954 630.834C374.184 640.65 371.77 643.708 368.713 646.765C365.655 649.823 360.827 654.329 364.69 658.191L375.632 669.134C379.349 672.85 383.661 668.521 386.705 665.465C386.825 665.344 386.942 665.226 387.058 665.111C390.116 662.053 393.173 659.639 402.989 657.869C410.842 656.453 419.35 664.574 422.622 668.812L422.461 668.973L416.507 663.019C413.986 659.747 405.339 655.777 390.92 666.076C372.897 678.95 372.253 677.341 370 675.088L356.804 661.892C354.551 659.639 352.942 658.996 365.816 640.972Z" fill="#3E3E3E"/>
<path d="M390.939 611.021L406.066 626.148L421.193 641.275L391.583 663.482L380.157 652.057L368.732 640.631L390.939 611.021Z" fill="#3E3E3E"/>
<g filter="url(#filter13_i_442_2264)">
<path d="M378.744 600.757C383.636 596.38 407.228 583.539 407.228 583.539L389.724 598.542L384.698 602.849C383.25 604.298 381.577 606.873 381.319 610.735C380.997 615.562 382.606 626.183 394.193 637.77C405.779 649.356 416.4 650.966 421.228 650.644C425.09 650.386 427.665 648.713 429.113 647.264L433.421 642.239L448.424 624.735C448.424 624.735 435.582 648.326 431.205 653.218C425.734 659.334 421.228 660.299 410.607 654.184C399.986 648.069 390.974 644.207 384.055 651.126L372.146 663.035L370.537 661.426L368.928 659.816L380.836 647.908C387.756 640.988 383.894 631.977 377.779 621.356C371.664 610.735 372.629 606.229 378.744 600.757Z" fill="#3E3E3E"/>
</g>
<rect x="396.733" y="605.872" width="41.4195" height="8.19287" transform="rotate(45 396.733 605.872)" fill="#FFB800"/>
<rect width="41.4195" height="4.09644" transform="matrix(0.707107 0.707107 0.707107 -0.707107 396.733 605.872)" fill="#3E3E3E"/>
<path d="M408.319 580.768L415.399 587.849L394.089 609.159C392.527 610.721 389.995 610.721 388.433 609.159L387.009 607.735C385.447 606.173 385.447 603.64 387.009 602.078L408.319 580.768Z" fill="#FFB800"/>
<path d="M451.447 623.895L444.366 616.814L423.056 638.124C421.494 639.687 421.494 642.219 423.056 643.781L424.48 645.205C426.042 646.767 428.575 646.767 430.137 645.205L451.447 623.895Z" fill="#FFB800"/>
<rect x="427.308" y="469.087" width="38.2334" height="50.9779" rx="17" transform="rotate(45 427.308 469.087)" fill="#FFB800"/>
<rect x="423.446" y="458.788" width="44.1505" height="60.0811" rx="17" transform="rotate(45 423.446 458.788)" fill="#3E3E3E"/>
<rect x="422.159" y="463.938" width="41.4195" height="55.5295" rx="17" transform="rotate(45 422.159 463.938)" fill="#153449"/>
<rect x="407.354" y="478.742" width="41.4195" height="34.5921" rx="17" transform="rotate(45 407.354 478.742)" fill="black" fill-opacity="0.35"/>
<rect x="398.986" y="487.11" width="41.4195" height="22.758" rx="11.379" transform="rotate(45 398.986 487.11)" fill="black"/>
<rect width="38.2334" height="50.9779" rx="17" transform="matrix(-0.707107 -0.707107 -0.707107 0.707107 563.126 604.906)" fill="#FFB800"/>
<rect width="44.1505" height="60.0811" rx="17" transform="matrix(-0.707107 -0.707107 -0.707107 0.707107 573.426 608.768)" fill="#3E3E3E"/>
<rect width="41.4195" height="55.5295" rx="17" transform="matrix(-0.707107 -0.707107 -0.707107 0.707107 568.277 610.055)" fill="#153449"/>
<rect width="41.4195" height="34.5921" rx="17" transform="matrix(-0.707107 -0.707107 -0.707107 0.707107 553.472 624.86)" fill="black" fill-opacity="0.35"/>
<rect width="41.4195" height="22.758" rx="11.379" transform="matrix(-0.707107 -0.707107 -0.707107 0.707107 545.103 633.229)" fill="black"/>
<rect x="273.787" y="622.608" width="38.2334" height="50.9779" rx="17" transform="rotate(45 273.787 622.608)" fill="#FFB800"/>
<rect x="269.924" y="612.309" width="44.1505" height="60.0811" rx="17" transform="rotate(45 269.924 612.309)" fill="#3E3E3E"/>
<rect x="268.637" y="617.458" width="41.4195" height="55.5295" rx="17" transform="rotate(45 268.637 617.458)" fill="#153449"/>
<rect x="253.833" y="632.263" width="41.4195" height="34.5921" rx="17" transform="rotate(45 253.833 632.263)" fill="black" fill-opacity="0.35"/>
<rect x="245.464" y="640.631" width="41.4195" height="22.758" rx="11.379" transform="rotate(45 245.464 640.631)" fill="black"/>
<rect width="38.2334" height="50.9779" rx="17" transform="matrix(-0.707107 -0.707107 -0.707107 0.707107 409.606 758.427)" fill="#FFB800"/>
<rect width="44.1505" height="60.0811" rx="17" transform="matrix(-0.707107 -0.707107 -0.707107 0.707107 419.905 762.289)" fill="#3E3E3E"/>
<rect width="41.4195" height="55.5295" rx="17" transform="matrix(-0.707107 -0.707107 -0.707107 0.707107 414.755 763.576)" fill="#153449"/>
<rect width="41.4195" height="34.5921" rx="17" transform="matrix(-0.707107 -0.707107 -0.707107 0.707107 399.951 778.381)" fill="black" fill-opacity="0.35"/>
<rect width="41.4195" height="22.758" rx="11.379" transform="matrix(-0.707107 -0.707107 -0.707107 0.707107 391.583 786.749)" fill="black"/>
<rect x="380.641" y="646.424" width="7.28255" height="26.8544" rx="3.64128" transform="rotate(45 380.641 646.424)" fill="#3E3E3E"/>
<rect x="380.641" y="646.424" width="7.28255" height="26.8544" rx="3.64128" transform="rotate(45 380.641 646.424)" fill="#3E3E3E"/>
<defs>
<filter id="filter0_i_442_2264" x="21.5181" y="281.252" width="214.207" height="214.206" filterUnits="userSpaceOnUse" color-interpolation-filters="sRGB">
<feFlood flood-opacity="0" result="BackgroundImageFix"/>
<feBlend mode="normal" in="SourceGraphic" in2="BackgroundImageFix" result="shape"/>
<feColorMatrix in="SourceAlpha" type="matrix" values="0 0 0 0 0 0 0 0 0 0 0 0 0 0 0 0 0 0 127 0" result="hardAlpha"/>
<feOffset dy="-11"/>
<feComposite in2="hardAlpha" operator="arithmetic" k2="-1" k3="1"/>
<feColorMatrix type="matrix" values="0 0 0 0 1 0 0 0 0 1 0 0 0 0 0.941176 0 0 0 1 0"/>
<feBlend mode="normal" in2="shape" result="effect1_innerShadow_442_2264"/>
</filter>
<filter id="filter1_i_442_2264" x="184.618" y="149.207" width="183.151" height="183.152" filterUnits="userSpaceOnUse" color-interpolation-filters="sRGB">
<feFlood flood-opacity="0" result="BackgroundImageFix"/>
<feBlend mode="normal" in="SourceGraphic" in2="BackgroundImageFix" result="shape"/>
<feColorMatrix in="SourceAlpha" type="matrix" values="0 0 0 0 0 0 0 0 0 0 0 0 0 0 0 0 0 0 127 0" result="hardAlpha"/>
<feOffset dy="-13"/>
<feComposite in2="hardAlpha" operator="arithmetic" k2="-1" k3="1"/>
<feColorMatrix type="matrix" values="0 0 0 0 0 0 0 0 0 0 0 0 0 0 0 0 0 0 1 0"/>
<feBlend mode="normal" in2="shape" result="effect1_innerShadow_442_2264"/>
</filter>
<filter id="filter2_i_442_2264" x="219.119" y="15.8526" width="281.833" height="281.833" filterUnits="userSpaceOnUse" color-interpolation-filters="sRGB">
<feFlood flood-opacity="0" result="BackgroundImageFix"/>
<feBlend mode="normal" in="SourceGraphic" in2="BackgroundImageFix" result="shape"/>
<feColorMatrix in="SourceAlpha" type="matrix" values="0 0 0 0 0 0 0 0 0 0 0 0 0 0 0 0 0 0 127 0" result="hardAlpha"/>
<feOffset dy="-10"/>
<feComposite in2="hardAlpha" operator="arithmetic" k2="-1" k3="1"/>
<feColorMatrix type="matrix" values="0 0 0 0 1 0 0 0 0 1 0 0 0 0 0.941176 0 0 0 1 0"/>
<feBlend mode="normal" in2="shape" result="effect1_innerShadow_442_2264"/>
</filter>
<filter id="filter3_i_442_2264" x="342.992" y="14.1096" width="97.3843" height="101.577" filterUnits="userSpaceOnUse" color-interpolation-filters="sRGB">
<feFlood flood-opacity="0" result="BackgroundImageFix"/>
<feBlend mode="normal" in="SourceGraphic" in2="BackgroundImageFix" result="shape"/>
<feColorMatrix in="SourceAlpha" type="matrix" values="0 0 0 0 0 0 0 0 0 0 0 0 0 0 0 0 0 0 127 0" result="hardAlpha"/>
<feOffset dy="9"/>
<feComposite in2="hardAlpha" operator="arithmetic" k2="-1" k3="1"/>
<feColorMatrix type="matrix" values="0 0 0 0 1 0 0 0 0 1 0 0 0 0 0.941176 0 0 0 1 0"/>
<feBlend mode="normal" in2="shape" result="effect1_innerShadow_442_2264"/>
</filter>
<filter id="filter4_i_442_2264" x="400.803" y="76.1127" width="101.577" height="97.3839" filterUnits="userSpaceOnUse" color-interpolation-filters="sRGB">
<feFlood flood-opacity="0" result="BackgroundImageFix"/>
<feBlend mode="normal" in="SourceGraphic" in2="BackgroundImageFix" result="shape"/>
<feColorMatrix in="SourceAlpha" type="matrix" values="0 0 0 0 0 0 0 0 0 0 0 0 0 0 0 0 0 0 127 0" result="hardAlpha"/>
<feOffset dy="9"/>
<feComposite in2="hardAlpha" operator="arithmetic" k2="-1" k3="1"/>
<feColorMatrix type="matrix" values="0 0 0 0 1 0 0 0 0 1 0 0 0 0 0.941176 0 0 0 1 0"/>
<feBlend mode="normal" in2="shape" result="effect1_innerShadow_442_2264"/>
</filter>
<filter id="filter5_i_442_2264" x="215.43" y="123.143" width="178.405" height="178.405" filterUnits="userSpaceOnUse" color-interpolation-filters="sRGB">
<feFlood flood-opacity="0" result="BackgroundImageFix"/>
<feBlend mode="normal" in="SourceGraphic" in2="BackgroundImageFix" result="shape"/>
<feColorMatrix in="SourceAlpha" type="matrix" values="0 0 0 0 0 0 0 0 0 0 0 0 0 0 0 0 0 0 127 0" result="hardAlpha"/>
<feOffset dy="4"/>
<feComposite in2="hardAlpha" operator="arithmetic" k2="-1" k3="1"/>
<feColorMatrix type="matrix" values="0 0 0 0 0 0 0 0 0 0 0 0 0 0 0 0 0 0 0.25 0"/>
<feBlend mode="normal" in2="shape" result="effect1_innerShadow_442_2264"/>
</filter>
<filter id="filter6_i_442_2264" x="271.235" y="124.563" width="120.797" height="120.797" filterUnits="userSpaceOnUse" color-interpolation-filters="sRGB">
<feFlood flood-opacity="0" result="BackgroundImageFix"/>
<feBlend mode="normal" in="SourceGraphic" in2="BackgroundImageFix" result="shape"/>
<feColorMatrix in="SourceAlpha" type="matrix" values="0 0 0 0 0 0 0 0 0 0 0 0 0 0 0 0 0 0 127 0" result="hardAlpha"/>
<feOffset dy="-7"/>
<feComposite in2="hardAlpha" operator="arithmetic" k2="-1" k3="1"/>
<feColorMatrix type="matrix" values="0 0 0 0 0.377832 0 0 0 0 0.377832 0 0 0 0 0.377832 0 0 0 0.25 0"/>
<feBlend mode="normal" in2="shape" result="effect1_innerShadow_442_2264"/>
</filter>
<filter id="filter7_i_442_2264" x="204.59" y="686.655" width="140.969" height="140.969" filterUnits="userSpaceOnUse" color-interpolation-filters="sRGB">
<feFlood flood-opacity="0" result="BackgroundImageFix"/>
<feBlend mode="normal" in="SourceGraphic" in2="BackgroundImageFix" result="shape"/>
<feColorMatrix in="SourceAlpha" type="matrix" values="0 0 0 0 0 0 0 0 0 0 0 0 0 0 0 0 0 0 127 0" result="hardAlpha"/>
<feOffset dy="-11"/>
<feComposite in2="hardAlpha" operator="arithmetic" k2="-1" k3="1"/>
<feColorMatrix type="matrix" values="0 0 0 0 1 0 0 0 0 1 0 0 0 0 0.941176 0 0 0 1 0"/>
<feBlend mode="normal" in2="shape" result="effect1_innerShadow_442_2264"/>
</filter>
<filter id="filter8_i_442_2264" x="311.926" y="599.756" width="120.532" height="120.531" filterUnits="userSpaceOnUse" color-interpolation-filters="sRGB">
<feFlood flood-opacity="0" result="BackgroundImageFix"/>
<feBlend mode="normal" in="SourceGraphic" in2="BackgroundImageFix" result="shape"/>
<feColorMatrix in="SourceAlpha" type="matrix" values="0 0 0 0 0 0 0 0 0 0 0 0 0 0 0 0 0 0 127 0" result="hardAlpha"/>
<feOffset dy="-13"/>
<feComposite in2="hardAlpha" operator="arithmetic" k2="-1" k3="1"/>
<feColorMatrix type="matrix" values="0 0 0 0 0 0 0 0 0 0 0 0 0 0 0 0 0 0 1 0"/>
<feBlend mode="normal" in2="shape" result="effect1_innerShadow_442_2264"/>
</filter>
<filter id="filter9_i_442_2264" x="334.631" y="511.997" width="185.474" height="185.474" filterUnits="userSpaceOnUse" color-interpolation-filters="sRGB">
<feFlood flood-opacity="0" result="BackgroundImageFix"/>
<feBlend mode="normal" in="SourceGraphic" in2="BackgroundImageFix" result="shape"/>
<feColorMatrix in="SourceAlpha" type="matrix" values="0 0 0 0 0 0 0 0 0 0 0 0 0 0 0 0 0 0 127 0" result="hardAlpha"/>
<feOffset dy="-10"/>
<feComposite in2="hardAlpha" operator="arithmetic" k2="-1" k3="1"/>
<feColorMatrix type="matrix" values="0 0 0 0 1 0 0 0 0 1 0 0 0 0 0.941176 0 0 0 1 0"/>
<feBlend mode="normal" in2="shape" result="effect1_innerShadow_442_2264"/>
</filter>
<filter id="filter10_i_442_2264" x="416.542" y="511.311" width="63.2729" height="65.9611" filterUnits="userSpaceOnUse" color-interpolation-filters="sRGB">
<feFlood flood-opacity="0" result="BackgroundImageFix"/>
<feBlend mode="normal" in="SourceGraphic" in2="BackgroundImageFix" result="shape"/>
<feColorMatrix in="SourceAlpha" type="matrix" values="0 0 0 0 0 0 0 0 0 0 0 0 0 0 0 0 0 0 127 0" result="hardAlpha"/>
<feOffset dy="9"/>
<feComposite in2="hardAlpha" operator="arithmetic" k2="-1" k3="1"/>
<feColorMatrix type="matrix" values="0 0 0 0 1 0 0 0 0 1 0 0 0 0 0.941176 0 0 0 1 0"/>
<feBlend mode="normal" in2="shape" result="effect1_innerShadow_442_2264"/>
</filter>
<filter id="filter11_i_442_2264" x="454.622" y="552.078" width="65.9609" height="63.2732" filterUnits="userSpaceOnUse" color-interpolation-filters="sRGB">
<feFlood flood-opacity="0" result="BackgroundImageFix"/>
<feBlend mode="normal" in="SourceGraphic" in2="BackgroundImageFix" result="shape"/>
<feColorMatrix in="SourceAlpha" type="matrix" values="0 0 0 0 0 0 0 0 0 0 0 0 0 0 0 0 0 0 127 0" result="hardAlpha"/>
<feOffset dy="9"/>
<feComposite in2="hardAlpha" operator="arithmetic" k2="-1" k3="1"/>
<feColorMatrix type="matrix" values="0 0 0 0 1 0 0 0 0 1 0 0 0 0 0.941176 0 0 0 1 0"/>
<feBlend mode="normal" in2="shape" result="effect1_innerShadow_442_2264"/>
</filter>
<filter id="filter12_i_442_2264" x="332.203" y="582.604" width="117.408" height="117.408" filterUnits="userSpaceOnUse" color-interpolation-filters="sRGB">
<feFlood flood-opacity="0" result="BackgroundImageFix"/>
<feBlend mode="normal" in="SourceGraphic" in2="BackgroundImageFix" result="shape"/>
<feColorMatrix in="SourceAlpha" type="matrix" values="0 0 0 0 0 0 0 0 0 0 0 0 0 0 0 0 0 0 127 0" result="hardAlpha"/>
<feOffset dy="4"/>
<feComposite in2="hardAlpha" operator="arithmetic" k2="-1" k3="1"/>
<feColorMatrix type="matrix" values="0 0 0 0 0 0 0 0 0 0 0 0 0 0 0 0 0 0 0.25 0"/>
<feBlend mode="normal" in2="shape" result="effect1_innerShadow_442_2264"/>
</filter>
<filter id="filter13_i_442_2264" x="368.928" y="583.539" width="79.4961" height="79.4961" filterUnits="userSpaceOnUse" color-interpolation-filters="sRGB">
<feFlood flood-opacity="0" result="BackgroundImageFix"/>
<feBlend mode="normal" in="SourceGraphic" in2="BackgroundImageFix" result="shape"/>
<feColorMatrix in="SourceAlpha" type="matrix" values="0 0 0 0 0 0 0 0 0 0 0 0 0 0 0 0 0 0 127 0" result="hardAlpha"/>
<feOffset dy="-7"/>
<feComposite in2="hardAlpha" operator="arithmetic" k2="-1" k3="1"/>
<feColorMatrix type="matrix" values="0 0 0 0 0.377832 0 0 0 0 0.377832 0 0 0 0 0.377832 0 0 0 0.25 0"/>
<feBlend mode="normal" in2="shape" result="effect1_innerShadow_442_2264"/>
</filter>
</defs>
</svg>
