<svg width="802" height="484" viewBox="0 0 802 484" fill="none" xmlns="http://www.w3.org/2000/svg">
<path d="M383.864 144.084L528.094 -82.6962L582.85 -234L476.421 -33.494L383.864 133.898V144.084Z" fill="#00F3D6"/>
<path d="M406.355 85.6833L470.078 -33.494L436.054 -33.494L418.465 12.3435L425.097 38.4878L406.355 75.1577L406.355 85.6833Z" fill="#00F3D6"/>
<path d="M379.251 -33.494L383.864 -33.494L379.251 5.55267L374.926 12.3435L379.251 -33.494Z" fill="#00F3D6"/>
<path d="M359.932 127.446L374.926 -33.494H355.896L355.896 130.842L359.932 127.446Z" fill="#00F3D6"/>
<path d="M351.282 136.614L351.282 -33.494L346.092 -33.494L348.687 144.084L351.282 136.614Z" fill="#00F3D6"/>
<path d="M344.65 145.781L332.252 -33.494L293.614 -33.494L243.083 -84.4209L340.037 152.912L344.65 145.781Z" fill="#00F3D6"/>
<path d="M336.577 154.949L269.053 12.3435L184.298 -54.3385L334.847 158.005L336.577 154.949Z" fill="#00F3D6"/>
<path d="M388.19 105.376L395.398 85.6833L398.57 95.1903L388.19 111.828V105.376Z" fill="#00F3D6"/>
<path d="M374.638 107.414L366.276 111.828L362.816 133.898H366.276L374.638 107.414Z" fill="#00F3D6"/>
<path d="M247.58 421.838C260.982 403.549 299.941 374.302 348.564 403.628C300.697 438.251 277.221 446.118 271.466 445.724L262.598 436.855L253.729 427.987L247.58 421.838Z" fill="#A7A7A7"/>
<path d="M426.371 243.049C408.082 256.45 378.836 295.409 408.161 344.032C442.784 296.166 450.652 272.689 450.257 266.935L441.389 258.066L432.52 249.198L426.371 243.049Z" fill="#A7A7A7"/>
<g filter="url(#filter0_i_532_578)">
<path d="M278.798 462.516C305.995 449.194 367.058 415.879 393.735 389.202C420.411 362.526 453.726 301.462 467.048 274.265L448.129 255.346C443.084 277.734 422.398 333.106 380.018 375.486C337.638 417.866 282.266 438.551 259.878 443.596L278.798 462.516Z" fill="#FF4D00"/>
</g>
<rect x="233.863" y="433.663" width="20.7363" height="18.7295" transform="rotate(-45 233.863 433.663)" fill="#153449"/>
<rect x="246.161" y="445.962" width="20.7363" height="11.3715" transform="rotate(-45 246.161 445.962)" fill="#153449"/>
<rect x="253.256" y="453.056" width="20.7363" height="18.7295" transform="rotate(-45 253.256 453.056)" fill="#FF4D00"/>
<rect x="265.555" y="465.354" width="20.7363" height="11.3715" transform="rotate(-45 265.555 465.354)" fill="#FF4D00"/>
<rect x="224.878" y="435.082" width="10.7026" height="64.8844" rx="5" transform="rotate(-45 224.878 435.082)" fill="#A7A7A7"/>
<rect width="20.7363" height="18.7295" transform="matrix(-0.707107 0.707107 0.707107 0.707107 438.196 229.33)" fill="#153449"/>
<rect width="20.7363" height="11.3715" transform="matrix(-0.707107 0.707107 0.707107 0.707107 450.494 241.629)" fill="#153449"/>
<rect width="20.7363" height="18.7295" transform="matrix(-0.707107 0.707107 0.707107 0.707107 457.589 248.724)" fill="#FF4D00"/>
<rect width="20.7363" height="11.3715" transform="matrix(-0.707107 0.707107 0.707107 0.707107 469.887 261.021)" fill="#FF4D00"/>
<rect width="10.7026" height="64.8844" rx="5" transform="matrix(-0.707107 0.707107 0.707107 0.707107 439.615 220.345)" fill="#A7A7A7"/>
<rect x="349.746" y="375.485" width="42.8104" height="26.0876" transform="rotate(-45 349.746 375.485)" fill="black"/>
<rect x="223.71" y="299.415" width="44.0469" height="8.69585" rx="4.34793" transform="rotate(-56.9487 223.71 299.415)" fill="#A7A7A7"/>
<rect x="223.331" y="358.703" width="74.1151" height="8.69585" rx="4.34793" transform="rotate(-39.0748 223.331 358.703)" fill="#A7A7A7"/>
<rect x="220.861" y="344.474" width="86.9585" height="8.69586" rx="4.34793" transform="rotate(-86.7544 220.861 344.474)" fill="#A7A7A7"/>
<rect x="261.77" y="317.781" width="28.0943" height="21.4052" rx="6" transform="rotate(-45 261.77 317.781)" fill="#153449"/>
<rect x="217.999" y="352.97" width="86.9585" height="8.69585" rx="4.34793" transform="rotate(-43.6431 217.999 352.97)" fill="#A7A7A7"/>
<rect x="212.741" y="351.998" width="86.9585" height="8.69585" rx="4.34793" transform="rotate(-56.6911 212.741 351.998)" fill="#A7A7A7"/>
<rect width="44.0469" height="8.69585" rx="4.34793" transform="matrix(-0.838183 0.54539 0.54539 0.838183 303.708 219.417)" fill="#A7A7A7"/>
<rect width="74.1152" height="8.69586" rx="4.34793" transform="matrix(-0.630335 0.776323 0.776323 0.630335 362.997 219.036)" fill="#A7A7A7"/>
<rect width="86.9585" height="8.69585" rx="4.34793" transform="matrix(-0.998396 0.0566161 0.0566161 0.998396 348.767 216.569)" fill="#A7A7A7"/>
<rect width="28.0943" height="21.4052" rx="6" transform="matrix(-0.707107 0.707107 0.707107 0.707107 322.073 257.476)" fill="#153449"/>
<rect width="86.9585" height="8.69586" rx="4.34793" transform="matrix(-0.690165 0.723652 0.723652 0.690165 357.264 213.705)" fill="#A7A7A7"/>
<rect width="86.9586" height="8.69586" rx="4.34793" transform="matrix(-0.835722 0.549153 0.549153 0.835722 356.291 208.447)" fill="#A7A7A7"/>
<rect x="263.307" y="287.154" width="44.0469" height="8.69585" rx="4.34793" transform="rotate(-81.587 263.307 287.154)" fill="#A7A7A7"/>
<g filter="url(#filter1_i_532_578)">
<path d="M132.17 287.51L212.106 207.574L292.041 127.638L309.305 144.903L289.913 164.295C274.304 179.904 251.884 209.892 262.479 257.948C214.423 247.353 184.436 269.773 168.827 285.381L149.434 304.774L132.17 287.51Z" fill="#153449"/>
</g>
<rect x="114.196" y="273.32" width="231.444" height="32.1078" transform="rotate(-45 114.196 273.32)" fill="#A7A7A7"/>
<rect x="-62.2285" y="37.2958" width="145.154" height="41.4725" transform="rotate(-45 -62.2285 37.2958)" fill="#FF4D00"/>
<rect x="-45.6738" y="53.8507" width="145.154" height="6.02021" transform="rotate(-45 -45.6738 53.8507)" fill="#A7A7A7"/>
<rect x="-62.2285" y="37.2958" width="145.154" height="6.02021" transform="rotate(-45 -62.2285 37.2958)" fill="#A7A7A7"/>
<rect x="10.6113" y="41.0794" width="50.1684" height="30.7699" transform="rotate(-45 10.6113 41.0794)" fill="#3E3E3E"/>
<path fill-rule="evenodd" clip-rule="evenodd" d="M-18.9176 73.4449L0.204993 73.6478L17.2663 90.7091L12.5364 95.4391L-2.56573 80.3369L-25.8096 80.3369L-18.9176 73.4449Z" fill="#3E3E3E"/>
<path fill-rule="evenodd" clip-rule="evenodd" d="M78.0455 -23.5175L78.2484 -4.39495L95.3097 12.6664L100.04 7.93646L84.9375 -7.16567L84.9375 -30.4095L78.0455 -23.5175Z" fill="#3E3E3E"/>
<rect x="-15.4033" y="-14.2608" width="8.69585" height="66.2223" rx="3" transform="rotate(-45 -15.4033 -14.2608)" fill="#A7A7A7"/>
<g filter="url(#filter2_i_532_578)">
<path d="M3.19601 83.4963L45.5288 41.1635L87.8616 -1.16929L254.591 111.166C263.026 116.29 277.295 127.248 275.639 142.62C273.858 159.16 265.234 194.649 232.124 227.759C199.015 260.868 163.526 269.493 146.986 271.274C131.613 272.93 120.656 258.661 115.532 250.226L3.19601 83.4963Z" fill="black"/>
</g>
<path d="M91.2559 214.905L41.5918 137.807C57.2951 133.455 66.5815 147.819 69.2618 155.544L91.2559 214.905Z" fill="#153449"/>
<path d="M219.814 86.347L142.716 36.6828C138.364 52.3862 152.728 61.6726 160.453 64.3528L219.814 86.347Z" fill="#153449"/>
<g filter="url(#filter3_i_532_578)">
<path d="M2.54005 72.5208C1.26947 71.3693 1.2208 69.389 2.43329 68.1765L12.2735 58.3363C13.4451 57.1647 15.3446 57.1647 16.5162 58.3363L98.8311 140.651C100.003 141.823 100.003 143.722 98.8311 144.894L93.0391 150.686C91.9081 151.817 90.0885 151.862 88.9032 150.787L2.54005 72.5208Z" fill="#153449"/>
</g>
<g filter="url(#filter4_i_532_578)">
<path d="M76.5819 -1.52045C75.4304 -2.79104 73.4501 -2.8397 72.2376 -1.62721L62.3974 8.21302C61.2258 9.38459 61.2258 11.2841 62.3974 12.4557L144.712 94.7706C145.884 95.9421 147.783 95.9421 148.955 94.7706L154.747 88.9786C155.878 87.8476 155.923 86.028 154.849 84.8427L76.5819 -1.52045Z" fill="#153449"/>
</g>
<rect x="-18.1328" y="109.557" width="35.9353" height="8.69585" rx="4.34793" transform="rotate(-28.67 -18.1328 109.557)" fill="#A7A7A7"/>
<rect x="-13.916" y="112.909" width="35.9353" height="8.69585" rx="4.34793" transform="rotate(-28.67 -13.916 112.909)" fill="#A7A7A7"/>
<rect x="-9.66016" y="141.761" width="62.9932" height="8.69585" rx="4.34793" transform="rotate(-28.67 -9.66016 141.761)" fill="#A7A7A7"/>
<rect x="-11.9785" y="141.241" width="62.9932" height="8.69586" rx="4.34793" transform="rotate(-35.0735 -11.9785 141.241)" fill="#A7A7A7"/>
<rect x="-21.6631" y="109.543" width="86.9585" height="8.69586" rx="4.34793" transform="rotate(-40.3926 -21.6631 109.543)" fill="#A7A7A7"/>
<rect x="-20.9814" y="108.621" width="105.291" height="8.69585" rx="4.34793" transform="rotate(3.38717 -20.9814 108.621)" fill="#A7A7A7"/>
<rect width="35.9353" height="8.69585" rx="4.34793" transform="matrix(-0.479764 0.877397 0.877397 0.479764 114.363 -22.9378)" fill="#A7A7A7"/>
<rect width="35.9353" height="8.69585" rx="4.34793" transform="matrix(-0.479764 0.877397 0.877397 0.479764 117.715 -18.7226)" fill="#A7A7A7"/>
<rect width="62.9931" height="8.69585" rx="4.34793" transform="matrix(-0.479764 0.877397 0.877397 0.479764 146.566 -14.4658)" fill="#A7A7A7"/>
<rect width="62.9932" height="8.69585" rx="4.34793" transform="matrix(-0.574626 0.818416 0.818416 0.574626 146.047 -16.7835)" fill="#A7A7A7"/>
<rect width="86.9585" height="8.69585" rx="4.34793" transform="matrix(-0.648022 0.761621 0.761621 0.648022 114.349 -26.4692)" fill="#A7A7A7"/>
<rect width="105.291" height="8.69585" rx="4.34793" transform="matrix(0.0590829 0.998253 0.998253 -0.0590829 113.426 -25.7864)" fill="#A7A7A7"/>
<path d="M38.9976 66.6162L39.9436 35.3987L71.1611 34.4527C72.9742 34.3739 77.6411 34.7838 81.8034 37.0542C87.0063 39.8921 125.555 60.4673 139.035 66.8527C152.516 73.2381 224.647 83.8804 248.77 107.057C272.892 130.234 242.148 152.464 236.945 157.667C231.742 162.87 223.228 167.127 230.323 178.479C235.999 187.56 261.067 218.525 272.892 232.873C274.784 234.607 278.899 239.447 280.224 244.934C281.548 250.421 286.924 255.892 289.447 257.941L369.856 338.35C371.353 339.848 374.964 343.08 377.423 344.026C380.498 345.209 381.444 344.736 382.626 345.918L396.58 359.871C396.816 360.265 397.005 361.338 396.201 362.142C395.397 362.946 394.451 362.946 393.978 362.473L381.917 350.411C381.129 349.623 379.079 348.519 377.187 350.411C374.822 352.776 375.768 354.668 377.187 356.087L383.336 362.236C384.518 363.419 385.701 365.547 383.336 367.912L377.896 373.352L372.457 378.791C370.092 381.156 367.964 379.973 366.781 378.791L360.632 372.642C359.213 371.223 357.321 370.277 354.956 372.642C353.064 374.534 354.168 376.584 354.956 377.372L367.018 389.433C367.491 389.906 367.491 390.852 366.687 391.656C365.882 392.46 364.81 392.271 364.416 392.035L350.463 378.081C349.28 376.899 349.753 375.953 348.571 372.879C347.625 370.419 344.393 366.808 342.895 365.311L262.486 284.902C260.437 282.379 254.966 277.003 249.479 275.679C243.992 274.354 239.152 270.239 237.418 268.347C223.07 256.522 192.105 231.454 183.024 225.778C171.672 218.683 167.415 227.197 162.212 232.4C157.009 237.603 134.779 268.347 111.602 244.225C88.4253 220.102 77.783 147.971 71.3976 134.491C65.0122 121.01 44.437 82.4614 41.5991 77.2585C39.3287 73.0961 38.9188 68.4293 38.9976 66.6162Z" fill="#FF4D00"/>
<path d="M35.7808 41.5147L28.8355 27.4548C27.9886 25.7403 29.7999 23.929 31.5144 24.7759L45.5744 31.7211C45.7567 31.8112 45.9243 31.9286 46.0713 32.0692L111.365 94.5443C111.518 94.6905 111.646 94.86 111.746 95.0466L123.151 116.384C124.083 118.129 122.188 120.023 120.444 119.091L99.1062 107.686C98.9197 107.587 98.7501 107.458 98.6039 107.305L36.1289 42.0116C35.9882 41.8647 35.8709 41.6971 35.7808 41.5147Z" fill="#A7A7A7"/>
<rect x="110.413" y="143.72" width="53.5129" height="8.69585" rx="3" transform="rotate(-45 110.413 143.72)" fill="#A7A7A7"/>
<path d="M116.092 113.918L117.271 112.739L118.45 111.56C120.169 109.841 122.756 109.329 125.001 110.264L137.224 115.357C137.947 115.659 138.604 116.099 139.158 116.653L157.017 134.511C159.36 136.854 159.36 140.653 157.017 142.996L152.272 147.741L147.528 152.485C145.185 154.828 141.386 154.828 139.043 152.485L121.185 134.627C120.631 134.073 120.19 133.415 119.889 132.692L114.796 120.469C113.861 118.224 114.373 115.638 116.092 113.918Z" fill="#FF4D00"/>
<path d="M136.508 131.343L135.864 131.987L135.22 132.631C134.042 133.809 133.714 135.593 134.397 137.113L138.209 145.599C139.361 148.162 142.722 148.779 144.708 146.792L147.689 143.812L150.669 140.831C152.656 138.844 152.039 135.484 149.476 134.332L140.991 130.52C139.471 129.837 137.686 130.164 136.508 131.343Z" fill="#3E3E3E"/>
<rect x="105.683" y="125.745" width="34.7834" height="8.69585" rx="3" transform="rotate(-45 105.683 125.745)" fill="#A7A7A7"/>
<rect x="114.196" y="104.933" width="29.4321" height="6.68912" rx="3" transform="rotate(45 114.196 104.933)" fill="#A7A7A7"/>
<g filter="url(#filter5_i_532_578)">
<path d="M108.285 267.406L115.853 274.974C114.907 270.875 114.765 260.926 121.765 253.926L155.111 220.58C158.816 215.771 171.524 209.938 192.714 225.073C219.201 243.993 220.147 241.628 223.458 238.317L242.851 218.924C246.162 215.614 248.527 214.668 229.607 188.18C214.471 166.99 220.305 154.282 225.114 150.577L258.46 117.231C265.46 110.231 275.409 110.373 279.508 111.319L271.94 103.751C268.708 101.938 259.973 100.582 250.892 109.663L114.197 246.358C105.116 255.439 106.472 264.174 108.285 267.406Z" fill="#FF4D00"/>
</g>
<path d="M192.741 225.576C171.551 210.44 158.844 216.274 155.139 221.082L149.226 226.995L148.99 226.758C153.798 220.531 166.301 208.595 177.842 210.677C192.268 213.278 196.762 216.825 201.255 221.319C205.749 225.812 212.371 232.907 218.047 227.231L234.128 211.15C239.59 205.688 233.228 199.351 228.736 194.877C228.56 194.701 228.386 194.528 228.216 194.358C223.722 189.865 220.175 185.372 217.574 170.945C215.492 159.404 227.428 146.901 233.655 142.093L233.892 142.329L225.141 151.08C220.333 154.785 214.499 167.492 229.635 188.682C248.555 215.17 246.19 216.116 242.879 219.427L223.486 238.82C220.175 242.131 219.229 244.496 192.741 225.576Z" fill="#A7A7A7"/>
<path d="M148.725 188.654L170.955 166.424L193.186 144.193L225.822 187.708L209.031 204.5L192.24 221.291L148.725 188.654Z" fill="#3E3E3E"/>
<g filter="url(#filter6_i_532_578)">
<path d="M133.641 206.575C127.208 199.386 108.336 164.716 108.336 164.716L130.385 190.439L136.716 197.825C138.844 199.953 142.628 202.413 148.304 202.791C155.399 203.264 171.008 200.899 188.035 183.872C205.063 166.844 207.428 151.235 206.955 144.14C206.577 138.464 204.117 134.681 201.989 132.552L194.603 126.221L168.879 104.173C168.879 104.173 203.549 123.045 210.739 129.478C219.726 137.518 221.145 144.14 212.158 159.749C203.171 175.358 197.495 188.602 207.664 198.771L225.165 216.272L222.8 218.637L220.435 221.002L202.935 203.501C192.765 193.332 179.521 199.007 163.913 207.994C148.304 216.981 141.682 215.562 133.641 206.575Z" fill="#A7A7A7"/>
</g>
<rect x="141.156" y="180.14" width="60.871" height="12.0404" transform="rotate(-45 141.156 180.14)" fill="#8AB8AB"/>
<rect width="60.871" height="6.02021" transform="matrix(0.707107 -0.707107 -0.707107 -0.707107 141.156 180.14)" fill="#A7A7A7"/>
<path d="M104.264 163.113L114.669 152.708L147.315 185.354C148.878 186.916 148.878 189.448 147.315 191.011L142.567 195.759C141.004 197.322 138.472 197.322 136.91 195.759L104.264 163.113Z" fill="#FF4D00"/>
<path d="M167.645 99.7319L157.239 110.138L189.885 142.784C191.447 144.346 193.979 144.346 195.542 142.784L200.291 138.035C201.853 136.473 201.853 133.94 200.291 132.378L167.645 99.7319Z" fill="#FF4D00"/>
<rect x="-59.8652" y="135.206" width="56.1886" height="74.9181" rx="17" transform="rotate(-45 -59.8652 135.206)" fill="#FF4D00"/>
<rect x="-75" y="140.881" width="64.8844" height="88.2963" rx="17" transform="rotate(-45 -75 140.881)" fill="#A7A7A7"/>
<rect x="-67.4326" y="142.773" width="60.871" height="81.6072" rx="17" transform="rotate(-45 -67.4326 142.773)" fill="#153449"/>
<rect x="-45.6738" y="164.531" width="60.871" height="50.8373" rx="17" transform="rotate(-45 -45.6738 164.531)" fill="black" fill-opacity="0.35"/>
<rect x="-33.3779" y="176.829" width="60.871" height="33.4456" rx="16.7228" transform="rotate(-45 -33.3779 176.829)" fill="black"/>
<rect width="56.1886" height="74.9181" rx="17" transform="matrix(-0.707107 0.707107 0.707107 0.707107 139.737 -64.3969)" fill="#FF4D00"/>
<rect width="64.8844" height="88.2963" rx="17" transform="matrix(-0.707107 0.707107 0.707107 0.707107 145.414 -79.5332)" fill="#A7A7A7"/>
<rect width="60.871" height="81.6073" rx="17" transform="matrix(-0.707107 0.707107 0.707107 0.707107 147.306 -71.965)" fill="#153449"/>
<rect width="60.871" height="50.8373" rx="17" transform="matrix(-0.707107 0.707107 0.707107 0.707107 169.063 -50.2079)" fill="black" fill-opacity="0.35"/>
<rect width="60.871" height="33.4456" rx="16.7228" transform="matrix(-0.707107 0.707107 0.707107 0.707107 181.362 -37.9107)" fill="black"/>
<rect x="165.753" y="360.824" width="56.1886" height="74.9181" rx="17" transform="rotate(-45 165.753 360.824)" fill="#FF4D00"/>
<rect x="150.617" y="366.499" width="64.8844" height="88.2963" rx="17" transform="rotate(-45 150.617 366.499)" fill="#A7A7A7"/>
<rect x="158.185" y="368.391" width="60.871" height="81.6072" rx="17" transform="rotate(-45 158.185 368.391)" fill="#153449"/>
<rect x="179.943" y="390.148" width="60.871" height="50.8373" rx="17" transform="rotate(-45 179.943 390.148)" fill="black" fill-opacity="0.35"/>
<rect x="192.24" y="402.446" width="60.871" height="33.4456" rx="16.7228" transform="rotate(-45 192.24 402.446)" fill="black"/>
<rect width="56.1886" height="74.9181" rx="17" transform="matrix(-0.707107 0.707107 0.707107 0.707107 365.354 161.22)" fill="#FF4D00"/>
<rect width="64.8844" height="88.2963" rx="17" transform="matrix(-0.707107 0.707107 0.707107 0.707107 371.031 146.084)" fill="#A7A7A7"/>
<rect width="60.871" height="81.6073" rx="17" transform="matrix(-0.707107 0.707107 0.707107 0.707107 372.923 153.653)" fill="#153449"/>
<rect width="60.871" height="50.8373" rx="17" transform="matrix(-0.707107 0.707107 0.707107 0.707107 394.681 175.41)" fill="black" fill-opacity="0.35"/>
<rect width="60.871" height="33.4456" rx="16.7228" transform="matrix(-0.707107 0.707107 0.707107 0.707107 406.978 187.707)" fill="black"/>
<rect x="200.754" y="203.79" width="10.7026" height="39.4658" rx="5.35129" transform="rotate(-45 200.754 203.79)" fill="#A7A7A7"/>
<rect x="200.754" y="203.79" width="10.7026" height="39.4658" rx="5.35129" transform="rotate(-45 200.754 203.79)" fill="#A7A7A7"/>
<path d="M643.873 258.687C652.692 246.651 678.331 227.403 710.33 246.702C678.829 269.488 663.379 274.665 659.592 274.406L653.756 268.569L647.919 262.733L643.873 258.687Z" fill="#3E3E3E"/>
<path d="M761.534 141.025C749.498 149.845 730.251 175.483 749.55 207.482C772.335 175.981 777.513 160.532 777.253 156.745L771.417 150.908L765.58 145.072L761.534 141.025Z" fill="#3E3E3E"/>
<g filter="url(#filter7_i_532_578)">
<path d="M664.416 285.457C682.314 276.69 722.5 254.766 740.056 237.21C757.612 219.654 779.536 179.468 788.303 161.57L775.852 149.119C772.532 163.853 758.919 200.292 731.029 228.183C703.138 256.073 666.699 269.686 651.965 273.006L664.416 285.457Z" fill="#FFB800"/>
</g>
<rect x="634.845" y="266.468" width="13.6465" height="12.3259" transform="rotate(-45 634.845 266.468)" fill="#153449"/>
<rect x="642.938" y="274.562" width="13.6465" height="7.48355" transform="rotate(-45 642.938 274.562)" fill="#153449"/>
<rect x="647.607" y="279.23" width="13.6465" height="12.3259" transform="rotate(-45 647.607 279.23)" fill="#FFB800"/>
<rect x="655.7" y="287.324" width="13.6465" height="7.48355" transform="rotate(-45 655.7 287.324)" fill="#FFB800"/>
<rect x="628.931" y="267.403" width="7.04334" height="42.7003" rx="3.52167" transform="rotate(-45 628.931 267.403)" fill="#3E3E3E"/>
<rect width="13.6465" height="12.3259" transform="matrix(-0.707107 0.707107 0.707107 0.707107 769.314 131.997)" fill="#153449"/>
<rect width="13.6465" height="7.48355" transform="matrix(-0.707107 0.707107 0.707107 0.707107 777.409 140.092)" fill="#153449"/>
<rect width="13.6465" height="12.3259" transform="matrix(-0.707107 0.707107 0.707107 0.707107 782.078 144.76)" fill="#FFB800"/>
<rect width="13.6465" height="7.48355" transform="matrix(-0.707107 0.707107 0.707107 0.707107 790.171 152.854)" fill="#FFB800"/>
<rect width="7.04334" height="42.7003" rx="3.52167" transform="matrix(-0.707107 0.707107 0.707107 0.707107 770.249 126.084)" fill="#3E3E3E"/>
<rect x="711.107" y="228.182" width="28.1734" height="17.1681" transform="rotate(-45 711.107 228.182)" fill="black"/>
<rect x="628.164" y="178.12" width="28.9872" height="5.72272" rx="2.86136" transform="rotate(-56.9487 628.164 178.12)" fill="#3E3E3E"/>
<rect x="627.914" y="217.137" width="48.775" height="5.72272" rx="2.86136" transform="rotate(-39.0748 627.914 217.137)" fill="#3E3E3E"/>
<rect x="626.288" y="207.774" width="57.2272" height="5.72272" rx="2.86136" transform="rotate(-86.7544 626.288 207.774)" fill="#3E3E3E"/>
<rect x="653.21" y="190.207" width="18.4888" height="14.0867" rx="6" transform="rotate(-45 653.21 190.207)" fill="#153449"/>
<rect x="624.404" y="213.366" width="57.2272" height="5.72272" rx="2.86136" transform="rotate(-43.6431 624.404 213.366)" fill="#3E3E3E"/>
<rect x="620.944" y="212.724" width="57.2272" height="5.72272" rx="2.86136" transform="rotate(-56.6911 620.944 212.724)" fill="#3E3E3E"/>
<rect width="28.9872" height="5.72272" rx="2.86136" transform="matrix(-0.838183 0.54539 0.54539 0.838183 680.809 125.474)" fill="#3E3E3E"/>
<rect width="48.775" height="5.72272" rx="2.86136" transform="matrix(-0.630335 0.776323 0.776323 0.630335 719.827 125.224)" fill="#3E3E3E"/>
<rect width="57.2272" height="5.72272" rx="2.86136" transform="matrix(-0.998396 0.0566161 0.0566161 0.998396 710.462 123.599)" fill="#3E3E3E"/>
<rect width="18.4888" height="14.0867" rx="6" transform="matrix(-0.707107 0.707107 0.707107 0.707107 692.895 150.521)" fill="#153449"/>
<rect width="57.2272" height="5.72272" rx="2.86136" transform="matrix(-0.690165 0.723652 0.723652 0.690165 716.055 121.715)" fill="#3E3E3E"/>
<rect width="57.2272" height="5.72272" rx="2.86136" transform="matrix(-0.835722 0.549153 0.549153 0.835722 715.414 118.254)" fill="#3E3E3E"/>
<rect x="654.222" y="170.052" width="28.9872" height="5.72272" rx="2.86136" transform="rotate(-81.587 654.222 170.052)" fill="#3E3E3E"/>
<g filter="url(#filter8_i_532_578)">
<path d="M567.921 170.286L620.526 117.68L673.132 65.075L684.493 76.4366L671.731 89.1988C661.459 99.4709 646.705 119.206 653.677 150.831C622.052 143.859 602.317 158.613 592.045 168.885L579.282 181.647L567.921 170.286Z" fill="#153449"/>
</g>
<rect x="556.093" y="160.948" width="152.312" height="21.13" transform="rotate(-45 556.093 160.948)" fill="#3E3E3E"/>
<rect x="439.986" y="5.62057" width="95.5253" height="27.293" transform="rotate(-45 439.986 5.62057)" fill="#FFB800"/>
<rect x="450.881" y="16.5152" width="95.5253" height="3.96188" transform="rotate(-45 450.881 16.5152)" fill="#3E3E3E"/>
<rect x="439.986" y="5.62057" width="95.5253" height="3.96188" transform="rotate(-45 439.986 5.62057)" fill="#3E3E3E"/>
<rect x="487.922" y="8.11023" width="33.0157" height="20.2496" transform="rotate(-45 487.922 8.11023)" fill="#3E3E3E"/>
<path fill-rule="evenodd" clip-rule="evenodd" d="M468.491 29.411L481.075 29.5445L492.303 40.7725L489.19 43.8853L479.252 33.9466L463.955 33.9466L468.491 29.411Z" fill="#3E3E3E"/>
<rect x="470.803" y="-28.3091" width="5.72272" height="43.5807" rx="2.86136" transform="rotate(-45 470.803 -28.3091)" fill="#3E3E3E"/>
<rect x="436.562" y="5.93134" width="5.72272" height="40.4992" rx="2.86136" transform="rotate(-45 436.562 5.93134)" fill="#3E3E3E"/>
<g filter="url(#filter9_i_532_578)">
<path d="M483.044 36.0253L510.903 8.1662L538.762 -19.6929L648.487 54.2349C654.038 57.607 663.428 64.8182 662.338 74.9346C661.166 85.8195 655.49 109.175 633.701 130.964C611.912 152.753 588.556 158.429 577.672 159.601C567.555 160.691 560.344 151.301 556.972 145.75L483.044 36.0253Z" fill="black"/>
</g>
<path d="M540.996 122.505L508.312 71.7671C518.646 68.9033 524.758 78.3557 526.522 83.4399L540.996 122.505Z" fill="#153449"/>
<path d="M625.599 37.9016L574.861 5.21779C571.997 15.5521 581.449 21.6635 586.534 23.4274L625.599 37.9016Z" fill="#153449"/>
<g filter="url(#filter10_i_532_578)">
<path d="M483.41 29.526C482.14 28.3745 482.091 26.3942 483.303 25.1817L488.292 20.193C489.464 19.0214 491.363 19.0214 492.535 20.193L545.255 72.9136C546.427 74.0852 546.427 75.9847 545.255 77.1562L542.86 79.5521C541.728 80.6832 539.909 80.7279 538.724 79.6538L483.41 29.526Z" fill="#153449"/>
</g>
<g filter="url(#filter11_i_532_578)">
<path d="M532.062 -19.1257C530.911 -20.3962 528.931 -20.4449 527.718 -19.2324L522.729 -14.2437C521.558 -13.0721 521.558 -11.1726 522.729 -10.0011L575.45 42.7196C576.622 43.8912 578.521 43.8912 579.693 42.7196L582.089 40.3237C583.22 39.1926 583.264 37.3731 582.19 36.1878L532.062 -19.1257Z" fill="#153449"/>
</g>
<rect x="469.007" y="53.1745" width="23.649" height="5.72272" rx="2.86136" transform="rotate(-28.67 469.007 53.1745)" fill="#3E3E3E"/>
<rect x="471.781" y="55.3808" width="23.649" height="5.72272" rx="2.86136" transform="rotate(-28.67 471.781 55.3808)" fill="#3E3E3E"/>
<rect x="474.583" y="74.3687" width="41.4556" height="5.72272" rx="2.86136" transform="rotate(-28.67 474.583 74.3687)" fill="#3E3E3E"/>
<rect x="473.058" y="74.0259" width="41.4556" height="5.72272" rx="2.86136" transform="rotate(-35.0735 473.058 74.0259)" fill="#3E3E3E"/>
<rect x="466.684" y="53.166" width="57.2272" height="5.72272" rx="2.86136" transform="rotate(-40.3926 466.684 53.166)" fill="#3E3E3E"/>
<rect x="467.134" y="52.5596" width="69.2917" height="5.72272" rx="2.86136" transform="rotate(3.38717 467.134 52.5596)" fill="#3E3E3E"/>
<rect width="41.4556" height="5.72272" rx="2.86136" transform="matrix(-0.479764 0.877397 0.877397 0.479764 577.394 -28.4432)" fill="#3E3E3E"/>
<rect width="41.4556" height="5.72272" rx="2.86136" transform="matrix(-0.574626 0.818416 0.818416 0.574626 577.053 -29.9685)" fill="#3E3E3E"/>
<rect width="57.2272" height="5.72272" rx="2.86136" transform="matrix(-0.648022 0.761621 0.761621 0.648022 556.192 -36.3428)" fill="#3E3E3E"/>
<rect width="69.2917" height="5.72272" rx="2.86136" transform="matrix(0.0590829 0.998253 0.998253 -0.0590829 555.586 -35.8932)" fill="#3E3E3E"/>
<path d="M506.603 24.916L507.226 4.37188L527.77 3.74934C528.963 3.69746 532.034 3.96723 534.774 5.46135C538.198 7.32901 563.567 20.8695 572.438 25.0717C581.309 29.2739 628.779 36.2776 644.654 51.53C660.529 66.7825 640.296 81.4124 636.872 84.8364C633.448 88.2605 627.845 91.0619 632.514 98.5325C636.249 104.509 652.747 124.887 660.529 134.329C661.774 135.47 664.482 138.656 665.353 142.267C666.225 145.877 669.763 149.478 671.423 150.827L724.34 203.743C725.326 204.729 727.702 206.856 729.32 207.479C731.344 208.257 731.966 207.946 732.744 208.724L741.927 217.906C742.083 218.166 742.207 218.871 741.678 219.401C741.149 219.93 740.526 219.93 740.215 219.618L732.278 211.681C731.759 211.162 730.41 210.436 729.165 211.681C727.608 213.237 728.231 214.482 729.165 215.416L733.211 219.463C733.99 220.241 734.768 221.642 733.211 223.198L729.632 226.778L726.052 230.357C724.496 231.914 723.095 231.136 722.317 230.357L718.27 226.311C717.336 225.377 716.091 224.754 714.535 226.311C713.29 227.556 714.016 228.905 714.535 229.424L722.472 237.361C722.784 237.672 722.784 238.295 722.255 238.824C721.725 239.353 721.02 239.229 720.76 239.073L711.578 229.89C710.8 229.112 711.111 228.49 710.333 226.466C709.71 224.848 707.583 222.472 706.597 221.486L653.681 168.569C652.332 166.909 648.731 163.371 645.121 162.499C641.51 161.628 638.324 158.92 637.183 157.675C627.741 149.893 607.363 133.395 601.387 129.66C593.916 124.991 591.114 130.594 587.69 134.018C584.266 137.442 569.636 157.675 554.384 141.8C539.132 125.925 532.128 78.4553 527.926 69.5839C523.723 60.7126 510.183 35.3437 508.315 31.9197C506.821 29.1805 506.551 26.1092 506.603 24.916Z" fill="#FFB800"/>
<path d="M504.441 8.30354L500.811 0.954871C499.964 -0.759612 501.775 -2.57097 503.489 -1.72406L510.838 1.90601C511.02 1.99609 511.188 2.11348 511.335 2.2541L554.15 43.2207C554.303 43.367 554.431 43.5365 554.531 43.723L560.922 55.6812C561.855 57.4254 559.96 59.32 558.216 58.3878L546.258 51.9964C546.071 51.8967 545.902 51.768 545.755 51.6152L504.789 8.80044C504.648 8.65347 504.531 8.48591 504.441 8.30354Z" fill="#3E3E3E"/>
<rect x="553.603" y="75.658" width="35.2167" height="5.72272" rx="2.86136" transform="rotate(-45 553.603 75.658)" fill="#3E3E3E"/>
<path d="M559.682 68.0256L556.909 61.3693C556.038 59.2794 556.514 56.8705 558.115 55.2695C559.716 53.6686 562.125 53.192 564.215 54.0628L570.871 56.8363C571.595 57.1377 572.252 57.5779 572.806 58.1321L582.821 68.147C585.164 70.4901 585.164 74.2891 582.821 76.6323L581.15 78.3039L579.478 79.9754C577.135 82.3186 573.336 82.3186 570.993 79.9754L560.978 69.9606C560.424 69.4064 559.984 68.749 559.682 68.0256Z" fill="#FFB800"/>
<path d="M570.776 67.513L570.352 67.9368L569.929 68.3606C569.153 69.1361 568.937 70.3102 569.387 71.3106L571.896 76.8949C572.654 78.5816 574.865 78.9876 576.173 77.6801L578.134 75.7187L580.096 73.7572C581.403 72.4497 580.997 70.2381 579.31 69.4803L573.726 66.9714C572.726 66.5219 571.552 66.7375 570.776 67.513Z" fill="#3E3E3E"/>
<rect x="550.49" y="63.8283" width="22.8909" height="5.72272" rx="2.86136" transform="rotate(-45 550.49 63.8283)" fill="#3E3E3E"/>
<rect x="556.093" y="50.1323" width="19.3692" height="4.40209" rx="2.20105" transform="rotate(45 556.093 50.1323)" fill="#3E3E3E"/>
<g filter="url(#filter12_i_532_578)">
<path d="M552.202 157.056L557.182 162.036C556.56 159.338 556.467 152.791 561.073 148.184L583.018 126.24C585.457 123.075 593.82 119.236 607.765 129.197C625.196 141.648 625.819 140.091 627.997 137.912L640.76 125.15C642.939 122.971 644.495 122.349 632.044 104.917C622.083 90.9721 625.922 82.6092 629.087 80.1709L651.032 58.226C655.639 53.6191 662.186 53.7125 664.884 54.335L659.903 49.3547C657.776 48.1614 652.028 47.2691 646.051 53.2456L556.093 143.204C550.117 149.18 551.009 154.929 552.202 157.056Z" fill="#FFB800"/>
</g>
<path d="M607.783 129.527C593.838 119.567 585.475 123.406 583.036 126.57L579.146 130.461L578.99 130.306C582.155 126.207 590.383 118.353 597.978 119.722C607.472 121.434 610.429 123.769 613.386 126.726C616.343 129.683 620.701 134.352 624.436 130.617L635.019 120.034C638.613 116.44 634.427 112.269 631.471 109.325C631.355 109.209 631.24 109.095 631.128 108.983C628.171 106.026 625.837 103.069 624.125 93.5752C622.755 85.9801 630.61 77.7521 634.708 74.5874L634.864 74.7431L629.105 80.5016C625.941 82.94 622.101 91.3029 632.062 105.248C644.513 122.679 642.957 123.302 640.778 125.481L628.016 138.243C625.837 140.422 625.214 141.978 607.783 129.527Z" fill="#3E3E3E"/>
<path d="M578.816 105.23L593.446 90.5999L608.076 75.9699L629.554 104.607L618.504 115.657L607.454 126.708L578.816 105.23Z" fill="#3E3E3E"/>
<g filter="url(#filter13_i_532_578)">
<path d="M568.89 117.024C564.656 112.293 552.236 89.4761 552.236 89.4761L566.747 106.405L570.913 111.265C572.314 112.666 574.804 114.285 578.539 114.534C583.208 114.845 593.48 113.289 604.686 102.083C615.892 90.8768 617.448 80.6048 617.137 75.9356C616.888 72.2003 615.269 69.7101 613.869 68.3094L609.008 64.1431L592.08 49.6329C592.08 49.6329 614.896 62.0528 619.627 66.2861C625.542 71.5778 626.475 75.9356 620.561 86.2077C614.647 96.4798 610.912 105.195 617.604 111.888L629.121 123.405L627.565 124.961L626.008 126.518L614.491 115.001C607.799 108.308 599.083 112.044 588.811 117.958C578.539 123.872 574.181 122.938 568.89 117.024Z" fill="#3E3E3E"/>
</g>
<rect x="573.835" y="99.6262" width="40.059" height="7.92376" transform="rotate(-45 573.835 99.6262)" fill="#FFB800"/>
<rect width="40.059" height="3.96188" transform="matrix(0.707107 -0.707107 -0.707107 -0.707107 573.835 99.6262)" fill="#3E3E3E"/>
<path d="M549.556 88.4208L556.404 81.5727L576.921 102.09C578.483 103.652 578.483 106.185 576.921 107.747L575.73 108.938C574.168 110.5 571.635 110.5 570.073 108.938L549.556 88.4208Z" fill="#FFB800"/>
<path d="M591.268 46.7095L584.42 53.5575L604.937 74.0747C606.499 75.6368 609.031 75.6368 610.594 74.0747L611.785 72.8835C613.347 71.3214 613.347 68.7888 611.785 67.2267L591.268 46.7095Z" fill="#FFB800"/>
<rect x="441.543" y="70.0553" width="36.9776" height="49.3034" rx="17" transform="rotate(-45 441.543 70.0553)" fill="#FFB800"/>
<rect x="431.583" y="73.7907" width="42.7003" height="58.1076" rx="17" transform="rotate(-45 431.583 73.7907)" fill="#3E3E3E"/>
<rect x="436.563" y="75.0355" width="40.059" height="53.7055" rx="17" transform="rotate(-45 436.563 75.0355)" fill="#153449"/>
<rect x="450.883" y="89.3539" width="40.059" height="33.4559" rx="16.7279" transform="rotate(-45 450.883 89.3539)" fill="black" fill-opacity="0.35"/>
<rect x="458.976" y="97.4472" width="40.059" height="22.0105" rx="11.0052" transform="rotate(-45 458.976 97.4472)" fill="black"/>
<rect width="42.7003" height="58.1076" rx="17" transform="matrix(-0.707107 0.707107 0.707107 0.707107 576.637 -71.2632)" fill="#3E3E3E"/>
<rect width="40.059" height="53.7055" rx="17" transform="matrix(-0.707107 0.707107 0.707107 0.707107 577.881 -66.283)" fill="#153449"/>
<rect width="40.059" height="33.4559" rx="16.7279" transform="matrix(-0.707107 0.707107 0.707107 0.707107 592.2 -51.9647)" fill="black" fill-opacity="0.35"/>
<rect width="40.059" height="22.0105" rx="11.0052" transform="matrix(-0.707107 0.707107 0.707107 0.707107 600.294 -43.8704)" fill="black"/>
<rect x="590.021" y="218.534" width="36.9776" height="49.3034" rx="17" transform="rotate(-45 590.021 218.534)" fill="#FFB800"/>
<rect x="580.062" y="222.27" width="42.7003" height="58.1076" rx="17" transform="rotate(-45 580.062 222.27)" fill="#3E3E3E"/>
<rect x="585.041" y="223.514" width="40.059" height="53.7055" rx="17" transform="rotate(-45 585.041 223.514)" fill="#153449"/>
<rect x="599.359" y="237.833" width="40.059" height="33.4559" rx="16.7279" transform="rotate(-45 599.359 237.833)" fill="black" fill-opacity="0.35"/>
<rect x="607.453" y="245.926" width="40.059" height="22.0105" rx="11.0052" transform="rotate(-45 607.453 245.926)" fill="black"/>
<rect width="36.9776" height="49.3034" rx="17" transform="matrix(-0.707107 0.707107 0.707107 0.707107 721.38 87.176)" fill="#FFB800"/>
<rect width="42.7003" height="58.1076" rx="17" transform="matrix(-0.707107 0.707107 0.707107 0.707107 725.115 77.2154)" fill="#3E3E3E"/>
<rect width="40.059" height="53.7055" rx="17" transform="matrix(-0.707107 0.707107 0.707107 0.707107 726.36 82.1957)" fill="#153449"/>
<rect width="40.059" height="33.4559" rx="16.7279" transform="matrix(-0.707107 0.707107 0.707107 0.707107 740.679 96.5141)" fill="black" fill-opacity="0.35"/>
<rect width="40.059" height="22.0105" rx="11.0052" transform="matrix(-0.707107 0.707107 0.707107 0.707107 748.771 104.607)" fill="black"/>
<rect x="613.056" y="115.189" width="7.04334" height="25.9723" rx="3.52167" transform="rotate(-45 613.056 115.189)" fill="#3E3E3E"/>
<rect x="613.056" y="115.189" width="7.04334" height="25.9723" rx="3.52167" transform="rotate(-45 613.056 115.189)" fill="#3E3E3E"/>
<defs>
<filter id="filter0_i_532_578" x="259.878" y="255.346" width="207.171" height="207.171" filterUnits="userSpaceOnUse" color-interpolation-filters="sRGB">
<feFlood flood-opacity="0" result="BackgroundImageFix"/>
<feBlend mode="normal" in="SourceGraphic" in2="BackgroundImageFix" result="shape"/>
<feColorMatrix in="SourceAlpha" type="matrix" values="0 0 0 0 0 0 0 0 0 0 0 0 0 0 0 0 0 0 127 0" result="hardAlpha"/>
<feOffset dy="-11"/>
<feComposite in2="hardAlpha" operator="arithmetic" k2="-1" k3="1"/>
<feColorMatrix type="matrix" values="0 0 0 0 1 0 0 0 0 1 0 0 0 0 0.941176 0 0 0 1 0"/>
<feBlend mode="normal" in2="shape" result="effect1_innerShadow_532_578"/>
</filter>
<filter id="filter1_i_532_578" x="132.17" y="127.638" width="177.136" height="177.136" filterUnits="userSpaceOnUse" color-interpolation-filters="sRGB">
<feFlood flood-opacity="0" result="BackgroundImageFix"/>
<feBlend mode="normal" in="SourceGraphic" in2="BackgroundImageFix" result="shape"/>
<feColorMatrix in="SourceAlpha" type="matrix" values="0 0 0 0 0 0 0 0 0 0 0 0 0 0 0 0 0 0 127 0" result="hardAlpha"/>
<feOffset dy="-13"/>
<feComposite in2="hardAlpha" operator="arithmetic" k2="-1" k3="1"/>
<feColorMatrix type="matrix" values="0 0 0 0 0 0 0 0 0 0 0 0 0 0 0 0 0 0 1 0"/>
<feBlend mode="normal" in2="shape" result="effect1_innerShadow_532_578"/>
</filter>
<filter id="filter2_i_532_578" x="3.19629" y="-1.1693" width="272.575" height="272.576" filterUnits="userSpaceOnUse" color-interpolation-filters="sRGB">
<feFlood flood-opacity="0" result="BackgroundImageFix"/>
<feBlend mode="normal" in="SourceGraphic" in2="BackgroundImageFix" result="shape"/>
<feColorMatrix in="SourceAlpha" type="matrix" values="0 0 0 0 0 0 0 0 0 0 0 0 0 0 0 0 0 0 127 0" result="hardAlpha"/>
<feOffset dy="-10"/>
<feComposite in2="hardAlpha" operator="arithmetic" k2="-1" k3="1"/>
<feColorMatrix type="matrix" values="0 0 0 0 1 0 0 0 0 1 0 0 0 0 0.941176 0 0 0 1 0"/>
<feBlend mode="normal" in2="shape" result="effect1_innerShadow_532_578"/>
</filter>
<filter id="filter3_i_532_578" x="1.55469" y="57.4576" width="98.1553" height="94.1069" filterUnits="userSpaceOnUse" color-interpolation-filters="sRGB">
<feFlood flood-opacity="0" result="BackgroundImageFix"/>
<feBlend mode="normal" in="SourceGraphic" in2="BackgroundImageFix" result="shape"/>
<feColorMatrix in="SourceAlpha" type="matrix" values="0 0 0 0 0 0 0 0 0 0 0 0 0 0 0 0 0 0 127 0" result="hardAlpha"/>
<feOffset dy="9"/>
<feComposite in2="hardAlpha" operator="arithmetic" k2="-1" k3="1"/>
<feColorMatrix type="matrix" values="0 0 0 0 1 0 0 0 0 1 0 0 0 0 0.941176 0 0 0 1 0"/>
<feBlend mode="normal" in2="shape" result="effect1_innerShadow_532_578"/>
</filter>
<filter id="filter4_i_532_578" x="61.5186" y="-2.50589" width="94.1074" height="98.1552" filterUnits="userSpaceOnUse" color-interpolation-filters="sRGB">
<feFlood flood-opacity="0" result="BackgroundImageFix"/>
<feBlend mode="normal" in="SourceGraphic" in2="BackgroundImageFix" result="shape"/>
<feColorMatrix in="SourceAlpha" type="matrix" values="0 0 0 0 0 0 0 0 0 0 0 0 0 0 0 0 0 0 127 0" result="hardAlpha"/>
<feOffset dy="9"/>
<feComposite in2="hardAlpha" operator="arithmetic" k2="-1" k3="1"/>
<feColorMatrix type="matrix" values="0 0 0 0 1 0 0 0 0 1 0 0 0 0 0.941176 0 0 0 1 0"/>
<feBlend mode="normal" in2="shape" result="effect1_innerShadow_532_578"/>
</filter>
<filter id="filter5_i_532_578" x="106.963" y="102.43" width="172.545" height="172.545" filterUnits="userSpaceOnUse" color-interpolation-filters="sRGB">
<feFlood flood-opacity="0" result="BackgroundImageFix"/>
<feBlend mode="normal" in="SourceGraphic" in2="BackgroundImageFix" result="shape"/>
<feColorMatrix in="SourceAlpha" type="matrix" values="0 0 0 0 0 0 0 0 0 0 0 0 0 0 0 0 0 0 127 0" result="hardAlpha"/>
<feOffset dy="4"/>
<feComposite in2="hardAlpha" operator="arithmetic" k2="-1" k3="1"/>
<feColorMatrix type="matrix" values="0 0 0 0 0 0 0 0 0 0 0 0 0 0 0 0 0 0 0.25 0"/>
<feBlend mode="normal" in2="shape" result="effect1_innerShadow_532_578"/>
</filter>
<filter id="filter6_i_532_578" x="108.336" y="104.173" width="116.829" height="116.829" filterUnits="userSpaceOnUse" color-interpolation-filters="sRGB">
<feFlood flood-opacity="0" result="BackgroundImageFix"/>
<feBlend mode="normal" in="SourceGraphic" in2="BackgroundImageFix" result="shape"/>
<feColorMatrix in="SourceAlpha" type="matrix" values="0 0 0 0 0 0 0 0 0 0 0 0 0 0 0 0 0 0 127 0" result="hardAlpha"/>
<feOffset dy="-7"/>
<feComposite in2="hardAlpha" operator="arithmetic" k2="-1" k3="1"/>
<feColorMatrix type="matrix" values="0 0 0 0 0.377832 0 0 0 0 0.377832 0 0 0 0 0.377832 0 0 0 0.25 0"/>
<feBlend mode="normal" in2="shape" result="effect1_innerShadow_532_578"/>
</filter>
<filter id="filter7_i_532_578" x="651.965" y="149.119" width="136.338" height="136.338" filterUnits="userSpaceOnUse" color-interpolation-filters="sRGB">
<feFlood flood-opacity="0" result="BackgroundImageFix"/>
<feBlend mode="normal" in="SourceGraphic" in2="BackgroundImageFix" result="shape"/>
<feColorMatrix in="SourceAlpha" type="matrix" values="0 0 0 0 0 0 0 0 0 0 0 0 0 0 0 0 0 0 127 0" result="hardAlpha"/>
<feOffset dy="-11"/>
<feComposite in2="hardAlpha" operator="arithmetic" k2="-1" k3="1"/>
<feColorMatrix type="matrix" values="0 0 0 0 1 0 0 0 0 1 0 0 0 0 0.941176 0 0 0 1 0"/>
<feBlend mode="normal" in2="shape" result="effect1_innerShadow_532_578"/>
</filter>
<filter id="filter8_i_532_578" x="567.921" y="65.075" width="116.572" height="116.572" filterUnits="userSpaceOnUse" color-interpolation-filters="sRGB">
<feFlood flood-opacity="0" result="BackgroundImageFix"/>
<feBlend mode="normal" in="SourceGraphic" in2="BackgroundImageFix" result="shape"/>
<feColorMatrix in="SourceAlpha" type="matrix" values="0 0 0 0 0 0 0 0 0 0 0 0 0 0 0 0 0 0 127 0" result="hardAlpha"/>
<feOffset dy="-13"/>
<feComposite in2="hardAlpha" operator="arithmetic" k2="-1" k3="1"/>
<feColorMatrix type="matrix" values="0 0 0 0 0 0 0 0 0 0 0 0 0 0 0 0 0 0 1 0"/>
<feBlend mode="normal" in2="shape" result="effect1_innerShadow_532_578"/>
</filter>
<filter id="filter9_i_532_578" x="483.044" y="-19.6929" width="179.382" height="179.381" filterUnits="userSpaceOnUse" color-interpolation-filters="sRGB">
<feFlood flood-opacity="0" result="BackgroundImageFix"/>
<feBlend mode="normal" in="SourceGraphic" in2="BackgroundImageFix" result="shape"/>
<feColorMatrix in="SourceAlpha" type="matrix" values="0 0 0 0 0 0 0 0 0 0 0 0 0 0 0 0 0 0 127 0" result="hardAlpha"/>
<feOffset dy="-10"/>
<feComposite in2="hardAlpha" operator="arithmetic" k2="-1" k3="1"/>
<feColorMatrix type="matrix" values="0 0 0 0 1 0 0 0 0 1 0 0 0 0 0.941176 0 0 0 1 0"/>
<feBlend mode="normal" in2="shape" result="effect1_innerShadow_532_578"/>
</filter>
<filter id="filter10_i_532_578" x="482.425" y="19.3143" width="63.709" height="61.1165" filterUnits="userSpaceOnUse" color-interpolation-filters="sRGB">
<feFlood flood-opacity="0" result="BackgroundImageFix"/>
<feBlend mode="normal" in="SourceGraphic" in2="BackgroundImageFix" result="shape"/>
<feColorMatrix in="SourceAlpha" type="matrix" values="0 0 0 0 0 0 0 0 0 0 0 0 0 0 0 0 0 0 127 0" result="hardAlpha"/>
<feOffset dy="9"/>
<feComposite in2="hardAlpha" operator="arithmetic" k2="-1" k3="1"/>
<feColorMatrix type="matrix" values="0 0 0 0 1 0 0 0 0 1 0 0 0 0 0.941176 0 0 0 1 0"/>
<feBlend mode="normal" in2="shape" result="effect1_innerShadow_532_578"/>
</filter>
<filter id="filter11_i_532_578" x="521.851" y="-20.1111" width="61.1162" height="63.7094" filterUnits="userSpaceOnUse" color-interpolation-filters="sRGB">
<feFlood flood-opacity="0" result="BackgroundImageFix"/>
<feBlend mode="normal" in="SourceGraphic" in2="BackgroundImageFix" result="shape"/>
<feColorMatrix in="SourceAlpha" type="matrix" values="0 0 0 0 0 0 0 0 0 0 0 0 0 0 0 0 0 0 127 0" result="hardAlpha"/>
<feOffset dy="9"/>
<feComposite in2="hardAlpha" operator="arithmetic" k2="-1" k3="1"/>
<feColorMatrix type="matrix" values="0 0 0 0 1 0 0 0 0 1 0 0 0 0 0.941176 0 0 0 1 0"/>
<feBlend mode="normal" in2="shape" result="effect1_innerShadow_532_578"/>
</filter>
<filter id="filter12_i_532_578" x="551.332" y="48.4851" width="113.552" height="113.551" filterUnits="userSpaceOnUse" color-interpolation-filters="sRGB">
<feFlood flood-opacity="0" result="BackgroundImageFix"/>
<feBlend mode="normal" in="SourceGraphic" in2="BackgroundImageFix" result="shape"/>
<feColorMatrix in="SourceAlpha" type="matrix" values="0 0 0 0 0 0 0 0 0 0 0 0 0 0 0 0 0 0 127 0" result="hardAlpha"/>
<feOffset dy="4"/>
<feComposite in2="hardAlpha" operator="arithmetic" k2="-1" k3="1"/>
<feColorMatrix type="matrix" values="0 0 0 0 0 0 0 0 0 0 0 0 0 0 0 0 0 0 0.25 0"/>
<feBlend mode="normal" in2="shape" result="effect1_innerShadow_532_578"/>
</filter>
<filter id="filter13_i_532_578" x="552.236" y="49.6329" width="76.8848" height="76.8849" filterUnits="userSpaceOnUse" color-interpolation-filters="sRGB">
<feFlood flood-opacity="0" result="BackgroundImageFix"/>
<feBlend mode="normal" in="SourceGraphic" in2="BackgroundImageFix" result="shape"/>
<feColorMatrix in="SourceAlpha" type="matrix" values="0 0 0 0 0 0 0 0 0 0 0 0 0 0 0 0 0 0 127 0" result="hardAlpha"/>
<feOffset dy="-7"/>
<feComposite in2="hardAlpha" operator="arithmetic" k2="-1" k3="1"/>
<feColorMatrix type="matrix" values="0 0 0 0 0.377832 0 0 0 0 0.377832 0 0 0 0 0.377832 0 0 0 0.25 0"/>
<feBlend mode="normal" in2="shape" result="effect1_innerShadow_532_578"/>
</filter>
</defs>
</svg>
