<svg width="99" height="25" viewBox="0 0 99 25" fill="none" xmlns="http://www.w3.org/2000/svg">
<path d="M0 0H6.15264V6.15264H0V0Z" fill="black"/>
<path d="M6.15283 0H12.3055V6.15264H6.15283V0Z" fill="#FFF8EA"/>
<path d="M12.3052 0H18.4578V6.15264H12.3052V0Z" fill="black"/>
<path d="M18.458 0H24.6106V6.15264H18.458V0Z" fill="#FFF8EA"/>
<path d="M24.6104 0H30.763V6.15264H24.6104V0Z" fill="black"/>
<path d="M30.7632 0H36.9158V6.15264H30.7632V0Z" fill="#FFF8EA"/>
<path d="M36.916 0H43.0687V6.15264H36.916V0Z" fill="black"/>
<path d="M43.0684 0H49.221V6.15264H43.0684V0Z" fill="#FFF8EA"/>
<path d="M49.2212 0H55.3738V6.15264H49.2212V0Z" fill="black"/>
<path d="M55.3735 0H61.5262V6.15264H55.3735V0Z" fill="#FFF8EA"/>
<path d="M61.5264 0H67.679V6.15264H61.5264V0Z" fill="black"/>
<path d="M67.6792 0H73.8318V6.15264H67.6792V0Z" fill="#FFF8EA"/>
<path d="M73.8315 0H79.9842V6.15264H73.8315V0Z" fill="black"/>
<path d="M79.9844 0H86.137V6.15264H79.9844V0Z" fill="#FFF8EA"/>
<path d="M86.1372 0H92.2898V6.15264H86.1372V0Z" fill="black"/>
<path d="M92.2896 0H98.4422V6.15264H92.2896V0Z" fill="#FFF8EA"/>
<path d="M0 6.15265H6.15264V12.3053H0V6.15265Z" fill="#FFF8EA"/>
<path d="M6.15283 6.15265H12.3055V12.3053H6.15283V6.15265Z" fill="black"/>
<path d="M12.3052 6.15265H18.4578V12.3053H12.3052V6.15265Z" fill="#FFF8EA"/>
<path d="M18.458 6.15265H24.6106V12.3053H18.458V6.15265Z" fill="black"/>
<path d="M24.6104 6.15265H30.763V12.3053H24.6104V6.15265Z" fill="#FFF8EA"/>
<path d="M30.7632 6.15265H36.9158V12.3053H30.7632V6.15265Z" fill="black"/>
<path d="M36.916 6.15265H43.0687V12.3053H36.916V6.15265Z" fill="#FFF8EA"/>
<path d="M43.0684 6.15265H49.221V12.3053H43.0684V6.15265Z" fill="black"/>
<path d="M49.2212 6.15265H55.3738V12.3053H49.2212V6.15265Z" fill="#FFF8EA"/>
<path d="M55.3735 6.15265H61.5262V12.3053H55.3735V6.15265Z" fill="black"/>
<path d="M61.5264 6.15265H67.679V12.3053H61.5264V6.15265Z" fill="#FFF8EA"/>
<path d="M67.6792 6.15265H73.8318V12.3053H67.6792V6.15265Z" fill="black"/>
<path d="M73.8315 6.15265H79.9842V12.3053H73.8315V6.15265Z" fill="#FFF8EA"/>
<path d="M79.9844 6.15265H86.137V12.3053H79.9844V6.15265Z" fill="black"/>
<path d="M86.1372 6.15265H92.2898V12.3053H86.1372V6.15265Z" fill="#FFF8EA"/>
<path d="M92.2896 6.15265H98.4422V12.3053H92.2896V6.15265Z" fill="black"/>
<path d="M0 12.3053H6.15264V18.4579H0V12.3053Z" fill="black"/>
<path d="M6.15283 12.3053H12.3055V18.4579H6.15283V12.3053Z" fill="#FFF8EA"/>
<path d="M12.3052 12.3053H18.4578V18.4579H12.3052V12.3053Z" fill="black"/>
<path d="M18.458 12.3053H24.6106V18.4579H18.458V12.3053Z" fill="#FFF8EA"/>
<path d="M24.6104 12.3053H30.763V18.4579H24.6104V12.3053Z" fill="black"/>
<path d="M30.7632 12.3053H36.9158V18.4579H30.7632V12.3053Z" fill="#FFF8EA"/>
<path d="M36.916 12.3053H43.0687V18.4579H36.916V12.3053Z" fill="black"/>
<path d="M43.0684 12.3053H49.221V18.4579H43.0684V12.3053Z" fill="#FFF8EA"/>
<path d="M49.2212 12.3053H55.3738V18.4579H49.2212V12.3053Z" fill="black"/>
<path d="M55.3735 12.3053H61.5262V18.4579H55.3735V12.3053Z" fill="#FFF8EA"/>
<path d="M61.5264 12.3053H67.679V18.4579H61.5264V12.3053Z" fill="black"/>
<path d="M67.6792 12.3053H73.8318V18.4579H67.6792V12.3053Z" fill="#FFF8EA"/>
<path d="M73.8315 12.3053H79.9842V18.4579H73.8315V12.3053Z" fill="black"/>
<path d="M79.9844 12.3053H86.137V18.4579H79.9844V12.3053Z" fill="#FFF8EA"/>
<path d="M86.1372 12.3053H92.2898V18.4579H86.1372V12.3053Z" fill="black"/>
<path d="M92.2896 12.3053H98.4422V18.4579H92.2896V12.3053Z" fill="#FFF8EA"/>
<path d="M0 18.4579H6.15264V24.6106H0V18.4579Z" fill="#FFF8EA"/>
<path d="M6.15283 18.4579H12.3055V24.6106H6.15283V18.4579Z" fill="black"/>
<path d="M12.3052 18.4579H18.4578V24.6106H12.3052V18.4579Z" fill="#FFF8EA"/>
<path d="M18.458 18.4579H24.6106V24.6106H18.458V18.4579Z" fill="black"/>
<path d="M24.6104 18.4579H30.763V24.6106H24.6104V18.4579Z" fill="#FFF8EA"/>
<path d="M30.7632 18.4579H36.9158V24.6106H30.7632V18.4579Z" fill="black"/>
<path d="M36.916 18.4579H43.0687V24.6106H36.916V18.4579Z" fill="#FFF8EA"/>
<path d="M43.0684 18.4579H49.221V24.6106H43.0684V18.4579Z" fill="black"/>
<path d="M49.2212 18.4579H55.3738V24.6106H49.2212V18.4579Z" fill="#FFF8EA"/>
<path d="M55.3735 18.4579H61.5262V24.6106H55.3735V18.4579Z" fill="black"/>
<path d="M61.5264 18.4579H67.679V24.6106H61.5264V18.4579Z" fill="#FFF8EA"/>
<path d="M67.6792 18.4579H73.8318V24.6106H67.6792V18.4579Z" fill="black"/>
<path d="M73.8315 18.4579H79.9842V24.6106H73.8315V18.4579Z" fill="#FFF8EA"/>
<path d="M79.9844 18.4579H86.137V24.6106H79.9844V18.4579Z" fill="black"/>
<path d="M86.1372 18.4579H92.2898V24.6106H86.1372V18.4579Z" fill="#FFF8EA"/>
<path d="M92.2896 18.4579H98.4422V24.6106H92.2896V18.4579Z" fill="black"/>
</svg>
