<svg width="767" height="728" viewBox="0 0 767 728" fill="none" xmlns="http://www.w3.org/2000/svg">
<path d="M486.88 -37.7546C369.143 -121.583 227.45 -117.725 134.248 -40.8638L97.8655 -4.77673C95.0072 43.3272 145.392 99.6035 171.958 131.344C198.524 163.085 207.281 181.269 254.277 219.882L331.479 270.575L440.058 322.231L522.479 344.576L569.029 339.242C643.768 234.272 621.639 58.1939 486.88 -37.7546Z" fill="#FD9006"/>
<path d="M165.795 -61.1533C165.795 -61.1533 252.007 57.9454 275.952 96.3702C299.896 134.795 292.399 151.685 274.068 189.085" stroke="white" stroke-width="21.4459"/>
<path d="M123.397 547.813C35.8088 454.664 -5.68063 370.273 -10.0008 281.824C-14.0994 232.845 2.79066 93.1149 99.5117 -7.87875L261.37 224.933L386.994 303.689L534.429 348.81L518.269 371.506L512.447 403.7L510.495 451.476C514.139 466.318 520.459 482.085 514.609 495.02L514.255 495.805C507.931 509.79 486.956 556.18 480.502 562.654C458.067 585.158 436.638 606.246 385.879 638.507C335.121 670.768 210.985 640.961 123.397 547.813Z" fill="#FD9006"/>
<path d="M199.307 546.28C75.2714 447.279 44.9831 363.723 -5.03955 214.812C-21.517 294.999 -9.79434 416.639 139.82 563.779C176.508 596.314 216.828 620.747 244.574 629.814C220.602 597.951 209.562 579.784 199.307 546.28Z" fill="white" stroke="white" stroke-width="0.268074"/>
<path d="M568.019 340.661C584.179 317.965 597.284 284.546 597.284 284.546C679.854 3.45126 360.756 -178.857 170.242 -64.3974C10.6701 31.4718 -14.9463 222.72 -10.0006 281.823C-5.68037 370.272 35.809 454.664 123.397 547.812C210.985 640.961 336.445 668.876 387.203 636.615C437.961 604.354 464.327 585.339 481.826 560.762C499.325 536.186 525.112 478.984 512.947 466.047" stroke="#FD9006" stroke-width="2.68074"/>
<path d="M569.023 339.239C567.64 345.663 559.332 355.853 557.312 358.69C555.292 361.527 540.73 360.102 531.199 359.337C522.614 370.597 513.797 388.921 517.514 411.583C521.23 434.246 517.755 460.791 507.096 483.258C481.66 525.001 352.643 478.031 302.988 442.677L230.235 388.74C190.579 356.879 181.412 334.406 176.241 290.442C166.911 211.12 202.269 178.842 313.231 251.171C415.433 317.789 517.81 339.115 569.023 339.239Z" fill="black"/>
<path d="M531.199 359.337C540.73 360.102 555.292 361.527 557.312 358.69C559.332 355.853 567.64 345.663 569.023 339.239C517.81 339.115 415.433 317.789 313.231 251.171C202.269 178.842 166.911 211.12 176.241 290.442C181.412 334.406 190.579 356.879 230.235 388.74L302.988 442.677C352.643 478.031 481.66 525.001 507.096 483.258C517.755 460.791 521.23 434.246 517.514 411.583C513.797 388.921 522.614 370.597 531.199 359.337ZM531.199 359.337C524.779 358.406 518.408 357.34 512.098 356.154M512.098 356.154C404.271 335.89 314.415 280.707 299.091 271.03C282.871 260.788 272.139 251.84 241.147 238.325C196.594 225.842 196.64 255.801 203.176 294.657C209.713 333.513 226.951 354.337 243.365 370.299C263.231 384.443 290.183 403.633 317.128 422.818C383.745 463.806 412.746 471.662 459.928 477.464C505.344 480.002 509.463 437.916 506.387 412.212C503.312 386.509 504.417 366.713 512.098 356.154Z" stroke="black" stroke-width="1.34037"/>
<path d="M241.147 238.325C272.139 251.841 282.871 260.789 299.092 271.031C314.415 280.708 404.271 335.891 512.099 356.155C504.417 366.714 503.312 386.509 506.388 412.213C509.463 437.917 505.344 480.003 459.928 477.465C412.746 471.663 383.745 463.807 317.128 422.819L243.365 370.3C226.951 354.338 209.713 333.514 203.177 294.658C196.64 255.802 196.595 225.843 241.147 238.325Z" fill="#A49786" stroke="black" stroke-width="1.34037"/>
<path d="M262.471 283.434C250.714 272.926 263.719 305.699 204.958 268.137C232.049 290.137 245.494 301.273 263.764 335.658C274.135 355.175 283.965 359.748 311.2 380.12C325.385 390.22 333.896 396.28 338.776 410.442C356.206 424.991 360.96 427.945 387.607 440.935C416.17 454.859 441.406 456.852 472.843 450.32C472.573 443.245 482.942 436.135 478.687 433.105C474.431 430.075 473.592 410.238 489.774 402.521C490.248 399.367 490.939 397.435 494.415 393C490.276 373.365 491.394 366.269 498.818 359.796C436.805 352.436 318.372 303.997 308.249 303.202C298.126 302.408 274.227 293.942 262.471 283.434Z" fill="black" stroke="black" stroke-width="1.34037"/>
<path d="M216.896 131.278C193.896 57.6847 174.058 47.3365 146.743 55.6774C109.521 71.9275 100.669 108.377 89.3092 226.41C85.3599 292.002 108.704 334.274 220.573 420.338C332.443 506.402 470.38 561.861 505.729 512.212C541.079 462.564 601.973 304.984 601.973 304.984L600.883 297.795C599.495 300.426 595.892 302.29 590.841 305.608C562.731 324.072 392.191 260.363 269.813 186.056C244.193 170.499 227.509 162.635 216.896 131.278Z" fill="#D9D9D9" fill-opacity="0.31"/>
<path d="M599.114 287.985C601.64 292.739 602.07 295.547 600.883 297.795M600.883 297.795C599.495 300.426 595.892 302.29 590.841 305.608C562.731 324.072 392.191 260.363 269.813 186.056C244.193 170.499 227.509 162.635 216.896 131.278C193.896 57.6847 174.058 47.3365 146.743 55.6774C109.521 71.9275 100.669 108.377 89.3092 226.41C85.36 292.002 108.704 334.274 220.573 420.338C332.443 506.402 470.38 561.861 505.729 512.212C541.079 462.564 601.973 304.984 601.973 304.984L600.883 297.795Z" stroke="#8A8A8A" stroke-width="2.68074"/>
<path d="M171.958 131.346L125.51 70.4863L114.4 86.09L105.333 113.836L94.8923 170.532L89.3317 241.389L91.8056 270.94L102.575 297.846L118.61 326.364L126.111 333.843C106.014 296.019 85.2464 217.104 112.153 206.335C139.059 195.566 179.245 173.529 171.958 131.346Z" fill="#EFEFEF" fill-opacity="0.7"/>
<path d="M355.718 236.531L302.438 209.284L223.41 422.357L274.068 456.288L355.718 236.531Z" fill="#EFEFEF" fill-opacity="0.7"/>
<path d="M309.122 479.11L394.812 253.679L405.343 256.902L318.644 483.751L309.122 479.11Z" fill="#EFEFEF" fill-opacity="0.7"/>
<path d="M396.231 254.688L388.128 251.056L303.449 475.069L310.541 480.119L396.231 254.688Z" fill="#E2E2E2" fill-opacity="0.7"/>
<path d="M333.839 492.433L420.539 265.583L460.643 281.312L372.933 509.58L333.839 492.433Z" fill="#EFEFEF" fill-opacity="0.8"/>
<path d="M599.114 287.985C601.64 292.739 601.934 295.45 600.747 297.698M601.973 304.984C601.973 304.984 541.079 462.564 505.729 512.212C470.38 561.861 332.443 506.402 220.573 420.338C108.704 334.274 85.36 292.002 89.3092 226.41C100.669 108.377 109.521 71.9275 146.743 55.6774C154.752 53.2318 162.118 52.3929 169.11 54.2839M601.973 304.984C602.351 301.731 601.834 300.147 600.747 297.698M601.973 304.984C597.761 309.62 594.052 311.206 585.791 312.701C516.374 323.13 310.133 210.488 266.783 190.311C223.433 170.134 216.919 146.257 216.919 146.257C198.627 82.5513 184.894 63.2648 169.11 54.2839M600.747 297.698C599.359 300.329 595.892 302.29 590.841 305.608C562.731 324.072 392.191 260.363 269.813 186.056C269.311 185.751 268.814 185.45 268.319 185.151M169.11 54.2839C185.963 58.8421 200.64 79.2628 216.896 131.278C227.301 162.021 243.542 170.182 268.319 185.151M484.542 289.777L510.87 297.835L521.401 301.057L530.514 303.27L538.616 306.902L548.739 307.696L560.28 309.5L567.974 310.703L579.106 310.079L587.811 309.864L596.106 307.219L598.126 304.382L600.554 303.974L595.697 304.791L600.146 301.545L593.269 305.199M267.384 186.464L259.69 185.261L256.853 183.241L255.859 180.143M267.384 186.464L255.859 180.143M267.384 186.464L265.364 189.301M255.859 180.143L241.249 172.131L244.086 174.151L245.505 175.161L255.435 182.231L236.177 164.244L236.585 166.673L247.933 174.753L235.575 168.091L232.33 163.643L226.247 157.174L223.002 152.726L218.53 140.992L225.43 152.317L214.876 134.115L211.824 123.391L208.771 112.667L195.164 83.7405L191.51 76.8635M268.319 185.151L268.803 187.474L269.211 189.902L273.058 190.504L281.086 194.241L286.835 198.175" stroke="#8A8A8A" stroke-width="2.68074"/>
<path d="M179.436 123.844C164.375 144.996 141.666 154.668 125.214 142.954C108.762 131.24 107.634 104.597 122.695 83.4445C137.756 62.292 159.046 51.6105 175.498 63.3243C191.95 75.038 194.496 102.691 179.436 123.844Z" fill="#403738"/>
<path d="M165.438 110.978C160.662 117.741 154.831 122.683 149.073 125.086C143.337 127.479 137.773 127.33 133.242 124.131C128.682 120.911 126.258 115.372 126.185 108.836C126.111 102.303 128.401 94.8827 133.139 88.1725C137.933 81.3824 143.565 76.2881 149.115 73.7416C154.629 71.2119 159.958 71.2234 164.472 74.4106C169.046 77.6401 171.682 83.3501 171.962 90.0507C172.241 96.7393 170.157 104.294 165.438 110.978Z" fill="black" stroke="black" stroke-width="2.68074"/>
</svg>

