<svg width="793" height="469" viewBox="0 0 793 469" fill="none" xmlns="http://www.w3.org/2000/svg">
<g opacity="0.3">
<path opacity="0.1" d="M157.201 338.887C160.99 339.7 189.855 440.779 184.13 456.632C178.405 472.486 102.288 461.119 96.6451 443.396C91.0026 425.673 153.411 338.075 157.201 338.887Z" fill="url(#paint0_linear_77_3894)"/>
<path opacity="0.6" d="M183.525 296.466C185.852 299.566 289.719 283.383 301.71 271.538C313.702 259.692 271.463 195.357 253.007 197.667C234.552 199.977 181.199 293.367 183.525 296.466Z" fill="url(#paint1_linear_77_3894)"/>
<path opacity="0.6" fill-rule="evenodd" clip-rule="evenodd" d="M184.509 295.77C184.545 295.611 184.598 295.412 184.674 295.17C184.924 294.37 185.369 293.248 186 291.833C187.257 289.011 189.21 285.124 191.686 280.52C196.636 271.316 203.651 259.301 211.316 247.309C218.983 235.313 227.284 223.364 234.808 214.281C238.571 209.737 242.12 205.935 245.281 203.205C248.483 200.44 251.141 198.908 253.131 198.659C255.143 198.407 257.602 199.056 260.416 200.572C263.214 202.08 266.263 204.391 269.41 207.303C275.703 213.126 282.288 221.253 287.941 229.844C293.595 238.437 298.28 247.438 300.806 254.991C302.07 258.771 302.776 262.137 302.817 264.883C302.859 267.643 302.23 269.619 301.007 270.826C299.668 272.15 296.907 273.638 292.918 275.206C288.973 276.758 283.961 278.339 278.248 279.901C266.825 283.026 252.675 286.056 238.811 288.623C224.949 291.19 211.393 293.289 201.164 294.552C196.047 295.184 191.778 295.605 188.725 295.772C187.195 295.856 185.996 295.875 185.159 295.829C184.894 295.814 184.679 295.794 184.509 295.77ZM301.71 271.538C289.719 283.383 185.852 299.566 183.525 296.466C181.199 293.367 234.552 199.977 253.007 197.667C271.463 195.357 313.702 259.692 301.71 271.538Z" fill="url(#paint2_linear_77_3894)"/>
<path opacity="0.05" d="M177.495 332.155C180.43 330.385 269.431 389.559 276.992 405.313C284.553 421.067 229.067 460.418 213.1 450.41C197.132 440.401 174.56 333.926 177.495 332.155Z" fill="url(#paint3_linear_77_3894)"/>
<path opacity="0.2" d="M137.952 326.576C135.625 323.476 31.7588 339.659 19.7672 351.504C7.77557 363.35 50.0146 427.685 68.47 425.375C86.9254 423.065 140.278 329.675 137.952 326.576Z" fill="url(#paint4_linear_77_3894)"/>
<path opacity="0.5" d="M165.424 284.888C161.635 284.076 132.77 182.997 138.495 167.143C144.22 151.29 220.337 162.656 225.98 180.379C231.622 198.102 169.214 285.7 165.424 284.888Z" fill="url(#paint5_linear_77_3894)"/>
<path opacity="0.5" fill-rule="evenodd" clip-rule="evenodd" d="M165.644 283.703C165.774 283.604 165.932 283.472 166.12 283.302C166.741 282.739 167.573 281.865 168.593 280.699C170.628 278.374 173.338 274.971 176.479 270.792C182.758 262.439 190.724 251.032 198.397 239.045C206.072 227.054 213.438 214.507 218.529 203.868C221.076 198.546 223.04 193.73 224.192 189.716C225.359 185.649 225.636 182.594 225.027 180.683C224.412 178.751 222.792 176.79 220.235 174.872C217.693 172.963 214.317 171.165 210.353 169.529C202.429 166.258 192.289 163.688 182.119 162.159C171.948 160.629 161.812 160.15 153.896 161.025C149.934 161.462 146.581 162.233 144.072 163.347C141.549 164.467 140.019 165.867 139.435 167.483C138.795 169.254 138.602 172.384 138.851 176.663C139.097 180.895 139.763 186.108 140.741 191.95C142.694 203.63 145.877 217.747 149.361 231.409C152.844 245.07 156.623 258.256 159.765 268.072C161.337 272.983 162.745 277.035 163.874 279.877C164.44 281.301 164.926 282.397 165.318 283.138C165.443 283.372 165.551 283.559 165.644 283.703ZM138.495 167.143C132.77 182.997 161.635 284.076 165.424 284.888C169.214 285.7 231.622 198.102 225.98 180.379C220.337 162.656 144.22 151.29 138.495 167.143Z" fill="url(#paint6_linear_77_3894)"/>
<path d="M143.269 178.516L144.285 168.903C173.264 158.361 207.93 173.691 214.776 176.36C221.621 179.028 222.157 186.212 219.828 189.854C186.733 164.58 154.999 171.764 143.269 178.516Z" fill="white"/>
<path d="M294.169 252.797C266.427 206.317 251.144 204.182 246.971 208.925C247.197 206.789 249.328 202.565 256.047 202.757C264.445 202.997 276.005 222.364 294.169 252.797Z" fill="white"/>
<path d="M249.28 309.608C268.407 306.447 306.514 305.164 305.938 325.321C313.603 307.988 303.794 296.582 249.28 309.608Z" fill="white"/>
<path opacity="0.3" d="M135.554 305.328C135.931 301.921 44.8883 245.938 27.4159 245.68C9.94355 245.423 -2.51261 312.296 13.2694 322.595C29.0515 332.894 135.178 308.735 135.554 305.328Z" fill="url(#paint7_linear_77_3894)"/>
<path opacity="0.4" d="M146.731 293.202C143.796 294.972 54.7953 235.798 47.2342 220.044C39.6731 204.291 95.1588 164.939 111.127 174.948C127.095 184.956 149.667 291.432 146.731 293.202Z" fill="url(#paint8_linear_77_3894)"/>
<path opacity="0.4" fill-rule="evenodd" clip-rule="evenodd" d="M145.987 292.076C145.991 291.966 145.992 291.841 145.991 291.701C145.983 290.876 145.889 289.679 145.706 288.141C145.343 285.073 144.644 280.754 143.669 275.57C141.721 265.207 138.68 251.44 135.05 237.415C131.418 223.386 127.201 209.121 122.904 197.752C120.754 192.066 118.593 187.128 116.486 183.314C114.355 179.457 112.359 176.9 110.596 175.795C108.834 174.691 106.449 174.222 103.536 174.365C100.63 174.508 97.2788 175.257 93.6698 176.502C86.4528 178.991 78.3408 183.413 70.9346 188.652C63.5259 193.893 56.8845 199.909 52.5769 205.551C50.4219 208.374 48.8831 211.063 48.1057 213.479C47.3291 215.894 47.3378 217.949 48.1357 219.612C48.9989 221.41 51.1023 223.952 54.2625 227.072C57.3946 230.164 61.4767 233.739 66.191 237.596C75.6177 245.31 87.5216 254.113 99.2921 262.376C111.061 270.639 122.683 278.352 131.54 283.885C135.971 286.654 139.697 288.869 142.4 290.334C143.755 291.068 144.83 291.602 145.598 291.922C145.743 291.983 145.873 292.034 145.987 292.076ZM47.2342 220.044C54.7953 235.798 143.796 294.972 146.731 293.202C149.667 291.432 127.095 184.956 111.127 174.948C95.1588 164.939 39.6731 204.291 47.2342 220.044Z" fill="url(#paint9_linear_77_3894)"/>
<path d="M43.438 260.136C31.1638 253.654 24.3776 266.76 22.5187 274.123L18.8772 271.794C18.5527 268.736 19.2334 261.075 24.5523 254.898C31.2009 247.178 58.7807 268.239 43.438 260.136Z" fill="white"/>
<path d="M123.378 225.66C112.416 187.176 92.4919 184.809 83.9003 188.436C89.2878 184.47 101.675 177.227 108.122 179.982C116.182 183.427 117.593 194.592 123.378 225.66Z" fill="white"/>
<path d="M168.84 8.34602C256.709 32.5909 258.473 111.877 248.371 148.49C186.479 148.368 137.078 90.505 118.118 59.4713C99.1587 28.4376 84.3627 29.5156 55 17.4821C87.2465 -4.09183 125.287 -3.91658 168.84 8.34602Z" fill="#21E5A7"/>
<path d="M168.84 8.34602C256.709 32.5909 258.473 111.877 248.371 148.49C186.479 148.368 137.078 90.505 118.118 59.4713C99.1587 28.4376 84.3627 29.5156 55 17.4821C87.2465 -4.09183 125.287 -3.91658 168.84 8.34602Z" fill="#21E5A7"/>
<path d="M168.84 8.34635C256.709 32.5913 258.473 111.877 248.371 148.49C186.479 148.369 137.078 90.5054 118.118 59.4716C99.1586 28.438 84.3627 29.516 55 17.4825C87.2465 -4.09151 125.287 -3.91625 168.84 8.34635Z" fill="#21E5A7"/>
<path fill-rule="evenodd" clip-rule="evenodd" d="M252.014 127.938C251.311 135.62 249.994 142.606 248.371 148.49C238.115 148.469 228.203 146.864 218.715 144.058C211.005 102.432 178.386 66.6779 131 32C186.32 42.6042 231.71 95.8621 252.014 127.938Z" fill="#0B4F62"/>
<path d="M322.686 225.119L321.358 218.038C352.161 222.818 373.817 229.048 445.987 199.364C376.291 224.643 322.178 193.08 292.709 175.892L291.972 175.462C342.249 135.543 422.001 140.236 485.466 145.636C396.244 101.377 307.906 135.336 274.889 157.847L254 146.517C266.51 129.316 299.338 91.5147 330.567 77.9194C426.421 36.3163 506.226 123.547 534.383 172.712C534.457 172.832 534.526 172.954 534.591 173.077C534.522 172.955 534.452 172.834 534.383 172.712C530.641 166.635 514.897 163.788 479.623 198.922C443.65 234.752 360.01 231.316 322.686 225.119Z" fill="#21E5A7"/>
<path fill-rule="evenodd" clip-rule="evenodd" d="M321.358 218.038L322.686 225.119C325.839 225.643 329.323 226.147 333.081 226.609C334.049 224.576 335.101 222.492 336.238 220.371C333.178 219.931 330.127 219.439 327.017 218.938C325.156 218.639 323.275 218.336 321.358 218.038ZM347.947 201.746C369.05 172.737 404.785 143.646 456.362 143.427C399.037 139.824 334.807 141.452 291.972 175.462L292.709 175.892C306.227 183.776 324.932 194.686 347.947 201.746ZM478.649 145.066C480.624 145.359 482.62 145.694 484.636 146.07C484.215 145.868 483.791 145.664 483.362 145.458C481.8 145.326 480.229 145.195 478.649 145.066ZM466.186 137.244C423.209 117.011 357.218 89.5417 296.574 100.494C277.952 116.518 261.912 135.638 254 146.517L274.889 157.847C305.523 136.96 383.784 106.218 466.186 137.244Z" fill="#0B4F62"/>
</g>
<path d="M115.072 313.024C115.072 300.224 119.637 289.301 128.768 280.256C137.899 271.211 148.864 266.688 161.664 266.688C169.941 266.688 177.707 268.821 184.96 273.088C192.213 277.355 197.888 283.072 201.984 290.24C202.155 290.411 202.795 291.605 203.904 293.824C204.16 294.251 204.416 294.848 204.672 295.616C204.672 295.701 204.715 295.829 204.8 296V296.128H183.424C183.339 296.043 183.211 295.915 183.04 295.744C176.896 288.917 169.685 285.504 161.408 285.504C153.899 285.504 147.413 288.235 141.952 293.696C136.576 299.157 133.888 305.685 133.888 313.28C133.888 320.704 136.619 327.189 142.08 332.736C147.541 338.197 153.984 340.928 161.408 340.928C169.259 340.928 176.384 337.643 182.784 331.072C182.955 330.816 183.168 330.56 183.424 330.304H204.8V330.56C204.629 330.987 204.373 331.584 204.032 332.352C199.851 340.885 194.048 347.584 186.624 352.448C179.2 357.312 170.795 359.744 161.408 359.744C148.608 359.744 137.685 355.179 128.64 346.048C119.595 336.832 115.072 325.824 115.072 313.024ZM214.186 291.008H232.874V360.128H214.186V291.008ZM213.162 284.096C213.162 282.475 213.973 281.024 215.594 279.744C216.789 278.805 217.898 277.952 218.922 277.184C219.007 277.184 219.05 277.141 219.05 277.056C219.05 276.971 219.007 276.885 218.922 276.8C218.837 276.629 218.709 276.416 218.538 276.16C218.111 276.245 217.002 276.672 215.21 277.44C213.93 278.037 212.778 278.336 211.754 278.336C208.938 278.336 207.53 276.885 207.53 273.984C207.53 271.168 208.981 269.76 211.882 269.76C213.077 269.76 215.125 270.443 218.026 271.808L218.41 271.936H218.538C218.794 271.68 218.922 271.467 218.922 271.296V271.168C218.922 270.997 218.837 270.869 218.666 270.784C217.471 269.845 216.319 268.907 215.21 267.968C213.845 266.688 213.162 265.365 213.162 264C213.162 262.805 213.589 261.824 214.442 261.056C215.381 260.203 216.447 259.776 217.642 259.776C220.458 259.776 222.122 262.805 222.634 268.864H223.786L223.914 268.48C223.914 268.053 224.085 266.645 224.426 264.256C224.853 261.781 226.005 260.288 227.882 259.776H228.906C230.101 259.776 231.125 260.203 231.978 261.056C232.831 261.824 233.258 262.805 233.258 264C233.258 265.707 231.381 268.011 227.626 270.912C227.626 270.912 227.583 270.955 227.498 271.04V271.168C227.583 271.339 227.711 271.552 227.882 271.808L228.01 271.936H228.138C231.637 270.485 233.813 269.76 234.666 269.76C237.567 269.76 239.018 271.168 239.018 273.984C239.018 276.885 237.567 278.336 234.666 278.336C233.642 278.336 231.551 277.653 228.394 276.288C228.309 276.288 228.181 276.245 228.01 276.16L227.882 276.288L227.498 277.056L227.626 277.184C231.381 279.915 233.258 282.219 233.258 284.096C233.258 285.291 232.831 286.315 231.978 287.168C231.125 288.021 230.101 288.448 228.906 288.448C226.346 288.448 224.853 286.827 224.426 283.584C224.085 280.939 223.914 279.531 223.914 279.36L223.786 279.232H222.762L222.634 279.36C222.634 279.531 222.463 280.939 222.122 283.584C221.695 286.827 220.202 288.448 217.642 288.448C216.447 288.448 215.381 288.021 214.442 287.168C213.589 286.315 213.162 285.291 213.162 284.096ZM243.575 266.944H262.391V290.88H271.607V309.824H262.391V338.24C262.391 338.837 262.69 339.477 263.287 340.16C263.884 340.843 264.482 341.184 265.079 341.184H272.759V360H263.799C262.604 360 261.154 359.744 259.447 359.232C251.682 356.928 246.647 351.851 244.343 344C243.831 342.208 243.575 340.587 243.575 339.136V266.944ZM306.509 291.392V310.208H299.341C298.232 310.208 297.421 310.635 296.909 311.488C296.482 312.256 296.269 312.683 296.269 312.768V360H277.325V313.28C277.325 308.331 278.861 303.893 281.933 299.968C285.09 296.043 289.101 293.397 293.965 292.032C295.501 291.605 296.952 291.392 298.317 291.392H306.509ZM311.075 291.392H329.891V328.896C330.062 329.92 330.232 330.773 330.403 331.456C331.171 334.187 332.75 336.405 335.139 338.112C337.614 339.819 340.259 340.672 343.075 340.672C346.574 340.672 349.646 339.392 352.291 336.832C355.022 334.272 356.387 331.243 356.387 327.744V291.392H375.203V328.64C375.203 331.2 374.819 333.717 374.051 336.192C371.918 343.189 368.035 348.864 362.403 353.216C356.771 357.483 350.328 359.616 343.075 359.616C336.504 359.616 330.403 357.653 324.771 353.728C319.139 349.803 315.214 344.725 312.995 338.496C311.715 334.912 311.075 332.096 311.075 330.048V291.392ZM379.825 341.568H387.889C388.657 341.568 389.553 341.099 390.577 340.16C391.686 339.136 392.326 338.24 392.497 337.472L397.361 310.464C398.3 305.344 401.073 300.864 405.681 297.024C410.374 293.184 415.281 291.264 420.401 291.264H428.465V310.08H421.297C420.273 310.08 419.121 310.549 417.841 311.488C416.646 312.341 415.964 313.28 415.793 314.304L410.929 341.568C410.332 345.152 408.582 348.48 405.681 351.552C400.646 357.013 395.228 359.957 389.425 360.384C388.401 360.469 385.201 360.512 379.825 360.512V341.568ZM483.697 266.176H502.513V303.808H537.969V266.176H556.785V360H537.969V322.752H502.513V360H483.697V266.176ZM610.858 356.288C605.738 358.592 600.575 359.744 595.37 359.744C585.983 359.744 577.962 356.416 571.306 349.76C564.65 343.019 561.322 334.955 561.322 325.568C561.322 316.096 564.65 308.075 571.306 301.504C578.047 294.848 586.154 291.52 595.626 291.52C602.709 291.52 609.194 293.611 615.082 297.792C621.055 301.888 625.237 307.264 627.626 313.92C628.991 317.76 629.674 320.96 629.674 323.52V360H610.858V356.288ZM580.138 325.568C580.138 329.749 581.631 333.376 584.618 336.448C587.69 339.435 591.317 340.928 595.498 340.928C599.679 340.928 603.263 339.435 606.25 336.448C609.322 333.376 610.858 329.749 610.858 325.568C610.858 321.472 609.365 317.931 606.378 314.944C603.391 311.872 599.807 310.336 595.626 310.336C591.445 310.336 587.818 311.829 584.746 314.816C581.674 317.717 580.138 321.301 580.138 325.568ZM634.197 325.568C634.197 317.291 636.885 309.995 642.261 303.68C647.637 297.28 654.378 293.355 662.485 291.904C664.533 291.563 666.496 291.392 668.373 291.392C674.602 291.477 680.405 293.099 685.781 296.256C691.157 299.413 695.338 303.68 698.325 309.056C698.496 309.227 699.008 310.165 699.861 311.872C699.861 311.445 700.117 312.128 700.629 313.92C700.885 314.517 701.098 315.2 701.269 315.968V316.352H680.789C676.949 312.341 672.853 310.336 668.501 310.336C664.149 310.336 660.48 311.829 657.493 314.816C654.592 317.803 653.141 321.429 653.141 325.696C653.141 329.877 654.634 333.461 657.621 336.448C660.608 339.435 664.192 340.928 668.373 340.928C673.066 340.928 677.205 338.923 680.789 334.912H701.269V335.296C701.013 336.064 700.672 337.088 700.245 338.368C699.648 340.075 698.197 342.592 695.893 345.92C695.125 347.029 693.461 348.864 690.901 351.424C690.901 351.424 690.773 351.552 690.517 351.808C690.261 351.979 690.09 352.107 690.005 352.192C683.349 357.227 676.138 359.744 668.373 359.744C658.986 359.744 650.922 356.416 644.181 349.76C637.525 343.104 634.197 335.04 634.197 325.568ZM706.849 267.072H725.665V315.584H736.673C737.27 315.584 737.996 315.328 738.849 314.816C742.092 313.365 744.225 310.635 745.249 306.624C745.59 304.576 745.761 303.552 745.761 303.552V291.392H764.577V304.576C764.577 306.709 764.15 309.227 763.297 312.128C761.932 316.736 759.542 321.045 756.129 325.056C760.14 329.664 762.785 335.125 764.065 341.44C764.065 341.525 764.108 341.781 764.193 342.208C764.278 342.635 764.321 342.891 764.321 342.976C764.406 343.488 764.492 344.427 764.577 345.792V359.872H745.761V346.56C745.761 346.56 745.59 345.536 745.249 343.488C744.054 338.795 741.409 335.893 737.313 334.784C737.228 334.784 737.142 334.741 737.057 334.656C736.886 334.656 736.758 334.656 736.673 334.656H725.665V360.128H706.849V267.072Z" fill="#27262B"/>
<defs>
<linearGradient id="paint0_linear_77_3894" x1="156.825" y1="338.83" x2="138.149" y2="462.271" gradientUnits="userSpaceOnUse">
<stop stop-color="#FEB609"/>
<stop offset="1" stop-color="#FAA605"/>
</linearGradient>
<linearGradient id="paint1_linear_77_3894" x1="183.316" y1="296.149" x2="287.547" y2="227.43" gradientUnits="userSpaceOnUse">
<stop stop-color="#FABC04"/>
<stop offset="1" stop-color="#FFD00C"/>
</linearGradient>
<linearGradient id="paint2_linear_77_3894" x1="183.316" y1="296.149" x2="287.547" y2="227.43" gradientUnits="userSpaceOnUse">
<stop stop-color="#F38A06"/>
<stop offset="1" stop-color="#FAB10A"/>
</linearGradient>
<linearGradient id="paint3_linear_77_3894" x1="177.22" y1="332.349" x2="252.257" y2="438.66" gradientUnits="userSpaceOnUse">
<stop stop-color="#F8BE00"/>
<stop offset="1" stop-color="#FAB205"/>
</linearGradient>
<linearGradient id="paint4_linear_77_3894" x1="138.161" y1="326.893" x2="33.93" y2="395.612" gradientUnits="userSpaceOnUse">
<stop stop-color="#FBBA08"/>
<stop offset="1" stop-color="#F4A604"/>
</linearGradient>
<linearGradient id="paint5_linear_77_3894" x1="165.8" y1="284.945" x2="184.476" y2="161.504" gradientUnits="userSpaceOnUse">
<stop stop-color="#FFCC07"/>
<stop offset="1" stop-color="#FABC05"/>
</linearGradient>
<linearGradient id="paint6_linear_77_3894" x1="165.8" y1="284.945" x2="184.476" y2="161.504" gradientUnits="userSpaceOnUse">
<stop stop-color="#F38A06"/>
<stop offset="1" stop-color="#FAB10A"/>
</linearGradient>
<linearGradient id="paint7_linear_77_3894" x1="135.494" y1="305.658" x2="7.51521" y2="282.12" gradientUnits="userSpaceOnUse">
<stop stop-color="#FEB80C"/>
<stop offset="1" stop-color="#F9B104"/>
</linearGradient>
<linearGradient id="paint8_linear_77_3894" x1="147.006" y1="293.009" x2="71.9695" y2="186.697" gradientUnits="userSpaceOnUse">
<stop stop-color="#FDC405"/>
<stop offset="1" stop-color="#FCB906"/>
</linearGradient>
<linearGradient id="paint9_linear_77_3894" x1="147.006" y1="293.009" x2="71.9695" y2="186.697" gradientUnits="userSpaceOnUse">
<stop stop-color="#F38A06"/>
<stop offset="1" stop-color="#FAB10A"/>
</linearGradient>
</defs>
</svg>
