<svg width="929" height="305" viewBox="0 0 929 305" fill="none" xmlns="http://www.w3.org/2000/svg">
<rect width="18" height="164.81" transform="matrix(-0.977295 -0.211883 -0.211883 0.977295 234.129 36.3848)" fill="#5798FB"/>
<rect width="19" height="19" transform="matrix(-0.977295 -0.211883 -0.211883 0.977295 212.14 31.6172)" fill="#5798FB"/>
<rect width="19" height="19" transform="matrix(-0.977295 -0.211883 -0.211883 0.977295 171.093 22.7178)" fill="#5798FB"/>
<rect width="19" height="19" transform="matrix(-0.977295 -0.211883 -0.211883 0.977295 130.047 13.8193)" fill="#5798FB"/>
<rect width="19" height="19" transform="matrix(-0.977295 -0.211883 -0.211883 0.977295 89.0006 4.91992)" fill="#5798FB"/>
<rect width="19" height="19" transform="matrix(-0.977295 -0.211883 -0.211883 0.977295 188.568 45.9482)" fill="#5798FB"/>
<rect width="19" height="19" transform="matrix(-0.977295 -0.211883 -0.211883 0.977295 146.544 36.8369)" fill="#5798FB"/>
<rect width="19" height="19" transform="matrix(-0.977295 -0.211883 -0.211883 0.977295 104.521 27.7266)" fill="#5798FB"/>
<rect width="19" height="19" transform="matrix(-0.977295 -0.211883 -0.211883 0.977295 204.088 68.7549)" fill="#5798FB"/>
<rect width="19" height="19" transform="matrix(-0.977295 -0.211883 -0.211883 0.977295 163.042 59.8555)" fill="#5798FB"/>
<rect width="19" height="19" transform="matrix(-0.977295 -0.211883 -0.211883 0.977295 121.995 50.957)" fill="#5798FB"/>
<rect width="19" height="19" transform="matrix(-0.977295 -0.211883 -0.211883 0.977295 80.9491 42.0576)" fill="#5798FB"/>
<rect width="19" height="19" transform="matrix(-0.977295 -0.211883 -0.211883 0.977295 180.517 83.0859)" fill="#5798FB"/>
<rect width="19" height="19" transform="matrix(-0.977295 -0.211883 -0.211883 0.977295 138.493 73.9746)" fill="#5798FB"/>
<rect width="19" height="19" transform="matrix(-0.977295 -0.211883 -0.211883 0.977295 96.4692 64.8643)" fill="#5798FB"/>
<rect width="19" height="19" transform="matrix(-0.977295 -0.211883 -0.211883 0.977295 196.037 105.892)" fill="#5798FB"/>
<rect width="19" height="19" transform="matrix(-0.977295 -0.211883 -0.211883 0.977295 154.99 96.9922)" fill="#5798FB"/>
<rect width="19" height="19" transform="matrix(-0.977295 -0.211883 -0.211883 0.977295 113.944 88.0938)" fill="#5798FB"/>
<rect width="19" height="19" transform="matrix(-0.977295 -0.211883 -0.211883 0.977295 72.8975 79.1943)" fill="#5798FB"/>
<g filter="url(#filter0_d_81_3896)">
<circle cx="231" cy="224.539" r="64" fill="#383838"/>
<path fill-rule="evenodd" clip-rule="evenodd" d="M276.487 191.626C276.976 190.665 277.436 189.686 277.864 188.69C285.476 198.627 290 211.055 290 224.539C290 236.574 286.397 247.767 280.21 257.098C279.809 255.627 279.344 254.182 278.818 252.767C283.838 244.348 286.722 234.507 286.722 223.993C286.722 211.944 282.936 200.78 276.487 191.626ZM182.778 253.893C177.334 245.23 174.185 234.979 174.185 223.993C174.185 211.547 178.226 200.045 185.067 190.727C184.742 190.056 184.432 189.377 184.136 188.69C176.524 198.627 172 211.055 172 224.539C172 236.574 175.603 247.767 181.79 257.098C182.085 256.015 182.415 254.946 182.778 253.893Z" fill="#D9D9D9"/>
<path fill-rule="evenodd" clip-rule="evenodd" d="M220 173.705C223.546 172.941 227.226 172.539 231 172.539C235.13 172.539 239.148 173.021 243 173.931V166.76C239.125 165.96 235.112 165.539 231 165.539C227.241 165.539 223.564 165.891 220 166.563V173.705ZM198.774 273.969C201.813 275.954 205.046 277.666 208.438 279.072L213.861 273.649C211.115 272.69 208.474 271.508 205.96 270.124C203.676 271.579 201.275 272.866 198.774 273.969ZM216.786 281.816C214.993 281.372 213.233 280.847 211.509 280.244L217.093 274.659C218.93 275.167 220.807 275.577 222.718 275.883L216.786 281.816ZM220.277 282.567C222.264 282.932 224.285 283.197 226.336 283.357L233.2 276.493C232.47 276.524 231.737 276.539 231 276.539C229.483 276.539 227.981 276.474 226.497 276.347L220.277 282.567ZM231 283.539C230.8 283.539 230.6 283.538 230.4 283.536L237.843 276.093C240.865 275.696 243.804 275.039 246.639 274.146L237.613 283.173C235.442 283.415 233.235 283.539 231 283.539ZM242.636 282.392C250.105 280.898 257.064 277.994 263.225 273.969C260.725 272.866 258.324 271.579 256.039 270.124C255.266 270.55 254.481 270.956 253.685 271.343L242.636 282.392Z" fill="#D9D9D9"/>
<circle cx="231" cy="222.539" r="39" fill="#656565"/>
<circle cx="231" cy="222.539" r="37" fill="#262626"/>
<circle cx="230.5" cy="222.039" r="34.5" fill="#3E3E3E"/>
<circle cx="231" cy="222.539" r="20" fill="#858585"/>
<circle cx="230.5" cy="222.039" r="14.5" fill="#252525"/>
<circle cx="231" cy="222.539" r="11" fill="#313131"/>
<circle cx="230.5" cy="222.039" r="4.5" fill="#737373"/>
<path d="M816.287 131.422C821.887 125.022 840.954 130.755 849.787 134.422L855.788 176.922L811.288 171.422C810.621 160.755 810.688 137.822 816.287 131.422Z" fill="#646267"/>
<path d="M834 150.539C833.2 142.539 839.333 137.539 842.5 136.039L870.5 162.039L859.5 187.039L825.5 171.039L826.491 150.728C826.017 150.685 826.163 150.606 826.5 150.539L826.491 150.728C827.189 150.791 829.234 150.777 834 150.539Z" fill="#1B1B19"/>
<path d="M911 230.039H886.5L876.5 200.039L921 185.039V225.539L911 230.039Z" fill="#2D2B2C"/>
<path d="M898.5 266.539C886.5 266.939 877.167 273.706 874 277.039L888.5 219.539L898.5 224.539C898.667 234.706 898.9 257.339 898.5 266.539Z" fill="#414141"/>
<path d="M925 199.539L883 219.039C881.8 201.439 851.167 169.372 836 155.539V134.539L929 137.539L925 199.539Z" fill="#4F4F4F"/>
<path d="M922.5 172.039H854C853.2 164.839 845.667 158.706 842 156.539V145.539H922.5V172.039Z" fill="#787A79"/>
<path d="M789.095 169.767L816 172.78C806.035 193.7 777.934 235.539 745.249 235.539C712.564 235.539 595.111 183.993 540.47 158.22V147.676L532 144.161V114.539H622.681L774.646 147.676L789.095 169.767Z" fill="#39393B"/>
<mask id="mask0_81_3896" style="mask-type:alpha" maskUnits="userSpaceOnUse" x="532" y="114" width="285" height="122">
<path d="M790 169.539L817 172.539C807 193.372 778.8 235.039 746 235.039C713.2 235.039 595.333 183.706 540.5 158.039V147.539L532 144.039V114.539H623L775.5 147.539L790 169.539Z" fill="#363638"/>
</mask>
<g mask="url(#mask0_81_3896)">
<path d="M759.127 158.539L756.638 166.539L744.692 163.539V152.039L677 127.539L689.443 121.539L779.036 154.539L787 166.539L759.127 158.539Z" fill="#898989"/>
<path d="M531.5 152.539C557.5 169.372 622.3 199.439 673.5 185.039C686.5 178.539 685 173.039 531.5 152.539Z" fill="#383838"/>
<path d="M695.5 153.039C734.3 174.639 778 178.039 795 177.039C809.333 185.539 829.117 199.639 793.585 188.039C758.054 176.439 715.057 183.206 698 188.039C734.833 194.706 795.7 206.139 744.5 198.539C693.3 190.939 692.167 208.372 698 218.039L611 184.539C614.167 184.372 627.4 184.139 655 184.539C687.8 178.539 622.333 166.706 585.5 161.539L559.5 129.039L607.5 102.539C620.667 110.372 656.7 131.439 695.5 153.039Z" fill="url(#paint0_linear_81_3896)"/>
<path d="M531 112.539V142.039L534 154.039C544.333 156.706 569.6 163.539 588 169.539C604 164.739 622.333 129.539 629.5 112.539H531Z" fill="#C3C2C0"/>
<path d="M762.5 182.103C744.9 179.303 721.5 187.603 712 192.103C767.2 196.903 781 211.103 781 217.603L804.5 192.103C797.833 189.937 780.1 184.903 762.5 182.103Z" fill="#27262B"/>
</g>
<circle cx="825" cy="234.539" r="64" fill="#383838"/>
<path fill-rule="evenodd" clip-rule="evenodd" d="M870.487 201.626C870.976 200.665 871.436 199.686 871.864 198.69C879.476 208.627 884 221.055 884 234.539C884 246.574 880.397 257.767 874.21 267.098C873.809 265.627 873.344 264.182 872.818 262.767C877.838 254.348 880.722 244.507 880.722 233.993C880.722 221.944 876.936 210.78 870.487 201.626ZM776.778 263.893C771.334 255.23 768.185 244.979 768.185 233.993C768.185 221.547 772.226 210.045 779.067 200.727C778.742 200.056 778.432 199.377 778.136 198.69C770.524 208.627 766 221.055 766 234.539C766 246.574 769.603 257.767 775.79 267.098C776.085 266.015 776.415 264.946 776.778 263.893Z" fill="#D9D9D9"/>
<path fill-rule="evenodd" clip-rule="evenodd" d="M814 183.705C817.546 182.941 821.226 182.539 825 182.539C829.13 182.539 833.148 183.021 837 183.931V176.76C833.125 175.96 829.112 175.539 825 175.539C821.241 175.539 817.564 175.891 814 176.563V183.705ZM792.774 283.969C795.813 285.954 799.046 287.666 802.438 289.072L807.861 283.649C805.115 282.69 802.474 281.508 799.96 280.124C797.676 281.579 795.275 282.866 792.774 283.969ZM810.786 291.816C808.993 291.372 807.233 290.847 805.509 290.244L811.093 284.659C812.93 285.167 814.807 285.577 816.718 285.883L810.786 291.816ZM814.277 292.567C816.264 292.932 818.285 293.197 820.336 293.357L827.2 286.493C826.47 286.524 825.737 286.539 825 286.539C823.483 286.539 821.981 286.474 820.497 286.347L814.277 292.567ZM825 293.539C824.8 293.539 824.6 293.538 824.4 293.536L831.843 286.093C834.865 285.696 837.804 285.039 840.639 284.146L831.613 293.173C829.442 293.415 827.235 293.539 825 293.539ZM836.636 292.392C844.105 290.898 851.064 287.994 857.225 283.969C854.725 282.866 852.324 281.579 850.039 280.124C849.266 280.55 848.481 280.956 847.685 281.343L836.636 292.392Z" fill="#D9D9D9"/>
<circle cx="825" cy="232.539" r="39" fill="#656565"/>
<circle cx="825" cy="232.539" r="37" fill="#262626"/>
<circle cx="824.5" cy="232.039" r="34.5" fill="#3E3E3E"/>
<circle cx="825" cy="232.539" r="20" fill="#858585"/>
<circle cx="824.5" cy="232.039" r="14.5" fill="#252525"/>
<circle cx="825" cy="232.539" r="11" fill="#313131"/>
<circle cx="824.5" cy="232.039" r="4.5" fill="#737373"/>
<path fill-rule="evenodd" clip-rule="evenodd" d="M776 269.609C785.5 272.609 754 278.109 552 276.109C350 274.109 295.833 275.276 294 276.109V241.609H289.5H253.5L240 196.109L292 178.609H358.5C369.167 165.276 395.7 139.009 416.5 140.609C442.5 142.609 513 149.609 522.5 155.109C530.1 159.509 653.333 184.276 714 196.109C738.667 210.442 785.6 245.209 776 269.609ZM437 178.039H470C469.667 171.206 471 157.539 479 157.539C464 152.039 428 141.039 410 152.039C392 163.039 385.5 168.039 396 175.539C396.363 173.797 396.642 172.223 396.893 170.805C398.37 162.462 398.888 159.539 410 159.539C420.4 159.539 424 166.872 424.5 170.539C428.667 170.206 437 171.239 437 178.039Z" fill="#444444"/>
<mask id="mask1_81_3896" style="mask-type:alpha" maskUnits="userSpaceOnUse" x="240" y="140" width="538" height="137">
<path d="M552 276.109C754 278.109 785.5 272.609 776 269.609C785.6 245.209 738.667 210.442 714 196.109C653.333 184.276 530.1 159.509 522.5 155.109C513 149.609 442.5 142.609 416.5 140.609C395.7 139.009 369.167 165.276 358.5 178.609H292L240 196.109L253.5 241.609H289.5H294V276.109C295.833 275.276 350 274.109 552 276.109Z" fill="#444444"/>
</mask>
<g mask="url(#mask1_81_3896)">
<path d="M766 256.539C769.833 260.705 733.3 268.339 556.5 265.539C528 256.539 490.5 246.039 351 232.539C274.5 209.039 279 207.539 255 208.539" stroke="#7A7879" stroke-width="3"/>
<path d="M643.5 218.539C725.9 252.539 761.833 251.706 769.5 247.039L773 234.539C762.333 237.706 726.4 238.939 668 218.539C595 193.039 521 197.039 512.5 191.539C505.7 187.139 467.667 179.039 449.5 175.539L400 167.539L359.5 164.039L299.5 171.039C337.5 175.539 402.7 184.239 359.5 183.039C316.3 181.839 263.833 194.206 243 200.539C229.333 201.872 217.8 206.739 281 215.539C344.2 224.339 374 215.539 381 210.039L366.5 204.539C407.667 198.039 520.7 191.739 643.5 218.539Z" fill="#767676"/>
<path d="M467 245.539C446.6 203.539 397.167 201.372 375 205.539C330 197.539 384.5 184.539 413 192.039C435.8 198.039 450.5 208.872 455 213.539L552.5 225.039C541.333 234.539 508.6 251.939 467 245.539Z" fill="#27262B"/>
<path d="M640 194.539C595.2 176.139 504 175.205 464 177.039C472.167 179.872 494.3 186.539 517.5 190.539C597.5 194.939 657.833 213.039 678 221.539C684 220.205 684.8 212.939 640 194.539Z" fill="#383838"/>
<path d="M493 142.039L616 191.539L480.5 178.039L493 150.539H472.5L476.5 135.539L493 142.039Z" fill="url(#paint1_linear_81_3896)"/>
<path d="M460.5 277.539C412.1 279.539 386 254.706 379 242.039L554 274.539C543 274.706 508.9 275.539 460.5 277.539Z" fill="url(#paint2_linear_81_3896)"/>
<rect x="315" y="244.539" width="51" height="21" rx="10.5" fill="#D9D9D9"/>
<rect x="641" y="239.539" width="26" height="5" fill="#D9D9D9"/>
<rect x="641" y="249.539" width="19" height="11" fill="#D9D9D9"/>
<rect x="670" y="240.539" width="8" height="4" fill="#D9D9D9"/>
<rect x="682" y="242.539" width="8" height="4" fill="#D9D9D9"/>
<rect x="668" y="243.539" width="17" height="9" fill="#D9D9D9"/>
<rect x="669" y="254.539" width="19" height="6" fill="#D9D9D9"/>
<path d="M482 169.539H470.5C470.937 167.754 471 165.039 471.5 165.039H485L482 169.539Z" fill="#27262B"/>
</g>
<path d="M272 185.039V164.539H274.5" stroke="#6D695D" stroke-width="3"/>
<path d="M202.5 160.539C235.7 160.539 267.333 176.539 279 184.539L183 190.039C185.667 185.372 193.3 172.939 202.5 160.539Z" fill="#1D1F1C"/>
<path d="M280.901 184.906L256.599 189.971L228.773 171.668L228.424 163.676L253.466 164.083C254.227 166.219 255.765 170.889 255.835 172.488C265.061 172.886 276.39 180.932 280.901 184.906Z" fill="#292929"/>
<path d="M67.5 205.539H158V266.039C123.5 266.706 52.3 268.239 43.5 269.039C35.9 263.439 17.3333 259.039 9 257.539C13.3333 257.706 23.4 257.939 29 257.539C31 252.739 40.5 249.539 45 248.539L67.5 205.539Z" fill="#444444"/>
<mask id="mask2_81_3896" style="mask-type:alpha" maskUnits="userSpaceOnUse" x="9" y="205" width="149" height="65">
<path d="M67.5 205.539H158V266.039C123.5 266.706 52.3 268.239 43.5 269.039C35.9 263.439 17.3333 259.039 9 257.539C13.3333 257.706 23.4 257.939 29 257.539C31 252.739 40.5 249.539 45 248.539L67.5 205.539Z" fill="#444444"/>
</mask>
<g mask="url(#mask2_81_3896)">
<path d="M124 205.539H158.5C157.5 220.872 157.2 253.139 164 259.539C141.6 253.939 128 261.872 124 266.539V205.539Z" fill="#4A4A4A"/>
<path d="M124 205.539H154.5V222.539H135.5C136.7 232.139 146 235.539 150.5 236.039V247.039L124 238.539V205.539Z" fill="#969696"/>
<path d="M132 258.14C135.5 255.974 146.6 251.84 163 252.64C164.5 256.64 187 258.14 132 258.14Z" fill="#1F1B18"/>
<path d="M120 227.539C92 263.139 33 264.372 7 260.539C9.5 260.039 16.7 258.839 25.5 258.039C27.1 253.639 38.1667 250.872 43.5 250.039C43.6667 248.872 45 245.539 49 241.539C59.5 251.039 89 240.039 120 227.539Z" fill="#1F1B18"/>
</g>
<path d="M554 98.0387C577.2 97.2387 571 109.039 565 115.039H539.5C542.167 112.539 546.2 107.539 541 107.539C540.5 103.539 545 98.0387 554 98.0387Z" fill="#272526"/>
<circle cx="211" cy="234.539" r="64" fill="#383838"/>
<path fill-rule="evenodd" clip-rule="evenodd" d="M256.487 201.626C256.976 200.665 257.436 199.686 257.864 198.69C265.476 208.627 270 221.055 270 234.539C270 246.574 266.397 257.767 260.21 267.098C259.809 265.627 259.344 264.182 258.818 262.767C263.838 254.348 266.722 244.507 266.722 233.993C266.722 221.944 262.936 210.78 256.487 201.626ZM162.778 263.893C157.334 255.23 154.185 244.979 154.185 233.993C154.185 221.547 158.226 210.045 165.067 200.727C164.742 200.056 164.432 199.377 164.136 198.69C156.524 208.627 152 221.055 152 234.539C152 246.574 155.603 257.767 161.79 267.098C162.085 266.015 162.415 264.946 162.778 263.893Z" fill="#D9D9D9"/>
<path fill-rule="evenodd" clip-rule="evenodd" d="M200 183.705C203.546 182.941 207.226 182.539 211 182.539C215.13 182.539 219.148 183.021 223 183.931V176.76C219.125 175.96 215.112 175.539 211 175.539C207.241 175.539 203.564 175.891 200 176.563V183.705ZM178.774 283.969C181.813 285.954 185.046 287.666 188.438 289.072L193.861 283.649C191.115 282.69 188.474 281.508 185.96 280.124C183.676 281.579 181.275 282.866 178.774 283.969ZM196.786 291.816C194.993 291.372 193.233 290.847 191.509 290.244L197.093 284.659C198.93 285.167 200.807 285.577 202.718 285.883L196.786 291.816ZM200.277 292.567C202.264 292.932 204.285 293.197 206.336 293.357L213.2 286.493C212.47 286.524 211.737 286.539 211 286.539C209.483 286.539 207.981 286.474 206.497 286.347L200.277 292.567ZM211 293.539C210.8 293.539 210.6 293.538 210.4 293.536L217.843 286.093C220.865 285.696 223.804 285.039 226.639 284.146L217.613 293.173C215.442 293.415 213.235 293.539 211 293.539ZM222.636 292.392C230.105 290.898 237.064 287.994 243.225 283.969C240.725 282.866 238.324 281.579 236.039 280.124C235.266 280.55 234.481 280.956 233.685 281.343L222.636 292.392Z" fill="#D9D9D9"/>
<circle cx="211" cy="232.539" r="39" fill="#656565"/>
<circle cx="211" cy="232.539" r="37" fill="#262626"/>
<circle cx="210.5" cy="232.039" r="34.5" fill="#3E3E3E"/>
<circle cx="211" cy="232.539" r="20" fill="#858585"/>
<circle cx="210.5" cy="232.039" r="14.5" fill="#252525"/>
<circle cx="211" cy="232.539" r="11" fill="#313131"/>
<circle cx="210.5" cy="232.039" r="4.5" fill="#737373"/>
</g>
<defs>
<filter id="filter0_d_81_3896" x="0" y="96" width="929" height="208.539" filterUnits="userSpaceOnUse" color-interpolation-filters="sRGB">
<feFlood flood-opacity="0" result="BackgroundImageFix"/>
<feColorMatrix in="SourceAlpha" type="matrix" values="0 0 0 0 0 0 0 0 0 0 0 0 0 0 0 0 0 0 127 0" result="hardAlpha"/>
<feOffset dx="-5" dy="2"/>
<feGaussianBlur stdDeviation="2"/>
<feComposite in2="hardAlpha" operator="out"/>
<feColorMatrix type="matrix" values="0 0 0 0 0 0 0 0 0 0 0 0 0 0 0 0 0 0 0.5 0"/>
<feBlend mode="normal" in2="BackgroundImageFix" result="effect1_dropShadow_81_3896"/>
<feBlend mode="normal" in="SourceGraphic" in2="effect1_dropShadow_81_3896" result="shape"/>
</filter>
<linearGradient id="paint0_linear_81_3896" x1="686.543" y1="102.539" x2="686.543" y2="234.663" gradientUnits="userSpaceOnUse">
<stop stop-color="#818181"/>
<stop offset="1" stop-color="#818181" stop-opacity="0"/>
</linearGradient>
<linearGradient id="paint1_linear_81_3896" x1="497.5" y1="135.539" x2="497.5" y2="277.653" gradientUnits="userSpaceOnUse">
<stop stop-color="#979797"/>
<stop offset="1" stop-color="#979797" stop-opacity="0"/>
</linearGradient>
<linearGradient id="paint2_linear_81_3896" x1="497.5" y1="135.539" x2="497.5" y2="277.653" gradientUnits="userSpaceOnUse">
<stop stop-color="#979797"/>
<stop offset="1" stop-color="#979797" stop-opacity="0"/>
</linearGradient>
</defs>
</svg>
