<svg width="1512" height="63" viewBox="0 0 1512 63" fill="none" xmlns="http://www.w3.org/2000/svg">
<path d="M1738.56 62.9994L1782.18 7.79018e-05L1831 8.00359e-05L1787.38 62.9994H1738.56Z" fill="#27262B"/>
<path d="M1698.66 62.9994L1742.7 7.61764e-05L1693.41 7.40217e-05L1649.37 62.9994H1698.66Z" fill="#27262B"/>
<path d="M1608.46 62.9994L1652.08 7.22153e-05L1603.26 7.00811e-05L1559.64 62.9994H1608.46Z" fill="#27262B"/>
<path d="M1520.17 62.9994L1563.79 6.83557e-05L1514.96 6.62216e-05L1471.34 62.9994H1520.17Z" fill="#27262B"/>
<path d="M1431.45 62.9994L1475.49 6.44962e-05L1426.2 6.23415e-05L1382.16 62.9994H1431.45Z" fill="#27262B"/>
<path d="M1341.25 62.9994L1384.87 6.05351e-05L1336.05 5.84009e-05L1292.43 62.9997L1341.25 62.9994Z" fill="#27262B"/>
<path d="M1252.96 62.9997L1296.58 5.66755e-05L1247.75 5.45414e-05L1204.13 62.9997L1252.96 62.9997Z" fill="#27262B"/>
<path d="M1164.24 62.9997L1208.28 5.2816e-05L1158.99 5.06613e-05L1114.95 62.9997L1164.24 62.9997Z" fill="#27262B"/>
<path d="M1074.04 62.9997L1117.66 4.88549e-05L1068.84 4.67207e-05L1025.22 62.9997L1074.04 62.9997Z" fill="#27262B"/>
<path d="M985.744 62.9997L1029.36 4.49953e-05L980.541 4.28612e-05L936.92 62.9997L985.744 62.9997Z" fill="#27262B"/>
<path d="M897.029 62.9997L941.069 4.11358e-05L891.776 3.89811e-05L847.736 62.9997L897.029 62.9997Z" fill="#27262B"/>
<path d="M806.829 62.9997L850.449 3.71747e-05L801.626 3.50406e-05L758.005 62.9997L806.829 62.9997Z" fill="#27262B"/>
<path d="M718.532 62.9997L762.153 3.33151e-05L713.33 3.1181e-05L669.709 62.9997L718.532 62.9997Z" fill="#27262B"/>
<path d="M629.816 62.9997L673.857 2.94556e-05L624.564 2.73009e-05L580.524 62.9997L629.816 62.9997Z" fill="#27262B"/>
<path d="M539.616 62.9997L583.237 2.54945e-05L534.414 2.33603e-05L490.793 62.9997L539.616 62.9997Z" fill="#27262B"/>
<path d="M451.32 62.9997L494.941 2.16349e-05L446.118 1.95008e-05L402.497 62.9997L451.32 62.9997Z" fill="#27262B"/>
<path d="M362.605 62.9997L406.646 1.77754e-05L357.353 1.56207e-05L313.312 62.9997L362.605 62.9997Z" fill="#27262B"/>
<path d="M272.405 62.9997L316.026 1.38143e-05L267.202 1.16802e-05L223.582 62.9997L272.405 62.9997Z" fill="#27262B"/>
<path d="M184.11 62.9997L227.73 9.95478e-06L178.907 7.82065e-06L135.286 62.9997L184.11 62.9997Z" fill="#27262B"/>
<path d="M95.3938 62.9997L139.434 6.09522e-06L90.1414 3.94057e-06L46.1011 62.9997L95.3938 62.9997Z" fill="#27262B"/>
<path d="M5.19409 62.9997L48.8149 2.13413e-06L-0.00829792 0L-6 8.65355L-6 62.9993L5.19409 62.9997Z" fill="#27262B"/>
</svg>
