<svg width="435" height="231" viewBox="0 0 435 231" fill="none" xmlns="http://www.w3.org/2000/svg">
<rect x="31" width="404" height="74" fill="#FD9006"/>
<rect x="1.8667" y="79.5469" width="332" height="60" transform="rotate(1.54108 1.8667 79.5469)" fill="#FD9006"/>
<rect x="52.6611" y="170.94" width="332" height="60" transform="rotate(-0.669126 52.6611 170.94)" fill="#FD9006"/>
<path d="M99.188 62L93.136 33.508H92.864L86.812 62H70.288L59.34 15.216H74.98L80.352 41.736H80.624L85.928 15.216H100.752L106.396 41.736H106.668L111.7 15.216H126.66L115.712 62H99.188ZM163.584 62V44.252H147.06V62H132.032V15.216H147.06V32.284H163.584V15.216H178.612V62H163.584ZM220.025 62L218.053 55.404H201.665L199.693 62H184.325L201.393 15.216H218.869L235.937 62H220.025ZM204.793 44.932H214.925L210.029 28.272H209.757L204.793 44.932ZM263.815 27.184V62H248.787V27.184H233.419V15.216H279.115V27.184H263.815ZM309.286 62V15.216H324.314V62H309.286ZM354.688 14.4C360.672 14.4 365.591 15.624 369.444 18.072C373.297 20.4747 375.269 24.056 375.36 28.816V29.632H361.284V29.36C361.284 28 360.785 26.8667 359.788 25.96C358.791 25.0533 357.272 24.6 355.232 24.6C353.237 24.6 351.696 24.8947 350.608 25.484C349.565 26.0733 349.044 26.7987 349.044 27.66C349.044 28.884 349.769 29.7907 351.22 30.38C352.671 30.9693 355.005 31.5813 358.224 32.216C361.987 32.9867 365.069 33.8027 367.472 34.664C369.92 35.48 372.051 36.84 373.864 38.744C375.677 40.648 376.607 43.232 376.652 46.496C376.652 52.0267 374.771 56.1293 371.008 58.804C367.291 61.4787 362.304 62.816 356.048 62.816C348.749 62.816 343.06 61.592 338.98 59.144C334.945 56.696 332.928 52.3667 332.928 46.156H347.14C347.14 48.5133 347.752 50.1 348.976 50.916C350.2 51.6867 352.104 52.072 354.688 52.072C356.592 52.072 358.156 51.868 359.38 51.46C360.649 51.052 361.284 50.2133 361.284 48.944C361.284 47.8107 360.581 46.972 359.176 46.428C357.816 45.8387 355.572 45.2267 352.444 44.592C348.636 43.776 345.485 42.9373 342.992 42.076C340.499 41.1693 338.323 39.696 336.464 37.656C334.605 35.616 333.676 32.8507 333.676 29.36C333.676 24.2373 335.648 20.4747 339.592 18.072C343.581 15.624 348.613 14.4 354.688 14.4ZM86.336 88.4C93.272 88.4 98.7573 90.1453 102.792 93.636C106.827 97.0813 108.844 102.023 108.844 108.46H94.496C94.496 105.74 93.7707 103.587 92.32 102C90.9147 100.413 88.8973 99.62 86.268 99.62C83.2307 99.62 80.9867 100.572 79.536 102.476C78.1307 104.38 77.428 107.032 77.428 110.432V114.784C77.428 118.139 78.1307 120.791 79.536 122.74C80.9867 124.644 83.1853 125.596 86.132 125.596C89.0333 125.596 91.232 124.848 92.728 123.352C94.224 121.856 94.972 119.748 94.972 117.028H108.844C108.844 123.42 106.872 128.316 102.928 131.716C99.0293 135.116 93.4987 136.816 86.336 136.816C78.3573 136.816 72.3053 134.776 68.18 130.696C64.1 126.616 62.06 120.587 62.06 112.608C62.06 104.629 64.1 98.6 68.18 94.52C72.3053 90.44 78.3573 88.4 86.336 88.4ZM117.638 136V89.216H132.666V136H117.638ZM170.315 101.184V136H155.287V101.184H139.919V89.216H185.615V101.184H170.315ZM236.866 103.564C236.866 106.42 236.095 109.004 234.554 111.316C233.012 113.628 230.768 115.328 227.822 116.416L238.226 136H221.362L213.066 118.932H207.49V136H192.462V89.216H221.09C224.444 89.216 227.3 89.8733 229.658 91.188C232.06 92.4573 233.851 94.2027 235.03 96.424C236.254 98.6 236.866 100.98 236.866 103.564ZM221.566 104.176C221.566 102.952 221.158 101.932 220.342 101.116C219.526 100.3 218.528 99.892 217.35 99.892H207.49V108.528H217.35C218.528 108.528 219.526 108.12 220.342 107.304C221.158 106.443 221.566 105.4 221.566 104.176ZM290.839 117.164C290.839 123.556 288.821 128.429 284.787 131.784C280.752 135.139 275.017 136.816 267.583 136.816C260.148 136.816 254.391 135.139 250.311 131.784C246.276 128.429 244.259 123.556 244.259 117.164V89.216H259.287V116.96C259.287 119.589 259.989 121.697 261.395 123.284C262.8 124.825 264.84 125.596 267.515 125.596C270.189 125.596 272.229 124.803 273.635 123.216C275.085 121.629 275.811 119.544 275.811 116.96V89.216H290.839V117.164ZM320.555 88.4C326.539 88.4 331.458 89.624 335.311 92.072C339.164 94.4747 341.136 98.056 341.227 102.816V103.632H327.151V103.36C327.151 102 326.652 100.867 325.655 99.96C324.658 99.0533 323.139 98.6 321.099 98.6C319.104 98.6 317.563 98.8947 316.475 99.484C315.432 100.073 314.911 100.799 314.911 101.66C314.911 102.884 315.636 103.791 317.087 104.38C318.538 104.969 320.872 105.581 324.091 106.216C327.854 106.987 330.936 107.803 333.339 108.664C335.787 109.48 337.918 110.84 339.731 112.744C341.544 114.648 342.474 117.232 342.519 120.496C342.519 126.027 340.638 130.129 336.875 132.804C333.158 135.479 328.171 136.816 321.915 136.816C314.616 136.816 308.927 135.592 304.847 133.144C300.812 130.696 298.795 126.367 298.795 120.156H313.007C313.007 122.513 313.619 124.1 314.843 124.916C316.067 125.687 317.971 126.072 320.555 126.072C322.459 126.072 324.023 125.868 325.247 125.46C326.516 125.052 327.151 124.213 327.151 122.944C327.151 121.811 326.448 120.972 325.043 120.428C323.683 119.839 321.439 119.227 318.311 118.592C314.503 117.776 311.352 116.937 308.859 116.076C306.366 115.169 304.19 113.696 302.331 111.656C300.472 109.616 299.543 106.851 299.543 103.36C299.543 98.2373 301.515 94.4747 305.459 92.072C309.448 89.624 314.48 88.4 320.555 88.4ZM95.584 210V192.252H79.06V210H64.032V163.216H79.06V180.284H95.584V163.216H110.612V210H95.584ZM152.025 210L150.053 203.404H133.665L131.693 210H116.325L133.393 163.216H150.869L167.937 210H152.025ZM136.793 192.932H146.925L142.029 176.272H141.757L136.793 192.932ZM194.711 162.4C201.647 162.4 207.132 164.145 211.167 167.636C215.202 171.081 217.219 176.023 217.219 182.46H202.871C202.871 179.74 202.146 177.587 200.695 176C199.29 174.413 197.272 173.62 194.643 173.62C191.606 173.62 189.362 174.572 187.911 176.476C186.506 178.38 185.803 181.032 185.803 184.432V188.784C185.803 192.139 186.506 194.791 187.911 196.74C189.362 198.644 191.56 199.596 194.507 199.596C197.408 199.596 199.607 198.848 201.103 197.352C202.599 195.856 203.347 193.748 203.347 191.028H217.219C217.219 197.42 215.247 202.316 211.303 205.716C207.404 209.116 201.874 210.816 194.711 210.816C186.732 210.816 180.68 208.776 176.555 204.696C172.475 200.616 170.435 194.587 170.435 186.608C170.435 178.629 172.475 172.6 176.555 168.52C180.68 164.44 186.732 162.4 194.711 162.4ZM257.021 163.216H275.653L258.857 182.46L275.993 210H258.245L248.521 192.864L240.361 199.528V210H225.333V163.216H240.361V183.208L257.021 163.216ZM298.025 162.4C301.471 162.4 304.508 162.967 307.137 164.1C309.767 165.233 311.807 166.865 313.257 168.996C314.708 171.081 315.433 173.507 315.433 176.272C315.433 178.04 315.048 179.627 314.277 181.032C313.507 182.392 312.6 183.548 311.557 184.5C310.515 185.452 309.2 186.495 307.613 187.628C306.299 188.625 305.324 189.419 304.689 190.008C304.1 190.597 303.805 191.209 303.805 191.844V193.272H292.177V189.872C292.177 188.784 292.517 187.809 293.197 186.948C293.877 186.041 294.943 184.908 296.393 183.548C297.889 182.233 299.023 181.055 299.793 180.012C300.609 178.969 301.017 177.813 301.017 176.544C301.017 175.229 300.609 174.119 299.793 173.212C298.977 172.26 297.889 171.784 296.529 171.784C293.583 171.784 292.109 173.688 292.109 177.496C292.109 178.312 292.132 178.924 292.177 179.332H279.665C279.62 179.015 279.575 178.652 279.529 178.244C279.484 177.836 279.461 177.337 279.461 176.748C279.461 173.847 280.255 171.331 281.841 169.2C283.428 167.024 285.627 165.347 288.437 164.168C291.293 162.989 294.489 162.4 298.025 162.4ZM291.361 210V197.42H304.825V210H291.361Z" fill="#27262B"/>
</svg>
