<svg width="413" height="77" viewBox="0 0 413 77" fill="none" xmlns="http://www.w3.org/2000/svg">
<path d="M6.936 77C2.328 77 0.0239999 75.24 0.0239999 71.72C0.0239999 70.44 0.312 69 0.888 67.4L2.616 62.6C6.008 53.256 11.064 46.12 17.784 41.192C24.504 36.264 32.536 33.8 41.88 33.8H59.16C61.72 33.8 63.48 32.52 64.44 29.96L70.392 13.64C70.584 12.936 70.68 12.392 70.68 12.008C70.68 10.536 69.752 9.8 67.896 9.8H65.976C63.416 9.8 61.688 11.08 60.792 13.64L59.352 17.48C58.2 20.616 56.504 23.016 54.264 24.68C52.088 26.28 49.432 27.08 46.296 27.08H25.176C20.504 27.08 18.168 25.288 18.168 21.704C18.168 20.488 18.456 19.08 19.032 17.48L21.816 9.8C22.968 6.664 24.664 4.296 26.904 2.696C29.144 1.032 31.832 0.199999 34.968 0.199999H96.408C101.016 0.199999 104.472 1.096 106.776 2.888C109.144 4.68 110.328 7.336 110.328 10.856C110.328 13.288 109.752 16.136 108.6 19.4L106.872 24.2C104.568 30.472 101.176 35.24 96.696 38.504C92.216 41.768 86.872 43.4 80.664 43.4H53.784C51.224 43.4 49.464 44.68 48.504 47.24L42.552 63.56C42.36 64.2 42.264 64.744 42.264 65.192C42.264 66.664 43.192 67.4 45.048 67.4H46.968C49.528 67.4 51.256 66.12 52.152 63.56L53.592 59.72C54.744 56.584 56.408 54.216 58.584 52.616C60.824 50.952 63.512 50.12 66.648 50.12H87.768C92.44 50.12 94.776 51.912 94.776 55.496C94.776 56.648 94.488 58.056 93.912 59.72L91.128 67.4C89.976 70.536 88.28 72.936 86.04 74.6C83.8 76.2 81.112 77 77.976 77H6.936ZM142.49 63.56C142.298 64.2 142.202 64.744 142.202 65.192C142.202 66.664 143.13 67.4 144.986 67.4H146.906C149.466 67.4 151.194 66.12 152.09 63.56L170.33 13.64C170.522 12.936 170.618 12.392 170.618 12.008C170.618 10.536 169.69 9.8 167.834 9.8H165.914C163.354 9.8 161.626 11.08 160.73 13.64L142.49 63.56ZM114.746 29C118.138 19.656 123.194 12.52 129.914 7.592C136.698 2.664 144.762 0.199999 154.106 0.199999H186.746C193.658 0.199999 198.874 1.544 202.394 4.232C205.914 6.92 207.674 10.888 207.674 16.136C207.674 19.912 206.778 24.2 204.986 29L198.074 48.2C194.682 57.544 189.594 64.68 182.81 69.608C176.09 74.536 168.058 77 158.714 77H126.074C119.162 77 113.946 75.656 110.426 72.968C106.906 70.28 105.146 66.312 105.146 61.064C105.146 57.288 106.042 53 107.834 48.2L114.746 29ZM206.811 77C202.203 77 199.899 75.24 199.899 71.72C199.899 70.44 200.187 69 200.763 67.4L202.491 62.6C205.883 53.256 210.939 46.12 217.659 41.192C224.379 36.264 232.411 33.8 241.755 33.8H259.035C261.595 33.8 263.355 32.52 264.315 29.96L270.267 13.64C270.459 12.936 270.555 12.392 270.555 12.008C270.555 10.536 269.627 9.8 267.771 9.8H265.851C263.291 9.8 261.563 11.08 260.667 13.64L259.227 17.48C258.075 20.616 256.379 23.016 254.139 24.68C251.963 26.28 249.307 27.08 246.171 27.08H225.051C220.379 27.08 218.043 25.288 218.043 21.704C218.043 20.488 218.331 19.08 218.907 17.48L221.691 9.8C222.843 6.664 224.539 4.296 226.779 2.696C229.019 1.032 231.707 0.199999 234.843 0.199999H296.283C300.891 0.199999 304.347 1.096 306.651 2.888C309.019 4.68 310.203 7.336 310.203 10.856C310.203 13.288 309.627 16.136 308.475 19.4L306.747 24.2C304.443 30.472 301.051 35.24 296.571 38.504C292.091 41.768 286.747 43.4 280.539 43.4H253.659C251.099 43.4 249.339 44.68 248.379 47.24L242.427 63.56C242.235 64.2 242.139 64.744 242.139 65.192C242.139 66.664 243.067 67.4 244.923 67.4H246.843C249.403 67.4 251.131 66.12 252.027 63.56L253.467 59.72C254.619 56.584 256.283 54.216 258.459 52.616C260.699 50.952 263.387 50.12 266.523 50.12H287.643C292.315 50.12 294.651 51.912 294.651 55.496C294.651 56.648 294.363 58.056 293.787 59.72L291.003 67.4C289.851 70.536 288.155 72.936 285.915 74.6C283.675 76.2 280.987 77 277.851 77H206.811ZM356.669 77C352.061 77 349.757 75.24 349.757 71.72C349.757 70.44 350.045 69 350.621 67.4L353.981 57.992H313.661C309.053 57.992 306.749 56.232 306.749 52.712C306.749 51.432 307.037 49.992 307.613 48.392L321.629 9.8C322.781 6.664 324.477 4.296 326.717 2.696C328.957 1.032 331.645 0.199999 334.781 0.199999H355.901C360.509 0.199999 362.812 1.96 362.812 5.47999C362.812 6.696 362.525 8.136 361.949 9.8L347.933 48.392H357.533L371.549 9.8C372.701 6.664 374.397 4.296 376.637 2.696C378.877 1.032 381.565 0.199999 384.701 0.199999H405.821C410.429 0.199999 412.733 1.96 412.733 5.47999C412.733 6.696 412.445 8.136 411.869 9.8L390.941 67.4C389.789 70.536 388.093 72.936 385.853 74.6C383.613 76.2 380.925 77 377.789 77H356.669Z" fill="#30503D"/>
</svg>
