<svg width="638" height="315" viewBox="0 0 638 315" fill="none" xmlns="http://www.w3.org/2000/svg">
<path d="M77.1115 306.959C45.0412 273.361 99.5098 174.096 99.5098 174.096C99.5098 174.096 66.4214 247.4 109.182 270.307C151.942 293.214 484.862 255.035 484.862 255.035C484.862 255.035 109.182 340.556 77.1115 306.959Z" fill="#374F3E"/>
<path d="M565.292 7.82118C597.362 41.4186 542.894 140.684 542.894 140.684C542.894 140.684 575.982 67.3802 533.222 44.4729C490.461 21.5656 157.542 59.7444 157.542 59.7444C157.542 59.7444 533.222 -25.7762 565.292 7.82118Z" fill="#374F3E"/>
<path d="M535.805 52.2001C582.433 41.1948 603.04 49.4514 625.508 101.421C572.764 109.746 553.243 98.7768 535.805 52.2001Z" fill="#374F3E"/>
<path d="M534.531 76.3013C552.588 31.9263 571.261 19.919 626.634 31.7324C602.847 79.5376 582.593 89.0877 534.531 76.3013Z" fill="#50815E"/>
<circle cx="487.407" cy="118.795" r="103.846" fill="#FFB47E"/>
<circle cx="487.407" cy="118.795" r="88.5749" fill="#FFE3BB"/>
<path d="M505.733 62.2899C504.206 72.98 487.407 109.632 487.407 109.632C487.407 109.632 470.608 72.98 467.554 62.2899C464.5 51.5998 471.926 47.0398 487.407 45.4912C504.199 47.2899 507.26 51.5998 505.733 62.2899Z" fill="#FFB47E"/>
<path d="M513.33 173.859C507.287 164.909 495.141 126.464 495.141 126.464C495.141 126.464 532.193 142.36 541.632 148.235C551.071 154.109 548.626 162.474 538.189 174.012C524.534 183.949 519.372 182.808 513.33 173.859Z" fill="#FFB47E"/>
<path d="M540.785 139.176C530.213 136.978 494.693 117.902 494.693 117.902C494.693 117.902 532.331 103.448 543.192 101.073C554.053 98.6992 558.136 106.398 558.706 121.946C555.852 138.591 551.358 141.374 540.785 139.176Z" fill="#FFB47E"/>
<path d="M539.393 94.6323C530.488 100.739 492.132 113.163 492.132 113.163C492.132 113.163 507.759 75.9971 513.565 66.516C519.372 57.0349 527.754 59.4188 539.367 69.7721C549.402 83.3548 548.299 88.5252 539.393 94.6323Z" fill="#FFB47E"/>
<path d="M468.444 175.819C469.951 165.126 486.681 128.443 486.681 128.443C486.681 128.443 503.548 165.063 506.623 175.748C509.697 186.432 502.279 191.006 486.801 192.583C470.006 190.816 466.937 186.512 468.444 175.819Z" fill="#FFB47E"/>
<path d="M460.638 64.2653C466.697 73.2037 478.916 111.626 478.916 111.626C478.916 111.626 441.833 95.7996 432.384 89.9426C422.934 84.0855 425.362 75.7164 435.778 64.1585C449.414 54.1964 454.578 55.3269 460.638 64.2653Z" fill="#FFB47E"/>
<path d="M433.247 98.9991C443.824 101.177 479.38 120.186 479.38 120.186C479.38 120.186 441.769 134.712 430.912 137.106C420.055 139.501 415.958 131.81 415.359 116.263C418.182 99.613 422.671 96.8208 433.247 98.9991Z" fill="#FFB47E"/>
<path d="M434.723 143.54C443.617 137.416 481.95 124.921 481.95 124.921C481.95 124.921 466.392 162.116 460.604 171.608C454.815 181.1 446.429 178.732 434.796 168.401C424.735 154.837 425.829 149.664 434.723 143.54Z" fill="#FFB47E"/>
<path d="M23.136 128.141C16.224 128.141 11.008 126.797 7.488 124.109C3.968 121.421 2.208 117.453 2.208 112.205C2.208 108.429 3.104 104.141 4.896 99.3406L11.808 80.1406C15.2 70.7966 20.256 63.6606 26.976 58.7326C33.76 53.8046 41.824 51.3406 51.168 51.3406H83.808C91.04 51.3406 96.512 52.5886 100.224 55.0846C103.936 57.5166 105.792 61.1006 105.792 65.8366C105.792 68.5246 105.152 71.6926 103.872 75.3406C102.72 78.4766 101.024 80.8766 98.784 82.5406C96.544 84.1406 93.856 84.9406 90.72 84.9406H69.6C64.992 84.9406 62.688 83.1806 62.688 79.6606C62.688 78.3806 62.976 76.9406 63.552 75.3406L67.392 64.7806C67.584 64.0766 67.68 63.5326 67.68 63.1486C67.68 61.6766 66.752 60.9406 64.896 60.9406H62.976C60.416 60.9406 58.688 62.2206 57.792 64.7806L39.552 114.701C39.36 115.341 39.264 115.885 39.264 116.333C39.264 117.805 40.192 118.541 42.048 118.541H43.968C46.528 118.541 48.256 117.261 49.152 114.701L53.376 103.181C54.528 100.045 56.192 97.6766 58.368 96.0766C60.608 94.4126 63.296 93.5806 66.432 93.5806H87.552C92.224 93.5806 94.56 95.3726 94.56 98.9566C94.56 100.109 94.272 101.517 93.696 103.181L91.584 108.941C89.344 115.149 85.984 119.917 81.504 123.245C77.024 126.509 71.648 128.141 65.376 128.141H23.136ZM102.562 128.141C99.4895 128.141 97.9535 126.967 97.9535 124.621C97.9535 123.767 98.1455 122.807 98.5295 121.741L112.482 83.3406C113.25 81.25 114.38 79.6713 115.874 78.6046C117.367 77.4953 119.159 76.9406 121.25 76.9406H135.33C138.402 76.9406 139.938 78.114 139.938 80.4606C139.938 81.2713 139.746 82.2313 139.362 83.3406L125.41 121.741C124.642 123.831 123.511 125.431 122.018 126.541C120.524 127.607 118.732 128.141 116.642 128.141H102.562ZM151.617 128.141C148.545 128.141 147.009 126.967 147.009 124.621C147.009 123.767 147.201 122.807 147.585 121.741L154.817 101.901H145.537C142.422 101.901 140.865 100.706 140.865 98.3166C140.865 97.506 141.057 96.5673 141.441 95.5006L145.857 83.3406C146.625 81.25 147.755 79.6713 149.249 78.6046C150.742 77.4953 152.534 76.9406 154.625 76.9406H200.065C203.137 76.9406 204.673 78.114 204.673 80.4606C204.673 81.2713 204.481 82.2313 204.097 83.3406L199.681 95.5006C198.913 97.5913 197.782 99.1913 196.289 100.301C194.838 101.367 193.067 101.901 190.977 101.901H181.697L174.465 121.741C173.697 123.831 172.566 125.431 171.073 126.541C169.579 127.607 167.787 128.141 165.697 128.141H151.617ZM200.624 128.141C197.552 128.141 196.016 126.967 196.016 124.621C196.016 123.767 196.208 122.807 196.592 121.741L210.544 83.3406C211.312 81.25 212.443 79.6713 213.936 78.6046C215.429 77.4953 217.221 76.9406 219.312 76.9406H258.992C262.235 76.9406 264.603 77.4526 266.096 78.4766C267.589 79.458 268.336 81.058 268.336 83.2766C268.336 85.41 267.739 88.0766 266.544 91.2766C264.624 96.5246 262.405 100.279 259.888 102.541C257.413 104.759 254.171 105.869 250.16 105.869H242.032L241.328 107.789C241.2 108.215 241.136 108.578 241.136 108.877C241.136 109.858 241.755 110.349 242.992 110.349H253.232C256.304 110.349 257.84 111.522 257.84 113.869C257.84 114.679 257.648 115.639 257.264 116.749L255.472 121.741C254.704 123.831 253.573 125.431 252.08 126.541C250.587 127.607 248.795 128.141 246.704 128.141H240.304C237.232 128.141 234.907 127.543 233.328 126.349C231.792 125.154 231.024 123.383 231.024 121.037C231.024 119.415 231.408 117.517 232.176 115.341L235.632 105.869H229.232L223.472 121.741C222.704 123.831 221.573 125.431 220.08 126.541C218.587 127.607 216.795 128.141 214.704 128.141H200.624ZM232.496 96.9086C232.325 97.506 232.24 97.89 232.24 98.0606C232.24 98.9993 232.859 99.4686 234.096 99.4686H235.376C236.229 99.4686 236.955 99.2553 237.552 98.8286C238.149 98.3593 238.597 97.7193 238.896 96.9086L242.928 85.9006C243.056 85.4313 243.12 85.0686 243.12 84.8126C243.12 83.8313 242.501 83.3406 241.264 83.3406H239.984C238.277 83.3406 237.125 84.194 236.528 85.9006L232.496 96.9086ZM298.767 76.9406C301.839 76.9406 303.375 78.114 303.375 80.4606C303.375 81.2713 303.183 82.2313 302.799 83.3406L289.743 119.181C289.615 119.607 289.551 119.97 289.551 120.269C289.551 121.25 290.17 121.741 291.407 121.741H292.687C294.394 121.741 295.546 120.887 296.143 119.181L309.199 83.3406C309.967 81.25 311.098 79.6713 312.591 78.6046C314.084 77.4953 315.876 76.9406 317.967 76.9406H332.047C335.119 76.9406 336.655 78.114 336.655 80.4606C336.655 81.2713 336.463 82.2313 336.079 83.3406L324.431 115.341C322.938 119.479 320.698 122.658 317.711 124.877C314.724 127.053 311.14 128.141 306.959 128.141H272.399C269.327 128.141 267.002 127.543 265.423 126.349C263.887 125.154 263.119 123.383 263.119 121.037C263.119 119.415 263.503 117.517 264.271 115.341L275.919 83.3406C276.687 81.25 277.818 79.6713 279.311 78.6046C280.804 77.4953 282.596 76.9406 284.687 76.9406H298.767ZM332.498 128.141C329.425 128.141 327.889 126.967 327.889 124.621C327.889 123.767 328.081 122.807 328.465 121.741L330.322 116.621C331.09 114.53 332.199 112.951 333.65 111.885C335.143 110.775 336.935 110.221 339.026 110.221H353.106C356.22 110.221 357.778 111.415 357.778 113.805C357.778 114.573 357.586 115.511 357.202 116.621L356.242 119.181C356.114 119.607 356.05 119.97 356.05 120.269C356.05 121.25 356.668 121.741 357.906 121.741H359.186C360.892 121.741 362.044 120.887 362.642 119.181L366.61 108.301C366.78 107.917 366.866 107.533 366.866 107.149C366.866 106.21 366.247 105.741 365.01 105.741H347.09C344.018 105.741 341.692 105.143 340.114 103.949C338.535 102.754 337.746 100.983 337.746 98.6366C337.746 96.9726 338.151 95.074 338.962 92.9406L340.114 89.7406C341.607 85.602 343.847 82.4446 346.833 80.2686C349.82 78.05 353.404 76.9406 357.586 76.9406H398.546C401.618 76.9406 403.154 78.114 403.154 80.4606C403.154 81.2713 402.962 82.2313 402.578 83.3406L400.722 88.4606C399.954 90.5513 398.823 92.1513 397.33 93.2606C395.879 94.3273 394.108 94.8606 392.018 94.8606H377.938C374.823 94.8606 373.266 93.666 373.266 91.2766C373.266 90.466 373.458 89.5273 373.842 88.4606L374.802 85.9006C374.93 85.4313 374.994 85.0686 374.994 84.8126C374.994 83.8313 374.375 83.3406 373.138 83.3406H371.858C370.151 83.3406 368.999 84.194 368.402 85.9006L364.434 96.7806C364.263 97.1646 364.178 97.5486 364.178 97.9326C364.178 98.8713 364.796 99.3406 366.034 99.3406H383.954C387.026 99.3406 389.351 99.938 390.93 101.133C392.508 102.327 393.298 104.098 393.298 106.445C393.298 108.109 392.892 110.007 392.082 112.141L390.93 115.341C389.436 119.479 387.196 122.658 384.21 124.877C381.223 127.053 377.639 128.141 373.458 128.141H332.498ZM119.249 262.141C114.64 262.141 112.336 260.381 112.336 256.861C112.336 255.581 112.624 254.141 113.2 252.541L134.129 194.941C135.281 191.805 136.977 189.437 139.217 187.837C141.457 186.173 144.145 185.341 147.281 185.341H168.401C173.009 185.341 175.312 187.101 175.312 190.621C175.312 191.837 175.025 193.277 174.449 194.941L165.617 219.133H175.217L184.049 194.941C185.201 191.805 186.897 189.437 189.137 187.837C191.377 186.173 194.065 185.341 197.201 185.341H218.321C222.929 185.341 225.233 187.101 225.233 190.621C225.233 191.837 224.945 193.277 224.369 194.941L203.441 252.541C202.289 255.677 200.593 258.077 198.353 259.741C196.113 261.341 193.425 262.141 190.289 262.141H169.169C164.561 262.141 162.257 260.381 162.257 256.861C162.257 255.581 162.545 254.141 163.121 252.541L171.76 228.733H162.161L153.521 252.541C152.369 255.677 150.673 258.077 148.433 259.741C146.193 261.341 143.505 262.141 140.369 262.141H119.249ZM217.874 262.141C214.802 262.141 213.266 260.967 213.266 258.621C213.266 257.767 213.458 256.807 213.842 255.741L223.122 230.141C225.383 223.911 228.754 219.154 233.234 215.869C237.757 212.583 243.133 210.941 249.362 210.941H271.122C275.73 210.941 279.207 211.837 281.554 213.629C283.901 215.421 285.074 218.066 285.074 221.565C285.074 224.082 284.477 226.941 283.282 230.141L274.002 255.741C273.234 257.831 272.103 259.431 270.61 260.541C269.117 261.607 267.325 262.141 265.234 262.141H251.154C248.082 262.141 246.546 260.967 246.546 258.621C246.546 257.767 246.738 256.807 247.122 255.741L252.178 241.789H245.778L240.722 255.741C239.954 257.831 238.823 259.431 237.33 260.541C235.837 261.607 234.045 262.141 231.954 262.141H217.874ZM254.546 235.389L260.178 219.901C260.306 219.431 260.37 219.069 260.37 218.813C260.37 217.831 259.751 217.341 258.514 217.341H257.234C255.527 217.341 254.375 218.194 253.778 219.901L248.146 235.389H254.546ZM297.299 262.141C292.691 262.141 289.214 261.245 286.867 259.453C284.52 257.661 283.347 255.015 283.347 251.517C283.347 248.999 283.944 246.141 285.139 242.941L289.747 230.141C292.008 223.911 295.379 219.154 299.859 215.869C304.382 212.583 309.758 210.941 315.987 210.941H337.747C342.568 210.941 346.216 211.773 348.691 213.437C351.166 215.058 352.403 217.447 352.403 220.605C352.403 222.397 351.976 224.509 351.123 226.941C350.355 229.031 349.224 230.631 347.731 231.741C346.238 232.807 344.446 233.341 342.355 233.341H328.275C325.203 233.341 323.667 232.167 323.667 229.821C323.667 228.967 323.859 228.007 324.243 226.941L326.803 219.901C326.931 219.431 326.995 219.069 326.995 218.813C326.995 217.831 326.376 217.341 325.139 217.341H323.859C322.152 217.341 321 218.194 320.403 219.901L308.243 253.181C308.115 253.607 308.051 253.97 308.051 254.269C308.051 255.25 308.67 255.741 309.907 255.741H311.187C312.894 255.741 314.046 254.887 314.643 253.181L317.459 245.501C318.227 243.41 319.336 241.831 320.787 240.765C322.28 239.655 324.072 239.101 326.163 239.101H340.243C343.358 239.101 344.915 240.295 344.915 242.685C344.915 243.453 344.723 244.391 344.339 245.501L342.931 249.341C341.438 253.479 339.198 256.658 336.211 258.877C333.224 261.053 329.64 262.141 325.459 262.141H297.299ZM351.124 262.141C348.052 262.141 346.516 260.967 346.516 258.621C346.516 257.767 346.708 256.807 347.092 255.741L361.044 217.341C361.812 215.25 362.943 213.671 364.436 212.605C365.929 211.495 367.721 210.941 369.812 210.941H383.892C386.964 210.941 388.5 212.114 388.5 214.461C388.5 215.271 388.308 216.231 387.924 217.341L383.252 230.269H387.092C388.799 230.269 389.951 229.415 390.548 227.709L394.324 217.341C395.092 215.25 396.223 213.671 397.716 212.605C399.209 211.495 401.001 210.941 403.092 210.941H417.172C420.244 210.941 421.78 212.114 421.78 214.461C421.78 215.271 421.588 216.231 421.204 217.341L421.14 217.469C418.793 223.869 415.529 228.669 411.348 231.869C407.167 235.069 401.705 236.669 394.964 236.669H393.684L392.98 238.589C392.852 239.015 392.788 239.378 392.788 239.677C392.788 240.658 393.407 241.149 394.644 241.149H406.164C409.236 241.149 410.772 242.322 410.772 244.669C410.772 245.479 410.58 246.439 410.196 247.549L407.252 255.741C406.441 257.874 405.332 259.474 403.924 260.541C402.559 261.607 400.745 262.141 398.484 262.141H390.804C387.732 262.141 385.407 261.543 383.828 260.349C382.292 259.154 381.524 257.383 381.524 255.037C381.524 253.415 381.908 251.517 382.676 249.341L387.284 236.669H380.884L373.972 255.741C373.161 257.874 372.052 259.474 370.644 260.541C369.279 261.607 367.465 262.141 365.204 262.141H351.124Z" fill="#374F3E"/>
</svg>
