<svg width="774" height="178" viewBox="0 0 774 178" fill="none" xmlns="http://www.w3.org/2000/svg">
<g opacity="0.3">
<path d="M717.726 87.6199L717.387 85.8119C725.252 87.0324 730.782 88.6231 749.209 81.0439C731.413 87.4982 717.597 79.4394 710.073 75.0508L709.884 74.9411C722.722 64.7486 743.084 65.9468 759.289 67.3258C736.508 56.0252 713.953 64.6957 705.523 70.4435L700.189 67.5506C703.383 63.1587 711.765 53.507 719.739 50.0358C744.213 39.4134 764.589 61.6857 771.778 74.2389C771.797 74.2696 771.815 74.3007 771.832 74.332C771.814 74.301 771.796 74.27 771.778 74.2389C770.823 72.6873 766.803 71.9605 757.797 80.931C748.612 90.0794 727.256 89.2021 717.726 87.6199Z" fill="#21E5A7"/>
<mask id="mask0_104_656" style="mask-type:alpha" maskUnits="userSpaceOnUse" x="700" y="47" width="72" height="42">
<path d="M717.726 87.6199L717.387 85.8119C725.252 87.0324 730.782 88.6231 749.209 81.0439C731.413 87.4982 717.597 79.4394 710.073 75.0508L709.884 74.9411C722.722 64.7486 743.084 65.9468 759.289 67.3258C736.508 56.0252 713.953 64.6957 705.523 70.4435L700.189 67.5506C703.383 63.1587 711.765 53.507 719.739 50.0358C744.213 39.4134 764.589 61.6857 771.778 74.2389C771.797 74.2696 771.815 74.3007 771.832 74.332C771.814 74.301 771.796 74.27 771.778 74.2389C770.823 72.6873 766.803 71.9605 757.797 80.931C748.612 90.0794 727.256 89.2021 717.726 87.6199Z" fill="#21E5A7"/>
</mask>
<g mask="url(#mask0_104_656)">
<path d="M760.321 67.8002C736.798 63.4062 723.942 81.5329 720.453 91.1454L698.373 68.4092C698.276 68.153 699.815 65.6384 706.758 57.629C725.991 50.8041 748.885 62.3081 760.321 67.8002Z" fill="#0B4F62"/>
</g>
<path d="M678.29 32.3533C700.726 38.5437 701.176 58.7876 698.597 68.1358C682.794 68.1048 670.181 53.3307 665.34 45.407C660.499 37.4832 656.721 37.7585 649.224 34.686C657.457 29.1776 667.17 29.2223 678.29 32.3533Z" fill="#21E5A7"/>
<mask id="mask1_104_656" style="mask-type:alpha" maskUnits="userSpaceOnUse" x="649" y="30" width="51" height="39">
<path d="M678.29 32.3533C700.726 38.5437 701.176 58.7876 698.597 68.1358C682.794 68.1048 670.181 53.3307 665.34 45.407C660.499 37.4832 656.721 37.7585 649.224 34.686C657.457 29.1776 667.17 29.2223 678.29 32.3533Z" fill="#21E5A7"/>
</mask>
<g mask="url(#mask1_104_656)">
<path d="M700.877 64.969L700.044 70.2607C697.701 72.6886 692.624 75.4161 691.058 66.9027C689.1 56.2608 680.767 47.1225 668.656 38.2594C684.15 41.2294 696.592 57.3033 700.877 64.969Z" fill="#0B4F62"/>
</g>
<path opacity="0.1" d="M674.727 117.887C674.926 117.659 675.094 117.479 675.228 117.347C675.31 117.518 675.408 117.744 675.52 118.026C675.805 118.744 676.163 119.773 676.563 121.024C677.364 123.525 678.328 126.887 679.216 130.371C680.105 133.856 680.915 137.453 681.413 140.426C681.661 141.914 681.83 143.235 681.892 144.303C681.956 145.395 681.902 146.149 681.757 146.55C681.641 146.873 681.32 147.192 680.704 147.465C680.095 147.736 679.267 147.928 678.268 148.039C676.275 148.259 673.709 148.139 671.125 147.75C668.542 147.362 665.974 146.71 663.973 145.884C662.972 145.471 662.131 145.021 661.504 144.551C660.87 144.075 660.501 143.612 660.366 143.189C660.235 142.775 660.285 142.056 660.582 141.024C660.871 140.017 661.366 138.801 662.013 137.449C663.307 134.745 665.182 131.551 667.139 128.493C669.095 125.437 671.125 122.53 672.725 120.402C673.525 119.337 674.213 118.474 674.727 117.887Z" fill="url(#paint0_linear_104_656)" stroke="url(#paint1_linear_104_656)"/>
<path opacity="0.6" d="M682.928 104.741C682.805 105.018 682.712 105.245 682.648 105.423C682.837 105.426 683.084 105.42 683.387 105.403C684.159 105.361 685.242 105.254 686.547 105.093C689.153 104.771 692.609 104.236 696.144 103.581C699.681 102.927 703.286 102.154 706.194 101.359C707.648 100.961 708.919 100.56 709.914 100.169C710.932 99.7684 711.594 99.4034 711.897 99.1039C712.142 98.8626 712.297 98.4373 712.287 97.7642C712.277 97.0981 712.105 96.2651 711.786 95.3123C711.15 93.4103 709.965 91.1315 708.529 88.9485C707.093 86.7667 705.424 84.7081 703.836 83.2384C703.041 82.503 702.279 81.9275 701.589 81.5557C700.891 81.1796 700.317 81.0393 699.876 81.0945C699.445 81.1485 698.814 81.4957 698.001 82.1976C697.208 82.882 696.312 83.8413 695.355 84.9964C693.443 87.3047 691.33 90.3461 689.375 93.4051C687.421 96.4623 685.633 99.5247 684.372 101.869C683.741 103.042 683.246 104.029 682.928 104.741Z" fill="url(#paint2_linear_104_656)" stroke="url(#paint3_linear_104_656)"/>
<path opacity="0.05" d="M681.038 116.2C681.01 115.967 680.991 115.768 680.98 115.603C681.131 115.676 681.312 115.77 681.523 115.884C682.206 116.254 683.153 116.817 684.282 117.523C686.539 118.933 689.503 120.9 692.505 123.007C695.508 125.115 698.542 127.359 700.942 129.323C702.143 130.306 703.179 131.213 703.971 131.995C704.777 132.791 705.287 133.415 705.487 133.832C705.655 134.181 705.669 134.637 705.482 135.217C705.295 135.798 704.92 136.459 704.379 137.168C703.299 138.583 701.624 140.102 699.745 141.431C697.867 142.759 695.817 143.876 694.002 144.502C693.094 144.815 692.262 145 691.55 145.034C690.835 145.07 690.282 144.952 689.89 144.706C689.496 144.46 689.012 143.857 688.47 142.876C687.94 141.916 687.393 140.667 686.846 139.221C685.753 136.33 684.679 132.697 683.753 129.119C682.827 125.543 682.052 122.033 681.556 119.393C681.307 118.072 681.13 116.975 681.038 116.2ZM680.975 115.137C680.975 115.136 680.975 115.135 680.975 115.135C680.976 115.135 680.975 115.136 680.975 115.137Z" fill="url(#paint4_linear_104_656)" stroke="url(#paint5_linear_104_656)"/>
<path opacity="0.2" d="M669.582 114.596C669.705 114.319 669.798 114.092 669.861 113.914C669.672 113.911 669.426 113.917 669.123 113.934C668.351 113.976 667.267 114.083 665.963 114.244C663.357 114.566 659.901 115.101 656.365 115.755C652.829 116.41 649.223 117.183 646.316 117.978C644.862 118.376 643.591 118.777 642.595 119.168C641.578 119.568 640.916 119.933 640.612 120.233C640.368 120.474 640.213 120.9 640.223 121.573C640.233 122.239 640.405 123.072 640.724 124.025C641.36 125.927 642.545 128.205 643.981 130.388C645.417 132.57 647.086 134.629 648.674 136.099C649.469 136.834 650.23 137.409 650.921 137.781C651.618 138.157 652.193 138.298 652.634 138.242C653.065 138.188 653.696 137.841 654.509 137.139C655.302 136.455 656.198 135.496 657.155 134.34C659.066 132.032 661.18 128.991 663.135 125.932C665.089 122.875 666.877 119.812 668.138 117.468C668.769 116.295 669.264 115.308 669.582 114.596Z" fill="url(#paint6_linear_104_656)" stroke="url(#paint7_linear_104_656)"/>
<path opacity="0.5" d="M678.076 101.637C677.877 101.865 677.709 102.045 677.575 102.177C677.493 102.007 677.395 101.78 677.283 101.498C676.998 100.78 676.64 99.7517 676.239 98.5C675.439 95.9992 674.475 92.637 673.587 89.153C672.698 85.6681 671.887 82.0709 671.39 79.0981C671.141 77.6109 670.973 76.2895 670.911 75.2211C670.847 74.1294 670.901 73.3753 671.046 72.9745C671.162 72.6514 671.483 72.3322 672.099 72.0591C672.708 71.7888 673.536 71.5959 674.535 71.4856C676.528 71.2654 679.094 71.3853 681.678 71.774C684.26 72.1624 686.829 72.8143 688.83 73.64C689.83 74.0532 690.672 74.503 691.299 74.9736C691.933 75.4495 692.301 75.912 692.436 76.3358C692.568 76.7496 692.518 77.468 692.221 78.5005C691.932 79.507 691.437 80.723 690.79 82.0759C689.496 84.7794 687.621 87.9735 685.664 91.0313C683.708 94.0871 681.678 96.9945 680.078 99.1221C679.278 100.187 678.59 101.05 678.076 101.637Z" fill="url(#paint8_linear_104_656)" stroke="url(#paint9_linear_104_656)"/>
<path d="M671.794 75.7085L672.054 73.2542C679.453 70.5624 688.304 74.4767 690.052 75.158C691.8 75.8392 691.937 77.6736 691.342 78.6034C682.892 72.1505 674.789 73.9847 671.794 75.7085Z" fill="white"/>
<path d="M710.323 94.6745C703.24 82.807 699.338 82.2619 698.272 83.4728C698.33 82.9274 698.874 81.8488 700.59 81.8979C702.734 81.9593 705.686 86.9041 710.323 94.6745Z" fill="white"/>
<path d="M698.862 109.18C703.745 108.373 713.475 108.045 713.328 113.192C715.285 108.766 712.781 105.854 698.862 109.18Z" fill="white"/>
<path opacity="0.3" d="M668.466 108.159C668.689 108.086 668.878 108.02 669.032 107.962C668.902 107.855 668.741 107.729 668.55 107.586C667.927 107.121 667.019 106.498 665.905 105.768C663.678 104.31 660.649 102.445 657.477 100.603C654.304 98.7612 650.995 96.9478 648.205 95.5923C646.81 94.9143 645.551 94.3544 644.509 93.9632C643.449 93.565 642.669 93.3643 642.207 93.3574C641.819 93.3517 641.399 93.53 640.951 93.9425C640.502 94.3558 640.059 94.9741 639.643 95.762C638.811 97.336 638.134 99.4939 637.716 101.757C637.297 104.018 637.144 106.348 637.336 108.259C637.433 109.214 637.614 110.047 637.881 110.707C638.149 111.371 638.487 111.824 638.875 112.077C639.264 112.331 640.015 112.518 641.133 112.598C642.226 112.677 643.589 112.65 645.131 112.54C648.214 112.32 651.962 111.771 655.599 111.112C659.234 110.453 662.745 109.685 665.35 109.028C666.654 108.699 667.724 108.4 668.466 108.159ZM669.457 107.77C669.458 107.769 669.459 107.769 669.459 107.769C669.459 107.769 669.458 107.769 669.457 107.77Z" fill="url(#paint10_linear_104_656)" stroke="url(#paint11_linear_104_656)"/>
<path opacity="0.4" d="M672.174 103.728C672.201 103.961 672.221 104.16 672.232 104.325C672.081 104.251 671.899 104.158 671.689 104.044C671.006 103.673 670.059 103.111 668.929 102.405C666.672 100.995 663.709 99.0279 660.706 96.9204C657.704 94.8124 654.67 92.5686 652.269 90.6043C651.069 89.6218 650.033 88.7143 649.24 87.9323C648.434 87.1365 647.925 86.5131 647.725 86.0958C647.557 85.7463 647.543 85.2907 647.73 84.7108C647.916 84.1298 648.292 83.4685 648.833 82.7601C649.913 81.3451 651.588 79.8255 653.467 78.4965C655.344 77.1683 657.395 76.0519 659.21 75.4258C660.118 75.1127 660.95 74.9282 661.661 74.8932C662.376 74.8581 662.93 74.9755 663.322 75.2214C663.715 75.4679 664.2 76.0711 664.742 77.0521C665.272 78.0115 665.819 79.2603 666.366 80.7068C667.459 83.598 668.533 87.2306 669.459 90.8086C670.385 94.3848 671.16 97.8943 671.656 100.535C671.905 101.856 672.082 102.952 672.174 103.728ZM672.237 104.791C672.236 104.792 672.236 104.793 672.236 104.793C672.236 104.793 672.236 104.792 672.237 104.791Z" fill="url(#paint12_linear_104_656)" stroke="url(#paint13_linear_104_656)"/>
<path d="M646.305 96.5486C643.171 94.8935 641.438 98.2398 640.964 100.12L640.034 99.5251C639.951 98.7443 640.125 96.7883 641.483 95.2113C643.18 93.24 650.222 98.6174 646.305 96.5486Z" fill="white"/>
<path d="M666.716 87.7456C663.917 77.9196 658.83 77.3153 656.636 78.2414C658.011 77.2288 661.174 75.3794 662.82 76.083C664.878 76.9624 665.239 79.8132 666.716 87.7456Z" fill="white"/>
</g>
<path d="M3.072 99.024C3.072 86.224 7.63733 75.3013 16.768 66.256C25.8987 57.2107 36.864 52.688 49.664 52.688C57.9413 52.688 65.7067 54.8213 72.96 59.088C80.2133 63.3547 85.888 69.072 89.984 76.24C90.1547 76.4107 90.7947 77.6053 91.904 79.824C92.16 80.2507 92.416 80.848 92.672 81.616C92.672 81.7013 92.7147 81.8293 92.8 82V82.128H71.424C71.3387 82.0427 71.2107 81.9147 71.04 81.744C64.896 74.9173 57.6853 71.504 49.408 71.504C41.8987 71.504 35.4133 74.2347 29.952 79.696C24.576 85.1573 21.888 91.6853 21.888 99.28C21.888 106.704 24.6187 113.189 30.08 118.736C35.5413 124.197 41.984 126.928 49.408 126.928C57.2587 126.928 64.384 123.643 70.784 117.072C70.9547 116.816 71.168 116.56 71.424 116.304H92.8V116.56C92.6293 116.987 92.3733 117.584 92.032 118.352C87.8507 126.885 82.048 133.584 74.624 138.448C67.2 143.312 58.7947 145.744 49.408 145.744C36.608 145.744 25.6853 141.179 16.64 132.048C7.59467 122.832 3.072 111.824 3.072 99.024ZM102.186 77.008H120.874V146.128H102.186V77.008ZM101.162 70.096C101.162 68.4747 101.973 67.024 103.594 65.744C104.789 64.8053 105.898 63.952 106.922 63.184C107.007 63.184 107.05 63.1413 107.05 63.056C107.05 62.9707 107.007 62.8853 106.922 62.8C106.837 62.6293 106.709 62.416 106.538 62.16C106.111 62.2453 105.002 62.672 103.21 63.44C101.93 64.0373 100.778 64.336 99.754 64.336C96.938 64.336 95.53 62.8853 95.53 59.984C95.53 57.168 96.9807 55.76 99.882 55.76C101.077 55.76 103.125 56.4427 106.026 57.808L106.41 57.936H106.538C106.794 57.68 106.922 57.4667 106.922 57.296V57.168C106.922 56.9973 106.837 56.8693 106.666 56.784C105.471 55.8453 104.319 54.9067 103.21 53.968C101.845 52.688 101.162 51.3653 101.162 50C101.162 48.8053 101.589 47.824 102.442 47.056C103.381 46.2027 104.447 45.776 105.642 45.776C108.458 45.776 110.122 48.8053 110.634 54.864H111.786L111.914 54.48C111.914 54.0533 112.085 52.6453 112.426 50.256C112.853 47.7813 114.005 46.288 115.882 45.776H116.906C118.101 45.776 119.125 46.2027 119.978 47.056C120.831 47.824 121.258 48.8053 121.258 50C121.258 51.7067 119.381 54.0107 115.626 56.912C115.626 56.912 115.583 56.9547 115.498 57.04V57.168C115.583 57.3387 115.711 57.552 115.882 57.808L116.01 57.936H116.138C119.637 56.4853 121.813 55.76 122.666 55.76C125.567 55.76 127.018 57.168 127.018 59.984C127.018 62.8853 125.567 64.336 122.666 64.336C121.642 64.336 119.551 63.6533 116.394 62.288C116.309 62.288 116.181 62.2453 116.01 62.16L115.882 62.288L115.498 63.056L115.626 63.184C119.381 65.9147 121.258 68.2187 121.258 70.096C121.258 71.2907 120.831 72.3147 119.978 73.168C119.125 74.0213 118.101 74.448 116.906 74.448C114.346 74.448 112.853 72.8267 112.426 69.584C112.085 66.9387 111.914 65.5307 111.914 65.36L111.786 65.232H110.762L110.634 65.36C110.634 65.5307 110.463 66.9387 110.122 69.584C109.695 72.8267 108.202 74.448 105.642 74.448C104.447 74.448 103.381 74.0213 102.442 73.168C101.589 72.3147 101.162 71.2907 101.162 70.096ZM131.575 52.944H150.391V76.88H159.607V95.824H150.391V124.24C150.391 124.837 150.69 125.477 151.287 126.16C151.884 126.843 152.482 127.184 153.079 127.184H160.759V146H151.799C150.604 146 149.154 145.744 147.447 145.232C139.682 142.928 134.647 137.851 132.343 130C131.831 128.208 131.575 126.587 131.575 125.136V52.944ZM194.509 77.392V96.208H187.341C186.232 96.208 185.421 96.6347 184.909 97.488C184.482 98.256 184.269 98.6827 184.269 98.768V146H165.325V99.28C165.325 94.3307 166.861 89.8933 169.933 85.968C173.09 82.0427 177.101 79.3973 181.965 78.032C183.501 77.6053 184.952 77.392 186.317 77.392H194.509ZM199.075 77.392H217.891V114.896C218.062 115.92 218.232 116.773 218.403 117.456C219.171 120.187 220.75 122.405 223.139 124.112C225.614 125.819 228.259 126.672 231.075 126.672C234.574 126.672 237.646 125.392 240.291 122.832C243.022 120.272 244.387 117.243 244.387 113.744V77.392H263.203V114.64C263.203 117.2 262.819 119.717 262.051 122.192C259.918 129.189 256.035 134.864 250.403 139.216C244.771 143.483 238.328 145.616 231.075 145.616C224.504 145.616 218.403 143.653 212.771 139.728C207.139 135.803 203.214 130.725 200.995 124.496C199.715 120.912 199.075 118.096 199.075 116.048V77.392ZM267.825 127.568H275.889C276.657 127.568 277.553 127.099 278.577 126.16C279.686 125.136 280.326 124.24 280.497 123.472L285.361 96.464C286.3 91.344 289.073 86.864 293.681 83.024C298.374 79.184 303.281 77.264 308.401 77.264H316.465V96.08H309.297C308.273 96.08 307.121 96.5493 305.841 97.488C304.646 98.3413 303.964 99.28 303.793 100.304L298.929 127.568C298.332 131.152 296.582 134.48 293.681 137.552C288.646 143.013 283.228 145.957 277.425 146.384C276.401 146.469 273.201 146.512 267.825 146.512V127.568ZM371.697 52.176H390.513V89.808H425.969V52.176H444.785V146H425.969V108.752H390.513V146H371.697V52.176ZM498.858 142.288C493.738 144.592 488.575 145.744 483.37 145.744C473.983 145.744 465.962 142.416 459.306 135.76C452.65 129.019 449.322 120.955 449.322 111.568C449.322 102.096 452.65 94.0747 459.306 87.504C466.047 80.848 474.154 77.52 483.626 77.52C490.709 77.52 497.194 79.6107 503.082 83.792C509.055 87.888 513.237 93.264 515.626 99.92C516.991 103.76 517.674 106.96 517.674 109.52V146H498.858V142.288ZM468.138 111.568C468.138 115.749 469.631 119.376 472.618 122.448C475.69 125.435 479.317 126.928 483.498 126.928C487.679 126.928 491.263 125.435 494.25 122.448C497.322 119.376 498.858 115.749 498.858 111.568C498.858 107.472 497.365 103.931 494.378 100.944C491.391 97.872 487.807 96.336 483.626 96.336C479.445 96.336 475.818 97.8293 472.746 100.816C469.674 103.717 468.138 107.301 468.138 111.568ZM522.197 111.568C522.197 103.291 524.885 95.9947 530.261 89.68C535.637 83.28 542.378 79.3547 550.485 77.904C552.533 77.5627 554.496 77.392 556.373 77.392C562.602 77.4773 568.405 79.0987 573.781 82.256C579.157 85.4133 583.338 89.68 586.325 95.056C586.496 95.2267 587.008 96.1653 587.861 97.872C587.861 97.4453 588.117 98.128 588.629 99.92C588.885 100.517 589.098 101.2 589.269 101.968V102.352H568.789C564.949 98.3413 560.853 96.336 556.501 96.336C552.149 96.336 548.48 97.8293 545.493 100.816C542.592 103.803 541.141 107.429 541.141 111.696C541.141 115.877 542.634 119.461 545.621 122.448C548.608 125.435 552.192 126.928 556.373 126.928C561.066 126.928 565.205 124.923 568.789 120.912H589.269V121.296C589.013 122.064 588.672 123.088 588.245 124.368C587.648 126.075 586.197 128.592 583.893 131.92C583.125 133.029 581.461 134.864 578.901 137.424C578.901 137.424 578.773 137.552 578.517 137.808C578.261 137.979 578.09 138.107 578.005 138.192C571.349 143.227 564.138 145.744 556.373 145.744C546.986 145.744 538.922 142.416 532.181 135.76C525.525 129.104 522.197 121.04 522.197 111.568ZM594.849 53.072H613.665V101.584H624.673C625.27 101.584 625.996 101.328 626.849 100.816C630.092 99.3653 632.225 96.6347 633.249 92.624C633.59 90.576 633.761 89.552 633.761 89.552V77.392H652.577V90.576C652.577 92.7093 652.15 95.2267 651.297 98.128C649.932 102.736 647.542 107.045 644.129 111.056C648.14 115.664 650.785 121.125 652.065 127.44C652.065 127.525 652.108 127.781 652.193 128.208C652.278 128.635 652.321 128.891 652.321 128.976C652.406 129.488 652.492 130.427 652.577 131.792V145.872H633.761V132.56C633.761 132.56 633.59 131.536 633.249 129.488C632.054 124.795 629.409 121.893 625.313 120.784C625.228 120.784 625.142 120.741 625.057 120.656C624.886 120.656 624.758 120.656 624.673 120.656H613.665V146.128H594.849V53.072Z" fill="#27262B"/>
<defs>
<linearGradient id="paint0_linear_104_656" x1="675.256" y1="116.642" x2="670.487" y2="148.16" gradientUnits="userSpaceOnUse">
<stop stop-color="#FEB609"/>
<stop offset="1" stop-color="#FAA605"/>
</linearGradient>
<linearGradient id="paint1_linear_104_656" x1="675.256" y1="116.642" x2="670.487" y2="148.16" gradientUnits="userSpaceOnUse">
<stop stop-color="#F38A06"/>
<stop offset="1" stop-color="#FAB10A"/>
</linearGradient>
<linearGradient id="paint2_linear_104_656" x1="682.02" y1="105.744" x2="708.633" y2="88.1977" gradientUnits="userSpaceOnUse">
<stop stop-color="#FABC04"/>
<stop offset="1" stop-color="#FFD00C"/>
</linearGradient>
<linearGradient id="paint3_linear_104_656" x1="682.02" y1="105.744" x2="708.633" y2="88.1977" gradientUnits="userSpaceOnUse">
<stop stop-color="#F38A06"/>
<stop offset="1" stop-color="#FAB10A"/>
</linearGradient>
<linearGradient id="paint4_linear_104_656" x1="680.463" y1="114.986" x2="699.622" y2="142.13" gradientUnits="userSpaceOnUse">
<stop stop-color="#F8BE00"/>
<stop offset="1" stop-color="#FAB205"/>
</linearGradient>
<linearGradient id="paint5_linear_104_656" x1="680.463" y1="114.986" x2="699.622" y2="142.13" gradientUnits="userSpaceOnUse">
<stop stop-color="#F38A06"/>
<stop offset="1" stop-color="#FAB10A"/>
</linearGradient>
<linearGradient id="paint6_linear_104_656" x1="670.49" y1="113.593" x2="643.877" y2="131.139" gradientUnits="userSpaceOnUse">
<stop stop-color="#FBBA08"/>
<stop offset="1" stop-color="#F4A604"/>
</linearGradient>
<linearGradient id="paint7_linear_104_656" x1="670.49" y1="113.593" x2="643.877" y2="131.139" gradientUnits="userSpaceOnUse">
<stop stop-color="#F38A06"/>
<stop offset="1" stop-color="#FAB10A"/>
</linearGradient>
<linearGradient id="paint8_linear_104_656" x1="677.547" y1="102.883" x2="682.316" y2="71.3648" gradientUnits="userSpaceOnUse">
<stop stop-color="#FFCC07"/>
<stop offset="1" stop-color="#FABC05"/>
</linearGradient>
<linearGradient id="paint9_linear_104_656" x1="677.547" y1="102.883" x2="682.316" y2="71.3648" gradientUnits="userSpaceOnUse">
<stop stop-color="#F38A06"/>
<stop offset="1" stop-color="#FAB10A"/>
</linearGradient>
<linearGradient id="paint10_linear_104_656" x1="669.809" y1="108.172" x2="637.133" y2="102.161" gradientUnits="userSpaceOnUse">
<stop stop-color="#FEB80C"/>
<stop offset="1" stop-color="#F9B104"/>
</linearGradient>
<linearGradient id="paint11_linear_104_656" x1="669.809" y1="108.172" x2="637.133" y2="102.161" gradientUnits="userSpaceOnUse">
<stop stop-color="#F38A06"/>
<stop offset="1" stop-color="#FAB10A"/>
</linearGradient>
<linearGradient id="paint12_linear_104_656" x1="672.749" y1="104.942" x2="653.59" y2="77.7977" gradientUnits="userSpaceOnUse">
<stop stop-color="#FDC405"/>
<stop offset="1" stop-color="#FCB906"/>
</linearGradient>
<linearGradient id="paint13_linear_104_656" x1="672.749" y1="104.942" x2="653.59" y2="77.7977" gradientUnits="userSpaceOnUse">
<stop stop-color="#F38A06"/>
<stop offset="1" stop-color="#FAB10A"/>
</linearGradient>
</defs>
</svg>
