<svg width="179" height="169" viewBox="0 0 179 169" fill="none" xmlns="http://www.w3.org/2000/svg">
<path d="M113.355 77.6032L112.962 75.5066C122.082 76.9219 128.494 78.7664 149.862 69.9777C129.053 77.5249 112.936 67.959 104.262 62.9009C119.147 51.0818 142.76 52.4713 161.55 54.0703C135.134 40.9662 108.979 51.0205 99.2038 57.6856L93.019 54.331C96.723 49.2382 106.442 38.0462 115.688 34.021C144.069 21.7034 167.697 47.5301 176.033 62.0866C176.055 62.1223 176.076 62.1583 176.095 62.1947C176.074 62.1587 176.054 62.1227 176.033 62.0866C174.925 60.2874 170.264 59.4447 159.82 69.8468C149.17 80.4552 124.406 79.4379 113.355 77.6032Z" fill="#21E5A7"/>
<mask id="mask0_0_1" style="mask-type:alpha" maskUnits="userSpaceOnUse" x="93" y="30" width="84" height="49">
<path d="M113.355 77.6032L112.962 75.5066C122.082 76.9219 128.494 78.7664 149.862 69.9777C129.053 77.5249 112.936 67.959 104.262 62.9009C119.147 51.0818 142.76 52.4713 161.55 54.0703C135.134 40.9662 108.979 51.0205 99.2038 57.6856L93.019 54.331C96.723 49.2382 106.442 38.0462 115.688 34.021C144.069 21.7034 167.697 47.5301 176.033 62.0866C176.055 62.1223 176.076 62.1583 176.095 62.1947C176.074 62.1587 176.054 62.1227 176.033 62.0866C174.925 60.2874 170.264 59.4447 159.82 69.8468C149.17 80.4552 124.406 79.4379 113.355 77.6032Z" fill="#21E5A7"/>
</mask>
<g mask="url(#mask0_0_1)">
<path d="M162.747 54.6204C135.471 49.5252 120.562 70.5446 116.517 81.6913L90.9135 55.3266C90.7999 55.0296 92.5855 52.1136 100.636 42.8261C122.939 34.912 149.486 48.2518 162.747 54.6204Z" fill="#0B4F62"/>
</g>
<path d="M67.6255 13.5162C93.6415 20.6945 94.1636 44.1691 91.1726 55.0092C72.8479 54.9733 58.2217 37.8414 52.6082 28.6531C46.9947 19.4648 42.614 19.784 33.9204 16.2212C43.4678 9.83367 54.7307 9.88556 67.6255 13.5162Z" fill="#21E5A7"/>
<mask id="mask1_0_1" style="mask-type:alpha" maskUnits="userSpaceOnUse" x="33" y="11" width="60" height="45">
<path d="M67.6255 13.5162C93.6415 20.6945 94.1636 44.1691 91.1726 55.0092C72.8479 54.9733 58.2217 37.8414 52.6082 28.6531C46.9947 19.4648 42.614 19.784 33.9204 16.2212C43.4678 9.83367 54.7307 9.88556 67.6255 13.5162Z" fill="#21E5A7"/>
</mask>
<g mask="url(#mask1_0_1)">
<path d="M93.8167 51.337L92.8512 57.4731C90.1342 60.2885 84.2462 63.4513 82.4301 53.5792C80.16 41.239 70.4969 30.6423 56.4532 20.3648C74.4196 23.8088 88.8482 42.4479 93.8167 51.337Z" fill="#0B4F62"/>
</g>
<path d="M63.4328 112.647C63.7047 112.337 63.9274 112.101 64.0971 111.941C64.2034 112.15 64.3343 112.447 64.487 112.832C64.8186 113.667 65.2339 114.862 65.6988 116.314C66.6277 119.215 67.7455 123.116 68.776 127.157C69.8067 131.199 70.7475 135.373 71.3246 138.823C71.6134 140.549 71.8095 142.085 71.8817 143.327C71.9552 144.594 71.8944 145.483 71.7205 145.964C71.5746 146.368 71.1797 146.751 70.4568 147.072C69.7403 147.39 68.7707 147.615 67.6085 147.743C65.2879 147.999 62.3056 147.859 59.3048 147.408C56.3054 146.957 53.32 146.2 50.993 145.239C49.8287 144.759 48.846 144.234 48.1118 143.683C47.3705 143.126 46.9287 142.578 46.765 142.064C46.6045 141.56 46.6697 140.706 47.0139 139.507C47.3506 138.334 47.9267 136.92 48.6784 135.349C50.1807 132.21 52.3566 128.503 54.6269 124.956C56.8961 121.411 59.2516 118.038 61.1075 115.569C62.0363 114.333 62.8351 113.33 63.4328 112.647Z" fill="url(#paint0_linear_0_1)" stroke="url(#paint1_linear_0_1)"/>
<path d="M72.9308 97.4242C72.7627 97.8013 72.642 98.1024 72.5683 98.3235C72.802 98.3326 73.1273 98.3265 73.5404 98.3039C74.4375 98.2548 75.6962 98.1308 77.2094 97.9438C80.2332 97.5703 84.2428 96.9495 88.3436 96.1903C92.4455 95.4309 96.6289 94.5348 100.003 93.6118C101.691 93.1502 103.167 92.6843 104.326 92.2287C105.506 91.7645 106.288 91.3364 106.652 90.9766C106.958 90.6748 107.139 90.1558 107.127 89.365C107.116 88.5813 106.913 87.6066 106.542 86.4977C105.802 84.2835 104.425 81.6348 102.756 79.0998C101.089 76.566 99.1498 74.1734 97.3018 72.4637C96.3773 71.6083 95.4889 70.9362 94.6807 70.5007C93.8647 70.0611 93.1813 69.8901 92.6459 69.9571C92.121 70.0228 91.3738 70.4397 90.4296 71.255C89.5058 72.0527 88.4632 73.1689 87.3525 74.51C85.1326 77.1902 82.6798 80.72 80.4119 84.2685C78.1451 87.8151 76.0708 91.368 74.6077 94.0882C73.8756 95.4495 73.3002 96.5952 72.9308 97.4242Z" fill="url(#paint2_linear_0_1)" stroke="url(#paint3_linear_0_1)"/>
<path d="M70.7323 110.754C70.6923 110.417 70.6671 110.139 70.656 109.923C70.8554 110.015 71.108 110.144 71.4114 110.308C72.2062 110.739 73.3056 111.392 74.616 112.211C77.2347 113.847 80.6725 116.129 84.1546 118.573C87.6374 121.018 91.1574 123.621 93.9431 125.901C95.3364 127.041 96.5396 128.095 97.4607 129.004C98.3958 129.927 98.9953 130.658 99.2341 131.156C99.4403 131.586 99.4528 132.137 99.2327 132.821C99.0122 133.507 98.571 134.282 97.9409 135.107C96.6819 136.756 94.7328 138.524 92.55 140.068C90.3684 141.611 87.9838 142.91 85.8699 143.639C84.8128 144.003 83.8405 144.22 83.0054 144.261C82.1669 144.302 81.5071 144.165 81.0334 143.868C80.5589 143.571 79.9887 142.855 79.3596 141.716C78.7423 140.599 78.1065 139.147 77.4718 137.468C76.203 134.111 74.9567 129.896 73.8823 125.746C72.8084 121.597 71.9092 117.526 71.3333 114.462C71.0451 112.929 70.8392 111.656 70.7323 110.754Z" fill="url(#paint4_linear_0_1)" stroke="url(#paint5_linear_0_1)"/>
<path d="M73.6487 104.611C73.3258 104.716 73.0631 104.809 72.8622 104.89C73.0295 105.032 73.2521 105.208 73.5286 105.414C74.253 105.955 75.3071 106.679 76.5999 107.525C79.1834 109.217 82.6963 111.381 86.3758 113.517C90.0559 115.653 93.8952 117.757 97.1327 119.33C98.7521 120.117 100.213 120.767 101.425 121.222C102.655 121.684 103.57 121.922 104.122 121.93C104.599 121.937 105.104 121.717 105.633 121.23C106.163 120.743 106.682 120.017 107.167 119.099C108.136 117.264 108.923 114.754 109.41 112.125C109.896 109.497 110.075 106.788 109.85 104.563C109.738 103.45 109.526 102.477 109.214 101.702C108.899 100.923 108.498 100.382 108.03 100.076C107.561 99.77 106.672 99.5525 105.375 99.4588C104.102 99.367 102.517 99.3986 100.726 99.5266C97.1472 99.7823 92.7977 100.419 88.5794 101.184C84.3629 101.948 80.2898 102.839 77.2671 103.601C75.7545 103.982 74.5122 104.33 73.6487 104.611Z" fill="url(#paint6_linear_0_1)" stroke="url(#paint7_linear_0_1)"/>
<path d="M73.6492 104.611C73.3263 104.716 73.0636 104.809 72.8627 104.89C73.0299 105.032 73.2525 105.208 73.5291 105.414C74.2535 105.955 75.3076 106.679 76.6004 107.525C79.1839 109.217 82.6968 111.381 86.3762 113.517C90.0564 115.653 93.8957 117.757 97.1332 119.33C98.7525 120.117 100.214 120.767 101.426 121.222C102.656 121.684 103.571 121.922 104.123 121.93C104.599 121.937 105.105 121.717 105.634 121.23C106.164 120.743 106.682 120.017 107.167 119.099C108.137 117.264 108.924 114.754 109.41 112.125C109.896 109.497 110.075 106.788 109.851 104.563C109.738 103.45 109.527 102.477 109.214 101.702C108.9 100.923 108.499 100.382 108.031 100.076C107.562 99.77 106.673 99.5525 105.375 99.4588C104.102 99.367 102.517 99.3986 100.727 99.5266C97.1477 99.7823 92.7982 100.419 88.5799 101.184C84.3634 101.948 80.2903 102.839 77.2676 103.601C75.755 103.982 74.5126 104.33 73.6492 104.611Z" fill="url(#paint8_linear_0_1)" stroke="url(#paint9_linear_0_1)"/>
<path d="M57.6 108.916C57.768 108.539 57.8888 108.238 57.9625 108.017C57.7288 108.008 57.4035 108.014 56.9904 108.037C56.0933 108.086 54.8346 108.21 53.3213 108.397C50.2975 108.77 46.288 109.391 42.1871 110.15C38.0853 110.91 33.9019 111.806 30.5275 112.729C28.8396 113.19 27.3635 113.656 26.2049 114.112C25.0245 114.576 24.2429 115.004 23.8786 115.364C23.5732 115.666 23.3914 116.185 23.4033 116.976C23.4151 117.759 23.6174 118.734 23.9883 119.843C24.7287 122.057 26.1062 124.706 27.7743 127.241C29.4416 129.775 31.381 132.167 33.2289 133.877C34.1534 134.732 35.0418 135.404 35.85 135.84C36.6661 136.279 37.3495 136.45 37.8848 136.383C38.4097 136.318 39.1569 135.901 40.1012 135.086C41.025 134.288 42.0675 133.172 43.1783 131.831C45.3981 129.15 47.8509 125.621 50.1189 122.072C52.3856 118.525 54.4599 114.973 55.923 112.252C56.6552 110.891 57.2305 109.745 57.6 108.916Z" fill="url(#paint10_linear_0_1)" stroke="url(#paint11_linear_0_1)"/>
<path d="M67.4374 93.9105C67.1655 94.2212 66.9427 94.4571 66.773 94.6167C66.6667 94.4084 66.5358 94.1105 66.3831 93.726C66.0515 92.891 65.6362 91.6963 65.1713 90.2441C64.2424 87.3424 63.1246 83.4421 62.0941 79.4009C61.0635 75.3586 60.1227 71.1851 59.5455 67.7348C59.2568 66.0088 59.0607 64.4734 58.9885 63.2305C58.9149 61.9643 58.9758 61.0751 59.1496 60.5936C59.2955 60.1898 59.6904 59.8071 60.4133 59.4863C61.1298 59.1683 62.0994 58.9433 63.2616 58.8149C65.5822 58.5586 68.5645 58.6984 71.5653 59.1497C74.5647 59.6008 77.5501 60.3581 79.8772 61.3187C81.0414 61.7993 82.0241 62.3239 82.7583 62.875C83.4996 63.4315 83.9415 63.9802 84.1051 64.4943C84.2656 64.9984 84.2004 65.8515 83.8563 67.0506C83.5195 68.2238 82.9434 69.6383 82.1917 71.209C80.6895 74.3483 78.5135 78.0552 76.2432 81.6022C73.974 85.1472 71.6185 88.5202 69.7626 90.9892C68.8338 92.2247 68.035 93.2275 67.4374 93.9105Z" fill="url(#paint12_linear_0_1)" stroke="url(#paint13_linear_0_1)"/>
<path d="M56.258 101.496C56.5809 101.391 56.8436 101.297 57.0445 101.217C56.8773 101.074 56.6547 100.899 56.3781 100.692C55.6537 100.151 54.5996 99.4274 53.3068 98.581C50.7233 96.8898 47.2104 94.7257 43.531 92.5896C39.8508 90.4532 36.0115 88.3493 32.774 86.7763C31.1547 85.9895 29.6932 85.3392 28.4816 84.8843C27.2515 84.4225 26.3363 84.1849 25.7844 84.1767C25.3078 84.1697 24.8024 84.3894 24.2735 84.8762C23.7436 85.3638 23.225 86.0893 22.7399 87.0075C21.7707 88.8421 20.9835 91.3527 20.497 93.9818C20.0109 96.6095 19.8319 99.3188 20.0565 101.544C20.1688 102.656 20.3803 103.63 20.6932 104.405C21.0074 105.183 21.4085 105.725 21.8766 106.03C22.3456 106.337 23.2344 106.554 24.532 106.648C25.8051 106.74 27.3899 106.708 29.1804 106.58C32.7595 106.324 37.109 105.688 41.3273 104.923C45.5438 104.158 49.6169 103.267 52.6396 102.505C54.1522 102.124 55.3946 101.777 56.258 101.496Z" fill="url(#paint14_linear_0_1)" stroke="url(#paint15_linear_0_1)"/>
<path d="M60.612 96.272C60.6519 96.6092 60.6771 96.887 60.6883 97.1031C60.4889 97.011 60.2362 96.8825 59.9328 96.718C59.138 96.2872 58.0387 95.6339 56.7282 94.8151C54.1095 93.179 50.6717 90.8975 47.1896 88.4529C43.7068 86.0079 40.1868 83.4048 37.4012 81.1253C36.0079 79.9851 34.8046 78.9311 33.8835 78.0219C32.9485 77.0989 32.349 76.3676 32.1102 75.87C31.9039 75.4403 31.8914 74.8894 32.1116 74.2051C32.3321 73.5196 32.7732 72.7445 33.4033 71.9191C34.6623 70.2699 36.6114 68.5024 38.7942 66.9583C40.9758 65.415 43.3604 64.1164 45.4743 63.3873C46.5315 63.0227 47.5038 62.8065 48.3389 62.7655C49.1773 62.7243 49.8372 62.8612 50.3108 63.1581C50.7853 63.4555 51.3555 64.1712 51.9847 65.3099C52.6019 66.4272 53.2378 67.8791 53.8725 69.5583C55.1412 72.9147 56.3875 77.1301 57.4619 81.2804C58.5359 85.429 59.435 89.5003 60.011 92.5638C60.2992 94.0969 60.5051 95.3703 60.612 96.272Z" fill="url(#paint16_linear_0_1)" stroke="url(#paint17_linear_0_1)"/>
<path d="M30.5353 87.9567C26.9012 86.0374 24.892 89.9178 24.3416 92.0978L23.2635 91.4083C23.1674 90.5028 23.3689 88.2346 24.9437 86.4059C26.9122 84.12 35.0779 90.3557 30.5353 87.9567Z" fill="white"/>
<path d="M54.2039 77.7489C50.9582 66.3547 45.0593 65.654 42.5155 66.7279C44.1106 65.5537 47.778 63.4091 49.687 64.225C52.0732 65.2448 52.491 68.5505 54.2039 77.7489Z" fill="white"/>
<defs>
<linearGradient id="paint0_linear_0_1" x1="64.1063" y1="111.256" x2="58.5768" y2="147.804" gradientUnits="userSpaceOnUse">
<stop stop-color="#FEB609"/>
<stop offset="1" stop-color="#FAA605"/>
</linearGradient>
<linearGradient id="paint1_linear_0_1" x1="64.1063" y1="111.256" x2="58.5768" y2="147.804" gradientUnits="userSpaceOnUse">
<stop stop-color="#F38A06"/>
<stop offset="1" stop-color="#FAB10A"/>
</linearGradient>
<linearGradient id="paint2_linear_0_1" x1="71.95" y1="98.6191" x2="102.81" y2="78.273" gradientUnits="userSpaceOnUse">
<stop stop-color="#FABC04"/>
<stop offset="1" stop-color="#FFD00C"/>
</linearGradient>
<linearGradient id="paint3_linear_0_1" x1="71.95" y1="98.6191" x2="102.81" y2="78.273" gradientUnits="userSpaceOnUse">
<stop stop-color="#F38A06"/>
<stop offset="1" stop-color="#FAB10A"/>
</linearGradient>
<linearGradient id="paint4_linear_0_1" x1="70.1449" y1="109.337" x2="92.3614" y2="140.813" gradientUnits="userSpaceOnUse">
<stop stop-color="#F8BE00"/>
<stop offset="1" stop-color="#FAB205"/>
</linearGradient>
<linearGradient id="paint5_linear_0_1" x1="70.1449" y1="109.337" x2="92.3614" y2="140.813" gradientUnits="userSpaceOnUse">
<stop stop-color="#F38A06"/>
<stop offset="1" stop-color="#FAB10A"/>
</linearGradient>
<linearGradient id="paint6_linear_0_1" x1="72.1158" y1="104.672" x2="110.007" y2="111.641" gradientUnits="userSpaceOnUse">
<stop stop-color="#FABC07"/>
<stop offset="1" stop-color="#FFC302"/>
</linearGradient>
<linearGradient id="paint7_linear_0_1" x1="72.1158" y1="104.672" x2="110.007" y2="111.641" gradientUnits="userSpaceOnUse">
<stop stop-color="#F38A06"/>
<stop offset="1" stop-color="#FAB10A"/>
</linearGradient>
<linearGradient id="paint8_linear_0_1" x1="72.1162" y1="104.672" x2="110.008" y2="111.641" gradientUnits="userSpaceOnUse">
<stop stop-color="#FABC07"/>
<stop offset="1" stop-color="#FFC302"/>
</linearGradient>
<linearGradient id="paint9_linear_0_1" x1="72.1162" y1="104.672" x2="110.008" y2="111.641" gradientUnits="userSpaceOnUse">
<stop stop-color="#F38A06"/>
<stop offset="1" stop-color="#FAB10A"/>
</linearGradient>
<linearGradient id="paint10_linear_0_1" x1="58.5808" y1="107.721" x2="27.7205" y2="128.068" gradientUnits="userSpaceOnUse">
<stop stop-color="#FBBA08"/>
<stop offset="1" stop-color="#F4A604"/>
</linearGradient>
<linearGradient id="paint11_linear_0_1" x1="58.5808" y1="107.721" x2="27.7205" y2="128.068" gradientUnits="userSpaceOnUse">
<stop stop-color="#F38A06"/>
<stop offset="1" stop-color="#FAB10A"/>
</linearGradient>
<linearGradient id="paint12_linear_0_1" x1="66.7638" y1="95.302" x2="72.2933" y2="58.7541" gradientUnits="userSpaceOnUse">
<stop stop-color="#FFCC07"/>
<stop offset="1" stop-color="#FABC05"/>
</linearGradient>
<linearGradient id="paint13_linear_0_1" x1="66.7638" y1="95.302" x2="72.2933" y2="58.7541" gradientUnits="userSpaceOnUse">
<stop stop-color="#F38A06"/>
<stop offset="1" stop-color="#FAB10A"/>
</linearGradient>
<linearGradient id="paint14_linear_0_1" x1="57.791" y1="101.435" x2="19.8997" y2="94.4656" gradientUnits="userSpaceOnUse">
<stop stop-color="#FEB80C"/>
<stop offset="1" stop-color="#F9B104"/>
</linearGradient>
<linearGradient id="paint15_linear_0_1" x1="57.791" y1="101.435" x2="19.8997" y2="94.4656" gradientUnits="userSpaceOnUse">
<stop stop-color="#F38A06"/>
<stop offset="1" stop-color="#FAB10A"/>
</linearGradient>
<linearGradient id="paint16_linear_0_1" x1="61.1993" y1="97.6893" x2="38.9829" y2="66.2131" gradientUnits="userSpaceOnUse">
<stop stop-color="#FDC405"/>
<stop offset="1" stop-color="#FCB906"/>
</linearGradient>
<linearGradient id="paint17_linear_0_1" x1="61.1993" y1="97.6893" x2="38.9829" y2="66.2131" gradientUnits="userSpaceOnUse">
<stop stop-color="#F38A06"/>
<stop offset="1" stop-color="#FAB10A"/>
</linearGradient>
</defs>
</svg>
