<svg width="1512" height="158" viewBox="0 0 1512 158" fill="none" xmlns="http://www.w3.org/2000/svg">
<rect x="-1" width="1513" height="158" fill="#101010"/>
<mask id="mask0_77_1321" style="mask-type:alpha" maskUnits="userSpaceOnUse" x="-1" y="0" width="1513" height="158">
<rect x="-1" width="1513" height="158" fill="#101010"/>
</mask>
<g mask="url(#mask0_77_1321)">
<line x1="34.8819" y1="-16.3543" x2="-174.118" y2="222.646" stroke="#27262B" stroke-width="5"/>
<line x1="53.8819" y1="-16.3543" x2="-155.118" y2="222.646" stroke="#27262B" stroke-width="5"/>
<line x1="72.8819" y1="-16.3543" x2="-136.118" y2="222.646" stroke="#27262B" stroke-width="5"/>
<line x1="91.8819" y1="-16.3543" x2="-117.118" y2="222.646" stroke="#27262B" stroke-width="5"/>
<line x1="110.882" y1="-16.3543" x2="-98.1181" y2="222.646" stroke="#27262B" stroke-width="5"/>
<line x1="129.882" y1="-16.3543" x2="-79.1181" y2="222.646" stroke="#27262B" stroke-width="5"/>
<line x1="148.882" y1="-16.3543" x2="-60.1181" y2="222.646" stroke="#27262B" stroke-width="5"/>
<line x1="167.882" y1="-16.3543" x2="-41.1181" y2="222.646" stroke="#27262B" stroke-width="5"/>
<line x1="186.882" y1="-16.3543" x2="-22.1181" y2="222.646" stroke="#27262B" stroke-width="5"/>
<line x1="205.882" y1="-16.3543" x2="-3.11807" y2="222.646" stroke="#27262B" stroke-width="5"/>
<line x1="224.882" y1="-16.3543" x2="15.8819" y2="222.646" stroke="#27262B" stroke-width="5"/>
<line x1="243.882" y1="-16.3543" x2="34.8819" y2="222.646" stroke="#27262B" stroke-width="5"/>
<line x1="262.882" y1="-16.3543" x2="53.8819" y2="222.646" stroke="#27262B" stroke-width="5"/>
<line x1="281.882" y1="-16.3543" x2="72.8819" y2="222.646" stroke="#27262B" stroke-width="5"/>
<line x1="300.882" y1="-16.3543" x2="91.8819" y2="222.646" stroke="#27262B" stroke-width="5"/>
<line x1="319.882" y1="-16.3543" x2="110.882" y2="222.646" stroke="#27262B" stroke-width="5"/>
<line x1="338.882" y1="-16.3543" x2="129.882" y2="222.646" stroke="#27262B" stroke-width="5"/>
<line x1="357.882" y1="-16.3543" x2="148.882" y2="222.646" stroke="#27262B" stroke-width="5"/>
<line x1="376.882" y1="-16.3543" x2="167.882" y2="222.646" stroke="#27262B" stroke-width="5"/>
<line x1="395.882" y1="-16.3543" x2="186.882" y2="222.646" stroke="#27262B" stroke-width="5"/>
<line x1="414.882" y1="-16.3543" x2="205.882" y2="222.646" stroke="#27262B" stroke-width="5"/>
<line x1="433.882" y1="-16.3543" x2="224.882" y2="222.646" stroke="#27262B" stroke-width="5"/>
<line x1="452.882" y1="-16.3543" x2="243.882" y2="222.646" stroke="#27262B" stroke-width="5"/>
<line x1="471.882" y1="-16.3543" x2="262.882" y2="222.646" stroke="#27262B" stroke-width="5"/>
<line x1="490.882" y1="-16.3543" x2="281.882" y2="222.646" stroke="#27262B" stroke-width="5"/>
<line x1="509.882" y1="-16.3543" x2="300.882" y2="222.646" stroke="#27262B" stroke-width="5"/>
<line x1="528.882" y1="-16.3543" x2="319.882" y2="222.646" stroke="#27262B" stroke-width="5"/>
<line x1="547.882" y1="-16.3543" x2="338.882" y2="222.646" stroke="#27262B" stroke-width="5"/>
<line x1="566.882" y1="-16.3543" x2="357.882" y2="222.646" stroke="#27262B" stroke-width="5"/>
<line x1="585.882" y1="-16.3543" x2="376.882" y2="222.646" stroke="#27262B" stroke-width="5"/>
<line x1="604.882" y1="-16.3543" x2="395.882" y2="222.646" stroke="#27262B" stroke-width="5"/>
<line x1="623.882" y1="-16.3543" x2="414.882" y2="222.646" stroke="#27262B" stroke-width="5"/>
<line x1="642.882" y1="-16.3543" x2="433.882" y2="222.646" stroke="#27262B" stroke-width="5"/>
<line x1="661.882" y1="-16.3543" x2="452.882" y2="222.646" stroke="#27262B" stroke-width="5"/>
<line x1="680.882" y1="-16.3543" x2="471.882" y2="222.646" stroke="#27262B" stroke-width="5"/>
<line x1="699.882" y1="-16.3543" x2="490.882" y2="222.646" stroke="#27262B" stroke-width="5"/>
<line x1="718.882" y1="-16.3543" x2="509.882" y2="222.646" stroke="#27262B" stroke-width="5"/>
<line x1="737.882" y1="-16.3543" x2="528.882" y2="222.646" stroke="#27262B" stroke-width="5"/>
<line x1="756.882" y1="-16.3543" x2="547.882" y2="222.646" stroke="#27262B" stroke-width="5"/>
<line x1="775.882" y1="-16.3543" x2="566.882" y2="222.646" stroke="#27262B" stroke-width="5"/>
<line x1="794.882" y1="-16.3543" x2="585.882" y2="222.646" stroke="#27262B" stroke-width="5"/>
<line x1="813.882" y1="-16.3543" x2="604.882" y2="222.646" stroke="#27262B" stroke-width="5"/>
<line x1="832.882" y1="-16.3543" x2="623.882" y2="222.646" stroke="#27262B" stroke-width="5"/>
<line x1="851.882" y1="-16.3543" x2="642.882" y2="222.646" stroke="#27262B" stroke-width="5"/>
<line x1="870.882" y1="-16.3543" x2="661.882" y2="222.646" stroke="#27262B" stroke-width="5"/>
<line x1="889.882" y1="-16.3543" x2="680.882" y2="222.646" stroke="#27262B" stroke-width="5"/>
<line x1="908.882" y1="-16.3543" x2="699.882" y2="222.646" stroke="#27262B" stroke-width="5"/>
<line x1="927.882" y1="-16.3543" x2="718.882" y2="222.646" stroke="#27262B" stroke-width="5"/>
<line x1="946.882" y1="-16.3543" x2="737.882" y2="222.646" stroke="#27262B" stroke-width="5"/>
<line x1="965.882" y1="-16.3543" x2="756.882" y2="222.646" stroke="#27262B" stroke-width="5"/>
<line x1="984.882" y1="-16.3543" x2="775.882" y2="222.646" stroke="#27262B" stroke-width="5"/>
<line x1="1003.88" y1="-16.3543" x2="794.882" y2="222.646" stroke="#27262B" stroke-width="5"/>
<line x1="1022.88" y1="-16.3543" x2="813.882" y2="222.646" stroke="#27262B" stroke-width="5"/>
<line x1="1041.88" y1="-16.3543" x2="832.882" y2="222.646" stroke="#27262B" stroke-width="5"/>
<line x1="1060.88" y1="-16.3543" x2="851.882" y2="222.646" stroke="#27262B" stroke-width="5"/>
<line x1="1079.88" y1="-16.3543" x2="870.882" y2="222.646" stroke="#27262B" stroke-width="5"/>
<line x1="1098.88" y1="-16.3543" x2="889.882" y2="222.646" stroke="#27262B" stroke-width="5"/>
<line x1="1117.88" y1="-16.3543" x2="908.882" y2="222.646" stroke="#27262B" stroke-width="5"/>
<line x1="1136.88" y1="-16.3543" x2="927.882" y2="222.646" stroke="#27262B" stroke-width="5"/>
<line x1="1155.88" y1="-16.3543" x2="946.882" y2="222.646" stroke="#27262B" stroke-width="5"/>
<line x1="1174.88" y1="-16.3543" x2="965.882" y2="222.646" stroke="#27262B" stroke-width="5"/>
<line x1="1193.88" y1="-16.3543" x2="984.882" y2="222.646" stroke="#27262B" stroke-width="5"/>
<line x1="1212.88" y1="-16.3543" x2="1003.88" y2="222.646" stroke="#27262B" stroke-width="5"/>
<line x1="1231.88" y1="-16.3543" x2="1022.88" y2="222.646" stroke="#27262B" stroke-width="5"/>
<line x1="1250.88" y1="-16.3543" x2="1041.88" y2="222.646" stroke="#27262B" stroke-width="5"/>
<line x1="1269.88" y1="-16.3543" x2="1060.88" y2="222.646" stroke="#27262B" stroke-width="5"/>
<line x1="1288.88" y1="-16.3543" x2="1079.88" y2="222.646" stroke="#27262B" stroke-width="5"/>
<line x1="1307.88" y1="-16.3543" x2="1098.88" y2="222.646" stroke="#27262B" stroke-width="5"/>
<line x1="1326.88" y1="-16.3543" x2="1117.88" y2="222.646" stroke="#27262B" stroke-width="5"/>
<line x1="1345.88" y1="-16.3543" x2="1136.88" y2="222.646" stroke="#27262B" stroke-width="5"/>
<line x1="1364.88" y1="-16.3543" x2="1155.88" y2="222.646" stroke="#27262B" stroke-width="5"/>
<line x1="1383.88" y1="-16.3543" x2="1174.88" y2="222.646" stroke="#27262B" stroke-width="5"/>
<line x1="1402.88" y1="-16.3543" x2="1193.88" y2="222.646" stroke="#27262B" stroke-width="5"/>
<line x1="1421.88" y1="-16.3543" x2="1212.88" y2="222.646" stroke="#27262B" stroke-width="5"/>
<line x1="1440.88" y1="-16.3543" x2="1231.88" y2="222.646" stroke="#27262B" stroke-width="5"/>
<line x1="1459.88" y1="-16.3543" x2="1250.88" y2="222.646" stroke="#27262B" stroke-width="5"/>
<line x1="1478.88" y1="-16.3543" x2="1269.88" y2="222.646" stroke="#27262B" stroke-width="5"/>
<line x1="1497.88" y1="-16.3543" x2="1288.88" y2="222.646" stroke="#27262B" stroke-width="5"/>
<line x1="1516.88" y1="-16.3543" x2="1307.88" y2="222.646" stroke="#27262B" stroke-width="5"/>
<line x1="1535.88" y1="-16.3543" x2="1326.88" y2="222.646" stroke="#27262B" stroke-width="5"/>
<line x1="1554.88" y1="-16.3543" x2="1345.88" y2="222.646" stroke="#27262B" stroke-width="5"/>
<line x1="1573.88" y1="-16.3543" x2="1364.88" y2="222.646" stroke="#27262B" stroke-width="5"/>
<line x1="1592.88" y1="-16.3543" x2="1383.88" y2="222.646" stroke="#27262B" stroke-width="5"/>
<line x1="1611.88" y1="-16.3543" x2="1402.88" y2="222.646" stroke="#27262B" stroke-width="5"/>
<line x1="1630.88" y1="-16.3543" x2="1421.88" y2="222.646" stroke="#27262B" stroke-width="5"/>
<line x1="1649.88" y1="-16.3543" x2="1440.88" y2="222.646" stroke="#27262B" stroke-width="5"/>
<line x1="1668.88" y1="-16.3543" x2="1459.88" y2="222.646" stroke="#27262B" stroke-width="5"/>
<line x1="1687.88" y1="-16.3543" x2="1478.88" y2="222.646" stroke="#27262B" stroke-width="5"/>
<line x1="1706.88" y1="-16.3543" x2="1497.88" y2="222.646" stroke="#27262B" stroke-width="5"/>
</g>
</svg>
