<svg width="76" height="32" viewBox="0 0 76 32" fill="none" xmlns="http://www.w3.org/2000/svg">
<path d="M38 15.5V26L59.5 5.5L54.5 0L38 15.5Z" fill="#27262B"/>
<path d="M38 15.5V26L59.5 5.5L54.5 0L38 15.5Z" fill="#27262B"/>
<path d="M38 15.5V26L59.5 5.5L54.5 0L38 15.5Z" fill="#27262B"/>
<path d="M38 15.5V26L16.5 5.5L21.5 0L38 15.5Z" fill="#27262B"/>
<path d="M38 15.5V26L16.5 5.5L21.5 0L38 15.5Z" fill="#27262B"/>
<path d="M38 15.5V26L16.5 5.5L21.5 0L38 15.5Z" fill="#27262B"/>
<path d="M75.5 22L76 32L56 12L61 7L75.5 22Z" fill="#27262B"/>
<path d="M75.5 22L76 32L56 12L61 7L75.5 22Z" fill="#27262B"/>
<path d="M75.5 22L76 32L56 12L61 7L75.5 22Z" fill="#27262B"/>
<path d="M0.5 22L0 32L20 12L15 7L0.5 22Z" fill="#27262B"/>
<path d="M0.5 22L0 32L20 12L15 7L0.5 22Z" fill="#27262B"/>
<path d="M0.5 22L0 32L20 12L15 7L0.5 22Z" fill="#27262B"/>
</svg>
