<svg width="329" height="599" viewBox="0 0 329 599" fill="none" xmlns="http://www.w3.org/2000/svg">
<path d="M-60 369.691L46.5 121.691L184 265.691L-60 369.691Z" fill="#FDB100"/>
<path d="M107 173.191L-59 369.191L75 139.191L107 173.191Z" fill="#FDE37D"/>
<ellipse cx="119.876" cy="189.712" rx="100.104" ry="59.2947" transform="rotate(45 119.876 189.712)" fill="#4E342E"/>
<path d="M-71 443.479L145.232 281.955L192.31 475.413L-71 443.479Z" fill="#FDB100"/>
<path d="M171.876 356.804L-69.884 443.545L161.163 311.359L171.876 356.804Z" fill="#FDE37D"/>
<ellipse cx="174.767" cy="377.55" rx="100.104" ry="59.2947" transform="rotate(75 174.767 377.55)" fill="#4E342E"/>
<path d="M18.3813 100.496L1.06081 110.496C6.56082 120.023 21.2569 133.477 37.2784 124.227C53.2999 114.977 50.1252 84.4784 47.5223 70.97C62.3034 89.5716 74.0175 101.861 87.0749 95.4771C100.132 89.0931 101.069 48.7152 108.015 48.7463C113.572 48.7712 124.66 63.5772 129.51 70.9771L147.264 60.7271C140.392 49.4911 121.974 27.5236 103.278 29.5418C84.5824 31.56 77.8408 59.8165 76.8069 73.6925C67.6195 62.4461 46.2601 40.9838 34.3214 45.1053C19.398 50.2572 30.5595 105.59 27.5284 107.34C25.1036 108.74 20.42 103.361 18.3813 100.496Z" fill="#5798FB"/>
<path d="M74.944 492.571L57.6235 482.571C52.1235 492.097 47.8197 511.551 63.8412 520.801C79.8626 530.051 104.688 512.053 115.085 503.044C106.366 525.146 101.58 541.435 113.638 549.551C125.695 557.667 161.132 538.289 164.578 544.321C167.335 549.145 160.057 566.151 156.073 574.051L173.826 584.301C180.121 572.732 189.936 545.798 178.841 530.616C167.745 515.434 139.904 523.724 127.37 529.767C132.516 516.187 140.423 486.958 130.884 478.68C118.961 468.331 76.6222 505.664 73.5911 503.914C71.1663 502.514 73.4827 495.768 74.944 492.571Z" fill="#FD8D00"/>
<rect x="218.749" y="93" width="35" height="35" transform="rotate(45 218.749 93)" fill="#5798FB"/>
<rect x="33.0586" y="556" width="35" height="35" transform="rotate(15 33.0586 556)" fill="#5798FB"/>
</svg>
