<svg width="189" height="189" viewBox="0 0 189 189" fill="none" xmlns="http://www.w3.org/2000/svg">
<path d="M130.932 37.8661C145.339 18.7132 155.905 15.2934 181.175 28.0866C163.559 48.166 152.542 50.1952 130.932 37.8661Z" fill="#30503D"/>
<path d="M138.617 47.5404C131.36 24.6991 134.697 14.1067 159.769 0.929244C165.921 26.923 161.189 37.0765 138.617 47.5404Z" fill="#50815E"/>
<path d="M178.575 95.0003C178.575 141.433 140.933 179.075 94.5001 179.075C48.067 179.075 10.4255 141.433 10.4255 95.0003C10.4255 48.5672 48.067 10.9258 94.5001 10.9258C140.933 10.9258 178.575 48.5672 178.575 95.0003Z" fill="#383838"/>
<path d="M154.255 51.764C154.897 50.5011 155.501 49.215 156.064 47.9075C166.064 60.9607 172.006 77.2866 172.006 95.0003C172.006 110.81 167.273 125.514 159.146 137.772C158.619 135.84 158.008 133.942 157.317 132.083C163.912 121.023 167.7 108.095 167.7 94.2827C167.7 78.4552 162.726 63.7896 154.255 51.764Z" fill="#D9D9D9"/>
<path d="M31.1529 133.562C24.0009 122.182 19.8645 108.715 19.8645 94.2827C19.8645 77.9333 25.1724 62.8237 34.1591 50.5831C33.7326 49.7018 33.3248 48.8098 32.9363 47.9075C22.9363 60.9607 16.9939 77.2866 16.9939 95.0003C16.9939 110.81 21.7273 125.514 29.8543 137.772C30.242 136.349 30.6754 134.945 31.1529 133.562Z" fill="#D9D9D9"/>
<path d="M80.0498 28.221C84.7076 27.2179 89.542 26.6898 94.4998 26.6898C99.9255 26.6898 105.204 27.3223 110.264 28.5177V19.0984C105.174 18.0467 99.9014 17.4941 94.4998 17.4941C89.5616 17.4941 84.7313 17.9559 80.0498 18.8387V28.221Z" fill="#D9D9D9"/>
<path d="M52.1665 159.935C56.1581 162.542 60.4049 164.792 64.8613 166.638L71.9853 159.514C68.3782 158.255 64.9089 156.702 61.6062 154.884C58.6054 156.795 55.4513 158.486 52.1665 159.935Z" fill="#D9D9D9"/>
<path d="M75.8275 170.242C73.4724 169.66 71.1597 168.97 68.895 168.177L76.2316 160.841C78.6437 161.509 81.1093 162.047 83.6207 162.449L75.8275 170.242Z" fill="#D9D9D9"/>
<path d="M80.4138 171.23C83.0235 171.709 85.6789 172.057 88.3731 172.268L97.3902 163.251C96.4317 163.291 95.4681 163.311 94.4998 163.311C92.5071 163.311 90.5344 163.226 88.585 163.058L80.4138 171.23Z" fill="#D9D9D9"/>
<path d="M94.4998 172.507C94.2368 172.507 93.9742 172.505 93.7118 172.503L103.49 162.725C107.459 162.203 111.321 161.34 115.045 160.167L103.187 172.025C100.335 172.343 97.4365 172.507 94.4998 172.507Z" fill="#D9D9D9"/>
<path d="M109.786 170.999C119.597 169.037 128.74 165.222 136.833 159.935C133.548 158.486 130.394 156.795 127.393 154.884C126.378 155.443 125.346 155.977 124.3 156.485L109.786 170.999Z" fill="#D9D9D9"/>
<path d="M145.733 92.373C145.733 120.668 122.795 143.606 94.5001 143.606C66.2049 143.606 43.2672 120.668 43.2672 92.373C43.2672 64.0778 66.2049 41.1401 94.5001 41.1401C122.795 41.1401 145.733 64.0778 145.733 92.373Z" fill="#656565"/>
<path d="M143.106 92.373C143.106 119.217 121.344 140.979 94.5001 140.979C67.6559 140.979 45.8945 119.217 45.8945 92.373C45.8945 65.5289 67.6559 43.7674 94.5001 43.7674C121.344 43.7674 143.106 65.5289 143.106 92.373Z" fill="#262626"/>
<path d="M139.165 91.7162C139.165 116.746 118.874 137.038 93.8432 137.038C68.8129 137.038 48.5218 116.746 48.5218 91.7162C48.5218 66.6858 68.8129 46.3947 93.8432 46.3947C118.874 46.3947 139.165 66.6858 139.165 91.7162Z" fill="#3E3E3E"/>
<path d="M120.773 92.373C120.773 106.883 109.01 118.646 94.5001 118.646C79.9897 118.646 68.2268 106.883 68.2268 92.373C68.2268 77.8627 79.9897 66.0997 94.5001 66.0997C109.01 66.0997 120.773 77.8627 120.773 92.373Z" fill="#858585"/>
<path d="M112.891 91.7162C112.891 102.236 104.363 110.764 93.8432 110.764C83.3232 110.764 74.7951 102.236 74.7951 91.7162C74.7951 81.1962 83.3232 72.668 93.8432 72.668C104.363 72.668 112.891 81.1962 112.891 91.7162Z" fill="#252525"/>
<path d="M108.95 92.373C108.95 100.354 102.481 106.823 94.5001 106.823C86.5194 106.823 80.0498 100.354 80.0498 92.373C80.0498 84.3923 86.5194 77.9227 94.5001 77.9227C102.481 77.9227 108.95 84.3923 108.95 92.373Z" fill="#313131"/>
<path d="M99.7547 91.7162C99.7547 94.981 97.1081 97.6276 93.8432 97.6276C90.5784 97.6276 87.9318 94.981 87.9318 91.7162C87.9318 88.4513 90.5784 85.8047 93.8432 85.8047C97.1081 85.8047 99.7547 88.4513 99.7547 91.7162Z" fill="#737373"/>
</svg>
